<?xml version="1.0" encoding="UTF-8" standalone="no"?>
<!-- Created with Inkscape (http://www.inkscape.org/) -->

<svg
   width="117.94802mm"
   height="29.214317mm"
   viewBox="0 0 117.94802 29.214317"
   version="1.1"
   id="svg1"
   inkscape:version="1.3 (0e150ed6c4, 2023-07-21)"
   sodipodi:docname="andersson.svg"
   xmlns:inkscape="http://www.inkscape.org/namespaces/inkscape"
   xmlns:sodipodi="http://sodipodi.sourceforge.net/DTD/sodipodi-0.dtd"
   xmlns="http://www.w3.org/2000/svg"
   xmlns:svg="http://www.w3.org/2000/svg">
  <sodipodi:namedview
     id="namedview1"
     pagecolor="#505050"
     bordercolor="#eeeeee"
     borderopacity="1"
     inkscape:showpageshadow="0"
     inkscape:pageopacity="0"
     inkscape:pagecheckerboard="0"
     inkscape:deskcolor="#d1d1d1"
     inkscape:document-units="mm"
     inkscape:zoom="0.71713664"
     inkscape:cx="251.69541"
     inkscape:cy="223.80672"
     inkscape:window-width="1920"
     inkscape:window-height="1011"
     inkscape:window-x="0"
     inkscape:window-y="0"
     inkscape:window-maximized="1"
     inkscape:current-layer="layer1" />
  <defs
     id="defs1" />
  <g
     inkscape:label="Layer 1"
     inkscape:groupmode="layer"
     id="layer1"
     transform="translate(-1.2718438,-61.301591)">
    <path
       d="m 9.8815377,87.290606 c 0,0.453142 0.4264863,0.799662 0.8529733,0.799662 0.293209,0 0.453141,-0.133277 0.613074,-0.373176 0.959594,-1.439391 1.919188,-3.491857 2.745506,-5.011215 6.077431,1.279459 9.622599,3.758411 11.70172,4.98456 0.186588,0.106621 0.373176,0.266554 0.506453,0.373175 0.399831,0.319865 1.146182,-0.02666 1.146182,-0.639729 0,-0.799662 -0.239899,-1.33277 -0.426486,-2.105777 -0.346521,-1.519358 -1.092872,-3.891688 -1.386081,-5.411046 1.119527,-0.05331 2.37233,0.05331 3.465202,-0.106621 0.453141,-0.05331 0.746351,-0.319865 0.746351,-0.799662 0,-0.453142 -0.29321,-0.773007 -0.746351,-0.773007 -1.252804,0 -2.505608,0.07997 -3.758412,0.133277 -0.613074,-3.598479 -1.066216,-7.223613 -1.33277,-10.848748 -0.133277,-1.785911 -0.02665,-3.678445 -0.239898,-5.437701 -0.05331,-0.34652 -0.29321,-0.773007 -0.693041,-0.773007 -0.479797,0 -0.666385,0.133277 -0.852972,0.559764 -0.852973,1.839222 -1.599324,3.731756 -2.425642,5.597634 -1.732601,3.891688 -3.571823,7.730065 -5.517667,11.515132 -2.079122,0.133277 -4.184898,0.319865 -6.2640192,0.506453 -1.9458442,0.186588 -4.1049315,0.213243 -5.9974649,0.613074 -0.4264864,0.07997 -0.7463511,0.319865 -0.7463511,0.799662 0,0.479797 0.3198647,0.666385 0.7463511,0.746351 1.066216,0.186588 2.265709,0.213243 3.3585804,0.293209 l 7.0103697,0.613075 C 12.06728,83.132363 9.8815377,86.970741 9.8815377,87.290606 Z M 25.448291,85.531349 c -3.198648,-1.67929 -6.264019,-3.251958 -10.582194,-4.318174 l 0.399831,-0.746351 c 2.932094,-0.213244 5.864188,-0.29321 8.796282,-0.506453 0.266554,1.572668 0.98625,4.024965 1.386081,5.570978 z M 22.329609,65.593111 c 0.213243,4.291519 0.693041,8.583038 1.439392,12.821247 -2.558919,0.106621 -5.117837,0.239898 -7.676755,0.426486 2.212398,-4.34483 4.318174,-8.769626 6.237363,-13.247733 z m -8.902903,15.00699 c -0.05331,0.133277 -0.133277,0.239898 -0.186588,0.373175 -0.613074,-0.02666 -1.67929,-0.106621 -2.638884,-0.159932 0.932938,-0.07997 1.892533,-0.159933 2.825472,-0.213243 z m 26.122287,-0.479798 c -0.186587,-1.67929 -0.506452,-3.518512 -1.972499,-3.518512 -1.519358,0 -3.251959,2.985404 -4.024965,4.158242 0.02665,-1.226148 0.213243,-2.452297 0.213243,-3.678445 0,-0.34652 -0.453142,-0.63973 -0.773007,-0.63973 -0.479797,0 -0.719696,0.34652 -0.773006,0.773007 -0.186588,1.439391 -0.266554,2.878783 -0.266554,4.34483 0,0.319865 -0.02666,0.852973 0,1.359425 0.05331,0.63973 0.239898,1.199493 0.826317,1.199493 0.266554,0 0.69304,-0.02665 1.119527,-0.586419 0.69304,-0.932939 1.572668,-2.558918 2.345675,-3.785066 1.146182,-1.812567 1.466047,-2.105777 1.705945,0.02665 0.186588,1.492703 0.159933,3.118682 1.359426,4.104932 1.732601,1.439391 4.664695,-0.319865 6.290674,-2.425642 0.293209,-0.34652 0.533108,-0.852972 0.373176,-1.252803 -0.07997,-0.213244 -0.213244,-0.533108 -0.63973,-0.533108 -0.133277,0 -0.319865,0.07997 -0.479797,0.239898 -2.132432,2.425641 -4.771317,5.117837 -5.304425,0.213243 z M 54.849195,62.554395 c -0.373175,0 -0.666384,0.213243 -0.773006,0.559764 -0.399831,1.38608 -0.666385,2.852127 -1.012905,4.264863 -0.719696,2.985405 -1.599324,5.890844 -2.692196,8.769627 l -0.159932,0.453142 c -0.453142,-0.186588 -0.826317,-0.346521 -1.33277,-0.346521 -2.612229,0 -4.371485,2.985405 -4.371485,5.33108 0,0.98625 0.453141,2.132432 1.599324,2.132432 1.359425,0 4.158242,-2.798817 4.39814,-4.078276 0.133277,0.05331 0.266554,0.106622 0.399831,0.106622 0.63973,0 0.799662,-0.453142 0.799662,-0.98625 0,-0.34652 -0.133277,-0.719696 -0.293209,-1.012905 0.319865,-0.719696 0.613074,-1.439392 0.879628,-2.185743 -0.213243,2.31902 -0.373175,4.63804 -0.373175,6.957059 0,2.265709 -0.02666,5.224459 0.479797,7.410201 0.07997,0.373176 0.399831,0.586419 0.773006,0.586419 0.426487,0 0.746352,-0.399831 0.746352,-0.799662 V 89.503004 C 53.729669,87.26395 53.48977,85.078208 53.48977,82.812499 c 0,-4.531418 0.506453,-9.036181 1.172838,-13.487632 0.213243,-1.439392 0.932939,-4.744661 0.932939,-5.97081 0,-0.453142 -0.319865,-0.799662 -0.746352,-0.799662 z m -8.636349,19.565063 h -0.02665 c -0.133277,-0.133277 -0.133277,-0.453142 -0.133277,-0.613074 0,-1.386081 1.226148,-3.678445 2.798817,-3.678445 0.239898,0 0.506452,0.07997 0.719695,0.213243 -0.719695,1.546013 -1.785911,3.30527 -3.35858,4.078276 z m 13.540926,0.879628 c -1.119527,0 -2.079122,-0.479797 -2.638885,-1.466047 1.785912,-0.133276 5.197803,-1.359425 5.197803,-3.545168 0,-1.199493 -1.119527,-1.812567 -2.212398,-1.812567 -2.239054,0 -4.744661,1.865878 -4.744661,4.531418 0,2.292364 2.212398,3.865033 4.34483,3.865033 2.452297,0 5.224458,-1.839223 6.850437,-3.545168 0.133277,-0.159932 0.239899,-0.319865 0.239899,-0.533108 0,-0.426486 -0.426486,-0.799662 -0.826317,-0.799662 -0.773007,0 -3.251959,3.305269 -6.210708,3.305269 z m 0.34652,-5.277769 c 0.639729,0 0.799662,0.399831 0.373175,0.826318 -0.719695,0.746351 -2.745506,1.466047 -3.385235,1.412736 0.399831,-1.092871 1.839222,-2.239054 3.01206,-2.239054 z m 8.902907,-2.159087 c -0.98625,0 -1.599324,1.519358 -1.892533,2.292364 -0.02666,-0.746351 0.213243,-2.265709 -0.879629,-2.265709 -0.479797,0 -0.746351,0.29321 -0.746351,0.746352 0,2.638884 0.133277,5.304424 0.133277,7.943309 0,0.453141 0.426487,0.773006 0.852973,0.773006 0.373176,0 0.613074,-0.239898 0.69304,-0.586419 0.319865,-1.38608 0.586419,-2.772161 0.906284,-4.158242 0.213243,-0.932939 0.666385,-1.945844 0.852973,-2.718851 0.479797,0.98625 1.119526,3.65179 2.585573,3.65179 0.453142,0 0.799662,-0.426486 0.799662,-0.852973 0,-0.266554 -0.159932,-0.479797 -0.373175,-0.613074 C 70.38928,78.814189 70.655834,75.56223 69.003199,75.56223 Z m 10.688841,5.197803 c -0.479797,-0.213243 -1.066216,-0.266554 -1.599324,-0.266554 -1.252804,0 -2.532263,0.106622 -3.811722,0.106622 0.719696,-0.98625 3.145337,-3.30527 4.291519,-3.598479 0.02666,0.426486 0.426486,0.719695 0.852973,0.719695 0.506452,0 0.746351,-0.426486 0.746351,-0.906283 0,-0.799662 -0.746351,-1.386081 -1.519358,-1.386081 -1.572668,0 -6.050775,3.731756 -6.050775,5.33108 0,1.146182 1.092871,1.412736 2.02581,1.412736 1.252804,0 2.478952,-0.106622 3.731756,-0.106622 0.213243,0 0.826317,0.02666 0.826317,0.346521 0,1.066216 -5.38439,4.371485 -6.450606,5.064526 -0.213244,0.159932 -0.346521,0.399831 -0.346521,0.666385 0,0.399831 0.266554,0.826317 0.693041,0.826317 0.07997,0 0.186588,-0.02666 0.266554,-0.05331 0.453142,-0.133277 1.785912,-0.879628 3.225303,-1.919189 1.306115,-0.959594 2.185743,-1.67929 3.65179,-2.452296 2.345675,-1.27946 5.437701,-3.438547 5.491012,-4.024966 0.02665,-0.426486 -0.319865,-0.852972 -0.746351,-0.879628 -0.266554,0 -2.212398,1.572669 -4.238209,2.878783 0.186588,-0.719696 -0.07997,-1.33277 -1.03956,-1.759256 z m 11.221908,0 c -0.479797,-0.213243 -1.066216,-0.266554 -1.599324,-0.266554 -1.252803,0 -2.532263,0.106622 -3.811722,0.106622 0.719696,-0.98625 3.145337,-3.30527 4.29152,-3.598479 0.02666,0.426486 0.426486,0.719695 0.852972,0.719695 0.506453,0 0.746352,-0.426486 0.746352,-0.906283 0,-0.799662 -0.746352,-1.386081 -1.519358,-1.386081 -1.572669,0 -6.050776,3.731756 -6.050776,5.33108 0,1.146182 1.092872,1.412736 2.02581,1.412736 1.252804,0 2.478953,-0.106622 3.731756,-0.106622 0.213244,0 0.826318,0.02666 0.826318,0.346521 0,1.066216 -5.384391,4.371485 -6.450607,5.064526 -0.213243,0.159932 -0.34652,0.399831 -0.34652,0.666385 0,0.399831 0.266554,0.826317 0.69304,0.826317 0.07997,0 0.186588,-0.02666 0.266554,-0.05331 0.453142,-0.133277 1.785912,-0.879628 3.225304,-1.919189 1.306114,-0.959594 2.185742,-1.67929 3.651789,-2.452296 2.345675,-1.27946 5.437702,-3.438547 5.491013,-4.024966 0.02666,-0.426486 -0.319865,-0.852972 -0.746352,-0.879628 -0.266554,0 -2.212398,1.572669 -4.238208,2.878783 0.186588,-0.719696 -0.07997,-1.33277 -1.039561,-1.759256 z m 10.795422,-0.746351 c 0.10662,-0.666385 0.13328,-0.959595 0.13328,-1.279459 0,-1.386081 -0.93294,-2.772162 -2.425644,-2.772162 -2.292364,0 -3.99831,4.291519 -3.99831,6.210708 0,1.252804 0.586419,2.558918 1.999155,2.558918 1.67929,0 3.092029,-1.812567 3.731759,-3.251958 0.85297,0.07997 1.81256,0.07997 2.58557,0.02665 0.79966,-0.07997 2.23905,-0.266554 2.23905,-1.226148 0,-0.426487 -0.23989,-0.719696 -0.66638,-0.719696 -0.15993,0 -0.53311,0.133277 -0.90628,0.266554 -0.18659,0.07997 -1.4394,0.266554 -2.6922,0.186588 z m -4.264863,3.145337 c -0.479798,0 -0.479798,-0.666385 -0.479798,-1.012905 0,-0.906284 0.346521,-1.705946 0.693041,-2.532263 0.426486,0.719696 1.172837,1.226148 1.972499,1.466047 -0.399831,0.666385 -1.279459,2.079121 -2.185742,2.079121 z m 2.852123,-4.424796 c 0,0.319864 -0.0533,0.613074 -0.13327,0.906283 -0.506455,-0.159932 -1.039563,-0.479797 -1.226151,-0.98625 -0.186588,-0.426486 0.05331,-1.119526 0.533108,-1.119526 0.533103,0 0.826313,0.746351 0.826313,1.199493 z m 12.44809,1.38608 c -0.18658,-1.67929 -0.50645,-3.518512 -1.9725,-3.518512 -1.51935,0 -3.25195,2.985404 -4.02496,4.158242 0.0267,-1.226148 0.21324,-2.452297 0.21324,-3.678445 0,-0.34652 -0.45314,-0.63973 -0.773,-0.63973 -0.4798,0 -0.7197,0.34652 -0.77301,0.773007 -0.18659,1.439391 -0.26656,2.878783 -0.26656,4.34483 0,0.319865 -0.0267,0.852973 0,1.359425 0.0533,0.63973 0.2399,1.199493 0.82632,1.199493 0.26656,0 0.69304,-0.02665 1.11953,-0.586419 0.69304,-0.932939 1.57267,-2.558918 2.34567,-3.785066 1.14619,-1.812567 1.46605,-2.105777 1.70595,0.02665 0.18659,1.492703 0.15993,3.118682 1.35943,4.104932 1.7326,1.439391 4.66469,-0.319865 6.29067,-2.425642 0.29321,-0.34652 0.53311,-0.852972 0.37317,-1.252803 -0.08,-0.213244 -0.21324,-0.533108 -0.63972,-0.533108 -0.13328,0 -0.31987,0.07997 -0.4798,0.239898 -2.13243,2.425641 -4.77132,5.117837 -5.30443,0.213243 z"
       id="text1"
       style="font-size:26.6554px;font-family:Signlode;-inkscape-font-specification:'Signlode, Normal';fill:#ffffff;fill-opacity:0.992157;stroke-width:0.264583"
       aria-label="Andersson" />
  </g>
</svg>
