<?xml version="1.0" encoding="UTF-8" standalone="no"?>
<!-- Created with Inkscape (http://www.inkscape.org/) -->

<svg
   version="1.1"
   id="svg1"
   width="491.91809"
   height="511.7316"
   viewBox="0 0 491.91809 511.7316"
   xmlns="http://www.w3.org/2000/svg"
   xmlns:svg="http://www.w3.org/2000/svg">
  <defs
     id="defs1" />
  <g
     id="g1"
     transform="translate(-13.947809,6.2657764)">
    <path
       style="fill:#ffffff"
       d="m 230.00747,503.85248 c -2.27623,-1.59433 -2.2994,-1.81532 -1.96583,-18.75 0.30234,-15.34928 0.56654,-17.566 2.53307,-21.25312 3.56976,-6.69305 7.00147,-10.08269 13.49092,-13.3255 5.03542,-2.51623 7.33156,-3.05803 12.95993,-3.05803 h 6.84028 v -9 -9 h 35.5 35.5 v 8.89411 8.89412 l 7.75,0.36193 c 12.45068,0.58147 20.22049,5.58781 25.37481,16.34984 2.79713,5.8403 2.87363,6.42839 2.8744,22.09501 7e-4,14.3232 -0.20053,16.2772 -1.82795,17.75 -1.66361,1.50555 -7.91904,1.65499 -69.27749,1.65499 -60.4421,0 -67.68804,-0.1676 -69.75214,-1.61335 z m -95.87708,-87.92824 c -15.80254,-4.25582 -28.73587,-16.30874 -34.379442,-32.03914 -1.64755,-4.59221 -2.23725,-9.11402 -2.63033,-20.16927 l -0.50668,-14.25 H 301.23989 505.86584 v 12.8185 c 0,8.79847 -0.50033,14.52188 -1.59538,18.25 -5.4217,18.4583 -19.65792,32.16744 -37.20384,35.82642 -3.74954,0.78191 -52.43998,1.08583 -166.5,1.03927 -135.42114,-0.0553 -162.03805,-0.2913 -166.43623,-1.47578 z m 316.42035,-15.52203 c 3.44863,-1.30298 8.01022,-5.51102 9.90438,-9.13672 0.77589,-1.48519 1.41072,-5.04565 1.41072,-7.91214 0,-17.81551 -22.87815,-24.60648 -32.73222,-9.71598 -3.82487,5.77977 -3.85899,13.82558 -0.0828,19.53174 4.51799,6.82714 14.06953,10.04051 21.49996,7.2331 z m -9.93904,-12.18638 c -0.90002,-0.6875 -1.92502,-2.4485 -2.27779,-3.91334 -1.27912,-5.31149 6.17969,-9.09334 9.87694,-5.00792 4.80236,5.30655 -1.95144,13.23539 -7.59915,8.92126 z M 96.865838,275.38637 v -62.07945 l 2.75,0.54534 c 8.549942,1.69551 19.695222,2.75263 22.826942,2.16511 2.32293,-0.43578 5.08196,-2.1605 7.77995,-4.86339 3.59174,-3.59828 4.65273,-5.73742 7.53313,-15.18815 1.84392,-6.05 3.51728,-11.18178 3.71858,-11.40396 0.20129,-0.22218 4.00227,2.87941 8.44661,6.89242 16.54104,14.93571 21.08863,14.74545 42.39549,-1.77371 11.41783,-8.8522 13.92917,-12.38152 13.99993,-19.67481 0.0412,-4.24189 -0.83175,-6.79229 -5.24792,-15.33306 -2.91351,-5.63465 -5.06423,-10.62193 -4.77937,-11.08285 0.28486,-0.46091 5.36864,-1.08091 11.29729,-1.37778 11.77494,-0.58962 15.44404,-1.59997 19.35471,-5.32963 l 2.57534,-2.45614 119.92466,0.26976 119.92466,0.26976 7.83246,3.73987 c 9.05039,4.32141 18.52832,13.15403 22.89374,21.33499 5.85809,10.9783 5.7738,9.56022 5.7738,97.13524 v 80.2899 h -204.5 -204.500002 z m 197.357812,26.5788 c 1.82933,-1.82934 1.0081,1.04229 20.13868,-70.41992 l 15.63931,-58.42057 -1.91823,-2.57943 c -1.05502,-1.41868 -2.8094,-2.71324 -3.89862,-2.87679 -5.00323,-0.75126 -5.51703,0.69941 -21.75106,61.4115 -8.54663,31.96278 -16.1672,60.53778 -16.93459,63.5 -1.40112,5.40853 -0.88805,8.34813 1.7664,10.12056 1.83755,1.22696 5.369,0.85375 6.95811,-0.73535 z m -29.43607,-15.65624 c 1.15093,-2.0604 1.23516,-3.18295 0.3752,-5 -0.75779,-1.60115 -12.99078,-9.15118 -38.63196,-23.8431 -20.63767,-11.825 -37.21747,-21.8 -36.844,-22.16668 0.37346,-0.36667 16.87902,-9.97502 36.67902,-21.3519 19.8,-11.37688 36.7875,-21.58923 37.75,-22.69411 0.9625,-1.10488 1.75,-2.85903 1.75,-3.89809 0,-2.80183 -3.79952,-6.1607 -6.40542,-5.66255 -2.06248,0.39427 -79.80518,44.75521 -85.84458,48.98398 -3.2265,2.25918 -3.70805,6.61828 -1,9.05228 0.9625,0.8651 20.425,12.4061 43.25,25.64668 44.55369,25.8452 45.86472,26.40619 48.92174,20.93349 z M 388.78637,264.4761 c 29.2904,-16.8912 42.62353,-25.11026 43.36137,-26.72964 0.85469,-1.87583 0.68492,-2.84543 -0.85822,-4.90143 -1.70758,-2.2751 -81.9816,-49.46934 -86.68053,-50.96072 -2.94965,-0.93618 -6.74315,2.1766 -6.74315,5.53314 0,1.59804 0.61856,3.52409 1.37459,4.28011 0.75602,0.75602 17.64358,10.75146 37.5279,22.21207 19.88432,11.46061 36.33982,21.13926 36.56778,21.50809 0.22795,0.36884 -15.8721,10.05334 -35.7779,21.52112 -19.90581,11.46778 -36.97987,21.52246 -37.94237,22.34373 -4.00853,3.42038 -0.91407,10.72788 4.22356,9.97383 1.45807,-0.214 21.68421,-11.36513 44.94697,-24.7803 z M 103.86924,202.39658 c -9.988692,-1.45603 -12.828112,-2.231 -14.148462,-3.86157 -1.24954,-1.54311 -1.80949,-5.14892 -2.29904,-14.80457 -0.97006,-19.13297 -1.13109,-19.81642 -5.24051,-22.24103 l -3.52642,-2.08064 -14.33145,7.52853 c -7.88229,4.14069 -15.47781,7.52853 -16.87893,7.52853 -2.07943,0 -4.11206,-2.08298 -11.06304,-11.33714 -5.66155,-7.53748 -8.51555,-12.21973 -8.51555,-13.97055 0,-1.92868 2.9344,-5.95995 10.96516,-15.06391 l 10.96516,-12.43051 -1.24413,-4.29712 -1.24413,-4.29711 -15.31233,-4.75516 c -8.42178,-2.61534 -15.94625,-5.28126 -16.72103,-5.92426 -1.81657,-1.50762 -1.78232,-4.864721 0.19306,-18.924231 1.11188,-7.91365 2.16495,-12.074437 3.37677,-13.34199 1.47571,-1.543577 4.3337,-1.999944 17.64124,-2.816977 8.73413,-0.536243 16.33023,-1.12043 16.88023,-1.298193 0.55,-0.177764 1.88488,-1.996864 2.9664,-4.042445 l 1.9664,-3.719237 -2.77797,-5.140579 c -9.52503,-17.625861 -12.76057,-24.73205 -12.14456,-26.672933 0.86009,-2.709918 22.54646,-18.9676465 25.30116,-18.9676465 1.30134,0 7.01763,4.3230575 14.61649,11.0540125 11.78606,10.439907 12.66608,11.01898 15.84057,10.423442 1.848672,-0.346813 3.906562,-0.967604 4.573082,-1.379536 0.66652,-0.411932 3.26236,-7.464981 5.76853,-15.673444 2.50618,-8.2084605 5.37685,-15.769661 6.37926,-16.8026668 1.78296,-1.8373582 2.1343,-1.83319 16.16021,0.1917181 11.68315,1.6866866 14.64367,2.4478629 15.99068,4.11134936 1.27134,1.5700398 1.80542,5.22041184 2.31288,15.80828234 0.8751,18.258324 0.94354,18.528931 5.31892,21.029442 l 3.68906,2.108287 14.12934,-7.435443 c 7.77114,-4.089494 15.31039,-7.435443 16.7539,-7.435443 2.17765,0 4.07453,1.930434 11.1401,11.337141 5.72019,7.615551 8.51555,12.211803 8.51555,14.00164 0,2.471629 -3.58858,6.978269 -19.67654,24.71037 -2.15277,2.372773 -2.22667,2.846131 -1.06813,6.841345 l 1.24467,4.292195 15.22188,4.762874 c 8.37204,2.619581 15.90954,5.333575 16.75,6.031095 1.9395,1.60964 1.92722,4.782521 -0.0736,19.023331 -1.08822,7.74522 -2.17482,12.08549 -3.32801,13.29323 -1.41451,1.48141 -4.48198,1.96673 -17.64123,2.79111 -8.76095,0.54884 -16.379,1.15497 -16.929,1.34696 -0.55,0.19199 -1.88438,2.0218 -2.96529,4.06624 l -1.96529,3.71718 2.28708,4.14264 c 8.56055,15.50594 13.26791,25.6753 12.7054,27.44761 -0.3408,1.07375 -4.95109,5.2694 -10.24509,9.32365 -11.00859,8.43061 -13.14825,9.7866 -15.52034,9.83594 -0.93694,0.0195 -7.23694,-4.92984 -14,-10.99851 -12.12407,-10.87922 -12.35261,-11.02575 -16.29651,-10.44882 -2.2,0.32183 -4.34736,0.93197 -4.77192,1.35588 -0.42456,0.4239 -2.82775,7.48837 -5.34043,15.69881 -4.54082,14.83763 -6.63461,18.57723 -10.24843,18.30426 -0.90157,-0.0681 -7.26269,-0.94354 -14.13582,-1.94543 z m 28.20367,-61.91299 c 20.16961,-6.22976 33.45808,-27.89229 29.84332,-48.649811 -2.42074,-13.900911 -11.58657,-26.061536 -24.39586,-32.366845 -16.83173,-8.285333 -39.551132,-3.454293 -51.966352,11.050089 -8.0171,9.366179 -11.91186,23.215036 -9.83876,34.984247 4.70782,26.72671 30.750122,42.89168 56.357652,34.98232 z"
       id="path1" />
  </g>
</svg>
