<?xml version="1.0" encoding="UTF-8" standalone="no"?>
<!-- Created with Inkscape (http://www.inkscape.org/) -->

<svg
   version="1.1"
   id="svg1"
   width="511.55063"
   height="501.64044"
   viewBox="0 0 511.55063 501.64044"
   sodipodi:docname="banco de dados.svg"
   inkscape:version="1.3 (0e150ed6c4, 2023-07-21)"
   xmlns:inkscape="http://www.inkscape.org/namespaces/inkscape"
   xmlns:sodipodi="http://sodipodi.sourceforge.net/DTD/sodipodi-0.dtd"
   xmlns="http://www.w3.org/2000/svg"
   xmlns:svg="http://www.w3.org/2000/svg">
  <defs
     id="defs1" />
  <sodipodi:namedview
     id="namedview1"
     pagecolor="#505050"
     bordercolor="#eeeeee"
     borderopacity="1"
     inkscape:showpageshadow="0"
     inkscape:pageopacity="0"
     inkscape:pagecheckerboard="0"
     inkscape:deskcolor="#d1d1d1"
     inkscape:zoom="1.1117597"
     inkscape:cx="134.92124"
     inkscape:cy="233.41375"
     inkscape:window-width="1920"
     inkscape:window-height="1011"
     inkscape:window-x="0"
     inkscape:window-y="0"
     inkscape:window-maximized="1"
     inkscape:current-layer="g1" />
  <g
     inkscape:groupmode="layer"
     inkscape:label="Image"
     id="g1"
     transform="translate(-105.44871,106.26991)">
    <path
       style="fill:#ffffff"
       d="m 610.24567,390.37729 c -12.33347,-10.99264 -28.07172,-21.21604 -46.31752,-30.08736 -36.34644,-17.67208 -55.61584,-33.54314 -65.39323,-53.86052 -4.74326,-9.85648 -4.78694,-9.80626 13.91379,-15.99984 15.43575,-5.11224 30.04526,-7.65325 49.25,-8.56596 8.1125,-0.38556 14.75,-1.0041 14.75,-1.37454 0,-2.12858 -4.44259,-5.92899 -16.24892,-13.90014 -7.28809,-4.92062 -18.20108,-12.42322 -24.25108,-16.67246 -17.87373,-12.55366 -30.03497,-18.20877 -56.03181,-26.05544 -14.8351,-4.4777 -19.21989,-7.3101 -25.18018,-16.26535 -5.78564,-8.69286 -10.29905,-17.51582 -20.83303,-40.72516 -3.99404,-8.8 -10.83816,-23.65 -15.20916,-33 -4.37099,-9.35 -9.61351,-21.22036 -11.65002,-26.37857 -23.1018,-58.51357 -76.84446,-116.1929073 -136.31768,-146.302977 -22.39926,-11.34029 -30.22272,-13.57654 -52.0419,-14.87556 -19.39644,-1.15478 -21.46155,-1.71369 -28.23622,-7.64204 -13.10264,-11.46581 -46.43987,-27.300848 -57.47598,-27.300848 -16.02207,0 -14.96077,15.475808 2.57169,37.499998 20.73083,26.04197 25.63647,35.27071 36.81032,69.24949 10.65186,32.391407 18.46979,47.877337 29.07872,57.599727 8.66263,7.93873 8.83601,13.51687 1.10337,35.49881 -7.96872,22.65305 -8.58812,26.37837 -8.58812,51.65197 0,27.7866 2.08655,38.87391 10.91897,58.02014 4.85896,10.53287 13.91412,19.54677 16.76866,16.69223 0.5268,-0.5268 1.83166,-8.1026 2.89968,-16.8351 3.38708,-27.694 6.61859,-36.87011 18.04003,-51.22603 6.94793,-8.73304 8.03693,-8.96862 9.8766,-2.13659 3.43217,12.7461 18.98785,44.93915 33.09211,68.48535 14.87922,24.83993 25.13072,38.75959 38.11266,51.75 6.45828,6.4625 11.33782,11.75 10.84341,11.75 -1.56535,0 -10.28334,-6.96659 -18.05212,-14.42554 -4.125,-3.96049 -9.75,-8.9622 -12.5,-11.11491 -8.81356,-6.8993 -26.52447,-24.7131 -32.67848,-32.86831 -3.28242,-4.34982 -9.33697,-14.63542 -13.45456,-22.85688 -4.1176,-8.22147 -7.75532,-14.67934 -8.08383,-14.35083 -0.67443,0.67444 -1.33895,4.36921 -4.24751,23.61647 -2.47969,16.40922 -5.44362,23.2629 -11.53883,26.68191 -29.709,16.6648 -61.59171,-42.80485 -55.58565,-103.68191 1.1555,-11.71208 9.89904,-49.79846 12.65641,-55.13062 2.19402,-4.24279 1.83594,-5.34003 -3.81755,-11.69772 -11.57554,-13.01738 -20.72222,-32.07657 -32.7385,-68.218047 -9.01052,-27.10106 -9.17274,-27.40911 -26.12714,-49.61393 -18.17454,-23.80281 -22.88436,-32.8394 -22.88436,-43.907501 0,-9.746215 6.83469,-21.152846 15.43179,-25.754592 6.31019,-3.37765 24.04173,-3.00586 35.06821,0.73529 16.23531,5.508441 34.26372,15.085845 43.76099,23.24756 7.67655,6.597033 8.9126,7.005583 23.52343,7.775063 20.72124,1.09128 42.89085,7.18027 59.07029,16.22394 11.06403,6.18435 40.95169,26.59784 52.64529,35.95711 38.05216,30.45602 77.6225,81.246467 91.01145,116.817637 7.36113,19.55672 39.6838,88.19164 46.41821,98.56581 3.7899,5.83822 4.3877,6.22762 20.07034,13.07352 33.16209,14.47616 53.75274,27.5315 83.79643,53.13046 8.21591,7.00044 24.20357,25.32435 24.20357,27.7404 0,2.14512 -19.65887,6.99218 -37,9.12267 -5.225,0.64194 -16.12675,2.82968 -24.22611,4.86165 l -14.72611,3.6945 1.62723,2.4384 c 4.81489,7.21507 10.89777,11.96324 29.32499,22.89048 15.44685,9.1599 27.87201,19.55074 38.69481,32.35948 3.74285,4.42966 9.31695,10.44191 12.38688,13.36056 5.04363,4.79508 12.30752,17.32788 10.04307,17.32788 -0.39904,0 -3.24655,-2.24695 -6.3278,-4.99323 z M 223.11389,3.6994227 c -2.51209,-5.00189 -6.38633,-11.1959 -8.60941,-13.7644697 -4.24571,-4.90553 -6.49848,-8.45505 -5.80579,-9.14774 0.22661,-0.22662 3.13446,-0.69658 6.46189,-1.04436 5.63921,-0.58942 6.35694,-0.42107 10.57371,2.48015 4.68492,3.2233 9.71874,10.7534097 9.70884,14.5234697 -0.0109,4.16732002 -2.16213,9.78019 -4.93982,12.88897 l -2.82196,3.1583303 z"
       id="path1" />
  </g>
</svg>
