<?xml version="1.0" encoding="UTF-8" standalone="no"?>
<!-- Created with Inkscape (http://www.inkscape.org/) -->

<svg
   version="1.1"
   id="svg1"
   width="511"
   height="359.94409"
   viewBox="0 0 511 359.94409"
   sodipodi:docname="email.svg"
   inkscape:version="1.3 (0e150ed6c4, 2023-07-21)"
   xmlns:inkscape="http://www.inkscape.org/namespaces/inkscape"
   xmlns:sodipodi="http://sodipodi.sourceforge.net/DTD/sodipodi-0.dtd"
   xmlns="http://www.w3.org/2000/svg"
   xmlns:svg="http://www.w3.org/2000/svg">
  <defs
     id="defs1" />
  <sodipodi:namedview
     id="namedview1"
     pagecolor="#505050"
     bordercolor="#eeeeee"
     borderopacity="1"
     inkscape:showpageshadow="0"
     inkscape:pageopacity="0"
     inkscape:pagecheckerboard="0"
     inkscape:deskcolor="#d1d1d1"
     inkscape:zoom="0.78613281"
     inkscape:cx="43.249689"
     inkscape:cy="64.238509"
     inkscape:window-width="1920"
     inkscape:window-height="1011"
     inkscape:window-x="0"
     inkscape:window-y="0"
     inkscape:window-maximized="1"
     inkscape:current-layer="g1" />
  <g
     inkscape:groupmode="layer"
     inkscape:label="Image"
     id="g1"
     transform="translate(324.0441,-62.424845)">
    <path
       style="fill:#ffffff"
       d="m -290.53534,420.81779 c -3.02019,-0.81149 -5.8882,-1.87239 -6.37336,-2.35755 -0.50949,-0.50949 31.45644,-33.33576 75.67207,-77.70876 l 76.55418,-76.82664 23.31918,23.11364 c 12.82554,12.7125 25.196251,24.28329 27.490461,25.71286 10.00328,6.23325 26.16167,8.68047 37.3762,5.66071 11.19664,-3.01494 15.51518,-6.32565 40.25782,-30.86281 L 7.5665206,263.94163 84.185871,340.70857 c 46.871489,46.96178 76.260349,77.12534 75.694689,77.69004 -0.50856,0.5077 -3.6067,1.6213 -6.88476,2.47466 -5.30074,1.37992 -29.86019,1.54429 -221.999999,1.48576 -187.144661,-0.057 -216.774351,-0.26315 -221.531141,-1.54124 z m -31.67839,-29.64295 c -1.74093,-4.99347 -1.83037,-12.26191 -1.83037,-148.75 0,-136.48809 0.0894,-143.756525 1.83037,-148.749995 1.0067,-2.8875 2.13279,-5.25 2.50243,-5.25 0.36964,0 35.31988,34.649995 77.6672,76.999995 l 76.99513,77 -76.99513,77 c -42.34732,42.35 -77.29756,77 -77.6672,77 -0.36964,0 -1.49573,-2.3625 -2.50243,-5.25 z M 104.96235,319.43129 27.973661,242.43773 104.95595,165.43129 c 42.34026,-42.35355 77.28759,-77.006445 77.66075,-77.006445 0.37316,0 1.50213,2.3625 2.50883,5.25 1.74093,4.99347 1.83037,12.261905 1.83037,148.749995 0,136.48809 -0.0894,143.75653 -1.83037,148.75 -1.0067,2.8875 -2.13279,5.25 -2.50243,5.25 -0.36964,0 -35.31698,-34.6471 -77.66075,-76.99355 z M -76.044099,288.00956 C -80.155789,286.17712 -298.08654,67.566849 -296.94128,66.423599 c 0.49345,-0.492587 3.57922,-1.59382 6.85728,-2.447184 5.29668,-1.378864 29.95638,-1.55157 221.539901,-1.55157 191.583519,0 216.243219,0.172706 221.539899,1.55157 3.27806,0.853364 6.38058,1.971343 6.8945,2.484398 1.24731,1.245215 -216.781689,219.692807 -221.152279,221.576867 -4.02973,1.73713 -10.85031,1.72415 -14.78212,-0.0281 z"
       id="path1" />
  </g>
</svg>
