<?xml version="1.0" encoding="UTF-8" standalone="no"?>
<!-- Created with Inkscape (http://www.inkscape.org/) -->

<svg
   version="1.1"
   id="svg1"
   width="220.79935"
   height="408.67847"
   viewBox="0 0 220.79935 408.67847"
   sodipodi:docname="facebook.svg"
   inkscape:version="1.3 (0e150ed6c4, 2023-07-21)"
   xmlns:inkscape="http://www.inkscape.org/namespaces/inkscape"
   xmlns:sodipodi="http://sodipodi.sourceforge.net/DTD/sodipodi-0.dtd"
   xmlns="http://www.w3.org/2000/svg"
   xmlns:svg="http://www.w3.org/2000/svg">
  <defs
     id="defs1" />
  <sodipodi:namedview
     id="namedview1"
     pagecolor="#505050"
     bordercolor="#eeeeee"
     borderopacity="1"
     inkscape:showpageshadow="0"
     inkscape:pageopacity="0"
     inkscape:pagecheckerboard="0"
     inkscape:deskcolor="#d1d1d1"
     inkscape:zoom="1.5722656"
     inkscape:cx="77.595031"
     inkscape:cy="205.75404"
     inkscape:window-width="1920"
     inkscape:window-height="1011"
     inkscape:window-x="0"
     inkscape:window-y="0"
     inkscape:window-maximized="1"
     inkscape:current-layer="g1" />
  <g
     inkscape:groupmode="layer"
     inkscape:label="Image"
     id="g1"
     transform="translate(-178.28473,-50.123746)">
    <path
       style="fill:#ffffff"
       d="m 245.57688,458.09947 c -5.61037,-2.32682 -5.357,1.98584 -5.357,-91.18434 V 281.2082 l -27.75,-0.35428 c -15.2625,-0.19485 -28.55,-0.72955 -29.52778,-1.18821 -3.92469,-1.84101 -4.21196,-4.12138 -4.54754,-36.09863 -0.35662,-33.98241 0.0498,-40.31996 2.80436,-43.72408 1.82681,-2.25764 2.07054,-2.27838 30.33944,-2.58246 l 28.49784,-0.30654 0.46218,-32.69346 c 0.40405,-28.58225 0.72296,-33.78675 2.53607,-41.38759 8.73924,-36.636469 31.12154,-59.882402 66.97962,-69.564048 9.49229,-2.56291 10.52084,-2.629016 46.75397,-3.004914 35.76431,-0.371035 37.13314,-0.315589 39.5,1.600002 l 2.45183,1.984355 0.29261,33.339368 c 0.16093,18.336647 0.0413,34.346177 -0.26588,35.576717 -1.28862,5.16238 -3.69976,5.62475 -32.41039,6.21524 -30.70602,0.63152 -32.56349,1.08849 -37.11633,9.13113 -2.46646,4.35703 -2.50448,4.77448 -2.83415,31.11521 l -0.33414,26.69894 33.05772,0.30106 c 32.87857,0.29944 33.07008,0.31342 35.33415,2.57885 l 2.27641,2.27778 v 37.4365 c 0,34.59585 -0.13541,37.57201 -1.78451,39.22223 -1.62987,1.63096 -4.68467,1.8107 -35.25,2.07404 l -33.46548,0.28832 v 86.40591 86.40591 l -2.41239,2.80577 -2.41239,2.80576 -36.83761,0.21059 c -20.26069,0.11582 -37.80196,-0.18937 -38.98061,-0.6782 z"
       id="path1" />
  </g>
</svg>
