<?xml version="1.0" encoding="UTF-8" standalone="no"?>
<!-- Created with Inkscape (http://www.inkscape.org/) -->

<svg
   width="98.567123mm"
   height="105.03022mm"
   viewBox="0 0 98.567122 105.03021"
   version="1.1"
   id="svg5"
   xml:space="preserve"
   inkscape:version="1.2.2 (b0a8486541, 2022-12-01)"
   sodipodi:docname="front end.svg"
   xmlns:inkscape="http://www.inkscape.org/namespaces/inkscape"
   xmlns:sodipodi="http://sodipodi.sourceforge.net/DTD/sodipodi-0.dtd"
   xmlns="http://www.w3.org/2000/svg"
   xmlns:svg="http://www.w3.org/2000/svg"><sodipodi:namedview
     id="namedview7"
     pagecolor="#505050"
     bordercolor="#eeeeee"
     borderopacity="1"
     inkscape:showpageshadow="0"
     inkscape:pageopacity="0"
     inkscape:pagecheckerboard="0"
     inkscape:deskcolor="#505050"
     inkscape:document-units="mm"
     showgrid="false"
     inkscape:zoom="0.69664703"
     inkscape:cx="601.45236"
     inkscape:cy="144.98016"
     inkscape:window-width="1920"
     inkscape:window-height="1011"
     inkscape:window-x="0"
     inkscape:window-y="0"
     inkscape:window-maximized="1"
     inkscape:current-layer="layer1" /><defs
     id="defs2" /><g
     inkscape:label="Layer 1"
     inkscape:groupmode="layer"
     id="layer1"
     transform="translate(261.44895,-91.182917)"><path
       style="fill:#ffffff;stroke:none;stroke-width:0.110029"
       d="m -193.35964,91.183375 v 7.592018 h 6.05169 v -2.530789 h -3.52117 v -2.53079 h 3.52117 v -2.530789 h -6.05169 m 7.26197,0 v 4.95133 h 3.5209 v 0.440079 h -3.5209 v 2.310615 h 6.05169 v -5.061336 h -3.52117 v -0.440079 h 3.52117 v -2.200663 h -6.05169 m 7.26198,0 v 4.95133 h 3.5209 v 0.440079 h -3.5209 v 2.310615 h 6.05142 v -5.061336 h -3.5209 V 93.38358 h 3.5209 v -2.200663 h -6.05142 m -23.87636,11.112973 0.86237,9.90263 1.75978,19.80529 0.66833,7.48199 0.36112,3.3636 1.63042,0.61416 4.51128,1.25745 7.15175,1.98615 2.97087,0.75754 3.30099,-0.85887 6.05142,-1.68189 5.06158,-1.39893 1.83523,-0.67561 0.3746,-3.3636 0.66833,-7.48201 1.64929,-18.59496 0.97286,-11.11297 h -39.83076 m 32.45884,8.36222 -0.9001,9.79263 -1.41214,15.62417 -6.82162,1.87053 -3.41095,0.87154 -3.30099,-0.83947 -6.93185,-1.9026 -0.66025,-7.92212 h 4.95136 l 0.32878,4.07109 c 1.87026,0.15361 3.63516,1.27065 5.50165,1.37548 0.97556,0.0539 2.13976,-0.51445 3.08082,-0.75619 0.62792,-0.16169 2.16132,-0.28835 2.52783,-0.87018 0.27757,-0.44224 0.18864,-1.431 0.21559,-1.94977 0.0808,-1.38141 0.1078,-2.94702 0.43658,-4.29113 h -12.65341 -3.301 l -1.25313,-0.11319 -0.28027,-1.42722 -0.33417,-3.52095 h 18.26475 l 0.43927,-5.06134 h -19.14517 l -0.43927,-5.06136 h 17.16441 5.17153 z"
       id="path717" /><path
       style="fill:#ffffff;stroke:none;stroke-width:0.135713"
       d="m -256.96758,108.26252 v 9.36425 h 3.25707 v -3.12141 h 2.71431 v 3.12141 h 3.25707 v -9.36425 h -3.25707 v 3.12141 h -2.71431 v -3.12141 h -3.25707 m 10.5856,0 v 3.12141 h 2.71431 v 6.24284 h 3.12152 v -6.24284 h 2.84986 v -3.12141 h -8.68569 m 9.90703,0 v 9.36425 h 3.12151 v -4.47854 h 0.13475 l 1.89991,3.12141 h 0.27218 l 1.89991,-3.12141 h 0.13475 v 4.47854 h 3.12151 v -9.36425 l -3.21233,0.14014 -2.08047,3.11763 c -0.35842,-0.83057 -1.20462,-2.80462 -2.0643,-3.17522 -0.8462,-0.36435 -2.31223,-0.0809 -3.2285,-0.0809 m 12.21414,0 v 9.36427 h 7.46436 v -3.12143 h -4.34285 v -6.24284 h -3.12151 m -37.18544,13.70709 1.19924,13.84281 2.03465,22.79993 0.82464,9.36424 0.44197,4.01455 2.28259,0.85214 6.24302,1.72608 8.00712,2.21279 3.52844,0.90037 4.07147,-1.05936 8.00712,-2.21711 5.83555,-1.62125 2.14785,-0.79446 0.44466,-4.14876 0.82464,-9.22856 2.03466,-22.79993 1.19923,-13.8428 h -49.12847 m 40.03558,10.17856 -0.43119,4.47854 -0.33147,1.62476 -1.68163,0.14013 h -4.4784 -17.23583 l 0.54437,6.24284 h 22.39281 l -1.62772,18.99995 -8.41432,2.30711 -4.20729,1.11434 -3.79982,-0.99765 -8.82152,-2.4238 -0.81386,-9.77142 h 6.10693 l 0.40693,5.02142 c 2.30685,0.20212 4.48029,1.51805 6.78579,1.67785 1.19115,0.0836 2.64909,-0.61794 3.79982,-0.91384 0.77883,-0.19942 2.6437,-0.35142 3.09726,-1.07338 0.37998,-0.60258 0.26949,-1.84036 0.30722,-2.54076 0.13474,-1.67058 0.13474,-3.53006 0.53089,-5.15714 h -15.60702 -4.07147 l -1.54688,-0.14014 -0.29644,-1.21756 -0.318,-3.52858 -1.23427,-13.84278 z"
       id="path715" /><path
       id="rect299"
       style="fill:#ffffff;fill-opacity:1;stroke-width:0.068011"
       d="m -198.7879,161.38801 v 34.82513 h 34.94446 v -34.82513 z m 27.10597,15.92177 c 1.05573,-0.004 2.10209,0.25018 2.87695,0.72127 0.496,0.30119 1.08362,0.88045 1.46608,1.44397 0.23903,0.35417 0.2709,0.43743 0.19919,0.51153 -0.11951,0.11553 -2.45069,1.61029 -2.46901,1.58379 -0.006,-0.0136 -0.0797,-0.12748 -0.17927,-0.25835 -0.25697,-0.38603 -0.62747,-0.74956 -0.92028,-0.90176 -0.33466,-0.17528 -1.25493,-0.24361 -1.62543,-0.12151 -1.0119,0.33366 -1.24895,1.7085 -0.42229,2.43527 0.28286,0.24818 0.96609,0.60514 1.98,1.0356 2.71481,1.15214 3.91755,2.1324 4.43286,3.61273 0.23306,0.66889 0.2988,2.08769 0.13944,2.80581 -0.41035,1.74714 -1.91824,3.00212 -4.01854,3.3431 -0.55178,0.0896 -1.84256,0.1215 -2.27839,0.0538 -1.48002,-0.2225 -2.46623,-0.6193 -3.41658,-1.37425 -0.5199,-0.41233 -1.17725,-1.18341 -1.42425,-1.66645 -0.11951,-0.21713 -0.11951,-0.27749 -0.0399,-0.32629 0.64738,-0.42468 2.60446,-1.49555 2.62399,-1.43679 0.0598,0.1753 0.69917,0.95175 0.94418,1.14417 0.72108,0.56571 1.23899,0.74102 2.20269,0.74301 0.91032,0.002 1.31867,-0.12948 1.77084,-0.56771 0.58165,-0.56571 0.63144,-1.36907 0.11951,-1.95271 -0.35058,-0.39958 -0.75694,-0.63144 -2.31164,-1.32345 -1.88438,-0.8382 -2.45687,-1.17743 -3.14987,-1.86724 -0.95215,-0.94856 -1.2848,-1.78976 -1.2848,-3.26454 -6e-4,-0.7918 0.0199,-0.94079 0.17927,-1.42563 0.5438,-1.56109 1.77283,-2.54765 3.55841,-2.85926 0.34461,-0.0618 0.69917,-0.0896 1.05175,-0.0916 z m -7.55285,0.19123 -0.0199,6.17333 c -0.0199,6.92543 0.006,6.4774 -0.53982,7.62664 -0.49599,1.04219 -1.46009,1.80351 -2.68713,2.1231 -0.71311,0.18526 -2.10389,0.23267 -2.82915,0.0956 -1.46608,-0.27808 -2.5989,-1.03701 -3.3895,-2.2707 -0.17927,-0.28426 -0.33066,-0.54739 -0.33066,-0.58463 2e-4,-0.0399 0.48006,-0.35875 1.06768,-0.71412 0.58763,-0.35536 1.18322,-0.7165 1.32464,-0.80276 l 0.25896,-0.15735 0.17927,0.3187 c 0.65535,1.11649 1.38242,1.51766 2.39632,1.32206 0.50595,-0.0976 0.83461,-0.33026 1.02982,-0.72826 l 0.15937,-0.32767 0.0399,-6.01902 0.0399,-6.01894 1.65132,-0.0199 z" /></g></svg>
