<?xml version="1.0" encoding="UTF-8" standalone="no"?>
<!-- Created with Inkscape (http://www.inkscape.org/) -->

<svg
   version="1.1"
   id="svg2"
   width="80.473534"
   height="17.89632"
   viewBox="0 0 80.473533 17.89632"
   sodipodi:docname="logo.svg"
   inkscape:version="1.2.2 (b0a8486541, 2022-12-01)"
   xmlns:inkscape="http://www.inkscape.org/namespaces/inkscape"
   xmlns:sodipodi="http://sodipodi.sourceforge.net/DTD/sodipodi-0.dtd"
   xmlns="http://www.w3.org/2000/svg"
   xmlns:svg="http://www.w3.org/2000/svg">
  <defs
     id="defs6" />
  <sodipodi:namedview
     id="namedview4"
     pagecolor="#505050"
     bordercolor="#eeeeee"
     borderopacity="1"
     inkscape:pageshadow="0"
     inkscape:pageopacity="0"
     inkscape:pagecheckerboard="0"
     showgrid="false"
     inkscape:zoom="5.6568542"
     inkscape:cx="64.16994"
     inkscape:cy="7.7781746"
     inkscape:window-width="1440"
     inkscape:window-height="831"
     inkscape:window-x="0"
     inkscape:window-y="0"
     inkscape:window-maximized="1"
     inkscape:current-layer="g8"
     inkscape:showpageshadow="0"
     inkscape:deskcolor="#505050" />
  <g
     inkscape:groupmode="layer"
     inkscape:label="Image"
     id="g8"
     transform="translate(-14.627288,-38.865259)">
    <path
       style="fill:#ff0000;stroke-width:0.0348084"
       d="M 91.179872,55.767161 V 54.77275 C 65.662306,54.79218 40.144812,54.7567 14.627288,54.70686 l 0.525362,-1.855782 40.517502,0.0072 35.492321,-0.01741 0.01739,-0.836049 0.01739,-0.836051 1.947547,1.396537 c 1.071155,0.768096 1.951352,1.410602 1.955997,1.427792 0.0048,0.01719 -0.76377,0.56829 -1.707595,1.224665 -0.943818,0.656376 -1.827937,1.272246 -1.9647,1.368601 L 91.179848,56.76158 Z M 15.571873,51.54504 c 0.02235,-0.05824 1.933634,-8.033036 1.933634,-8.068047 0,-0.03056 3.128159,-0.01774 3.147092,0.0129 0.01015,0.01642 0.0044,0.07907 -0.01292,0.139235 l -0.03137,0.10938 h 0.919992 c 0.776962,0 0.919992,0.0078 0.919992,0.05006 0,0.02753 -0.08615,0.412264 -0.191446,0.854959 -0.105296,0.442697 -0.191446,0.811764 -0.191446,0.820151 0,0.0084 -0.421408,0.01525 -0.936463,0.01525 h -0.936462 l -0.125984,0.530827 c -0.06929,0.291955 -0.397639,1.666449 -0.729661,3.054432 l -0.603678,2.523607 -1.592317,0.0091 c -1.503723,0.0086 -1.591017,0.0056 -1.568964,-0.05181 z m 7.697026,0.02551 c -0.567539,-0.102446 -0.85164,-0.309062 -0.963517,-0.700733 -0.05448,-0.190737 -0.05455,-0.731122 -1.39e-4,-1.074659 0.02274,-0.143584 0.367394,-1.623809 0.765894,-3.289388 l 0.724545,-3.028327 1.366476,-0.0091 c 1.198086,-0.008 1.364026,-0.0027 1.346596,0.0427 -0.06843,0.178297 -1.484644,6.20246 -1.484644,6.315197 0,0.171675 0.09134,0.247397 0.298421,0.247397 0.232403,0 0.357152,-0.06105 0.434479,-0.212624 0.05534,-0.108472 0.48669,-1.871287 1.54712,-6.322644 0.01866,-0.07832 0.01866,-0.07832 1.377865,-0.07832 1.27803,0 1.35815,0.0037 1.341488,0.06091 -0.0098,0.0335 -0.434405,1.807424 -0.943683,3.942046 -0.50928,2.134622 -0.941549,3.93987 -0.9606,4.011662 l -0.03464,0.130532 h -1.356183 c -0.745902,0 -1.355999,-0.0039 -1.355772,-0.0087 2.44e-4,-0.0048 0.02354,-0.09485 0.0518,-0.200148 0.02826,-0.105296 0.05157,-0.192486 0.0518,-0.193758 2.43e-4,-0.0013 -0.110196,0.05037 -0.245383,0.114763 -0.398115,0.189626 -0.713147,0.256016 -1.285772,0.270968 -0.277596,0.0072 -0.581865,-7.41e-4 -0.676152,-0.01776 z m 6.315105,0.01537 c 0,-0.0106 0.430753,-1.821479 0.95723,-4.024169 0.526475,-2.20269 0.957229,-4.026674 0.957229,-4.053298 0,-0.04052 0.224543,-0.04841 1.378654,-0.04841 1.298875,0 1.377275,0.0035 1.354827,0.06091 -0.02151,0.05499 -1.815908,7.524273 -1.902414,7.9189 l -0.03624,0.16534 h -1.354642 c -0.745052,0 -1.35464,-0.0087 -1.35464,-0.01928 z m 3.499878,-0.09385 c 0.01351,-0.06222 0.445513,-1.873205 0.959995,-4.024411 0.514482,-2.151205 0.935421,-3.932957 0.935421,-3.959449 0,-0.0402 0.226376,-0.04817 1.368702,-0.04817 h 1.368702 l -0.880687,3.680984 c -0.484377,2.024541 -0.922362,3.857201 -0.9733,4.072578 L 35.7701,51.60519 h -1.355396 -1.355397 z m 3.468166,0.05221 c 0.008,-0.0335 0.444467,-1.865984 0.969991,-4.072181 l 0.955499,-4.011266 1.36144,-3.86e-4 1.361442,-3.87e-4 -0.130024,0.530828 c -0.07151,0.291955 -0.510871,2.124615 -0.97636,4.072577 L 39.2477,51.605186 h -1.355072 c -1.272862,0 -1.354194,-0.0037 -1.34058,-0.06091 z m 6.137296,0.04028 c -1.063368,-0.104116 -1.44066,-0.226289 -1.630431,-0.527955 -0.124663,-0.198167 -0.17464,-0.462654 -0.15237,-0.806367 0.01432,-0.220946 0.217085,-1.127056 0.771872,-3.449214 0.413854,-1.732249 0.768144,-3.208283 0.787316,-3.280075 l 0.03485,-0.130531 h 1.332977 c 0.733137,0 1.340748,0.0078 1.350243,0.01726 0.0095,0.0095 -0.07941,0.420669 -0.197562,0.913719 l -0.214829,0.896453 0.383174,0.0099 c 0.210747,0.0055 0.395169,-0.0024 0.409822,-0.01741 0.02006,-0.02054 0.449133,-1.74817 0.449133,-1.808379 0,-0.02457 2.677036,-0.01009 2.692272,0.01456 0.0089,0.01436 -0.158659,0.754474 -0.372303,1.644694 l -0.388443,1.618583 -1.749843,0.009 c -1.749846,0.009 -1.749846,0.009 -1.783938,0.08702 -0.06314,0.144444 -0.729747,3.00062 -0.729827,3.127034 0,0.17544 0.08377,0.240351 0.31057,0.240351 0.221939,0 0.363959,-0.07571 0.439109,-0.234071 0.0301,-0.06341 0.167346,-0.584924 0.305008,-1.158907 l 0.250292,-1.043606 h 1.348952 c 0.880133,0 1.348953,0.01215 1.348953,0.03496 0,0.08396 -0.501502,2.117855 -0.576773,2.339161 -0.186248,0.547598 -0.54265,1.006357 -0.919987,1.184205 -0.480602,0.226521 -1.064556,0.306403 -2.349565,0.321415 -0.555193,0.0065 -1.072097,0.0056 -1.148676,-0.0018 z m 9.291227,-0.04028 c 0.01072,-0.0335 0.70621,-1.870078 1.545533,-4.081279 l 1.526043,-4.020365 1.276292,-0.0091 c 0.701954,-0.005 1.276285,-0.0014 1.276285,0.0079 0,0.0094 -0.25646,0.812345 -0.569914,1.784357 -0.313454,0.972011 -0.580794,1.802537 -0.594089,1.845612 -0.02417,0.07832 -0.02417,0.07832 0.482893,0.07832 0.331249,0 0.507067,-0.01269 0.507067,-0.03658 0,-0.02012 0.12531,-0.842639 0.278468,-1.827818 0.153157,-0.985179 0.278468,-1.806727 0.278468,-1.825663 0,-0.02208 0.462127,-0.03443 1.28832,-0.03443 h 1.288317 l -0.01876,0.130532 c -0.01787,0.124295 -0.747837,7.949868 -0.747837,8.017195 0,0.01929 -0.621501,0.03224 -1.54788,0.03224 -1.223395,0 -1.544616,-0.0091 -1.532323,-0.04351 0.02498,-0.06986 0.39996,-2.496416 0.39996,-2.588187 0,-0.08335 0,-0.08335 -0.610923,-0.08335 h -0.610923 l -0.04567,0.113127 c -0.02511,0.06222 -0.224029,0.672795 -0.442029,1.356833 l -0.396364,1.243705 -1.525212,7.08e-4 c -1.436978,6.43e-4 -1.524083,-0.0029 -1.505719,-0.06022 z m 8.965756,0.04072 c 0,-0.02273 1.863326,-7.825974 1.917296,-8.029239 l 0.03465,-0.130531 h 1.358529 c 1.277876,0 1.357399,0.0037 1.339518,0.06091 -0.02182,0.06988 -1.849475,7.702819 -1.904471,7.953708 l -0.03624,0.165339 h -1.35464 c -0.745053,0 -1.35464,-0.0091 -1.35464,-0.02019 z m 9.05017,-0.0043 C 69.47712,51.53984 68.95241,51.385858 68.76155,51.218281 c -0.21849,-0.191836 -0.297843,-0.571419 -0.229157,-1.096167 0.02227,-0.170258 0.37649,-1.715302 0.787121,-3.433432 0.410628,-1.718131 0.746599,-3.147449 0.746599,-3.176263 0,-0.04576 0.174328,-0.05239 1.378657,-0.05239 1.298827,0 1.377283,0.0035 1.354949,0.06091 -0.03829,0.09842 -1.515314,6.290812 -1.515314,6.352945 0,0.03114 0.03778,0.10056 0.08397,0.154275 0.08076,0.09393 0.09904,0.09833 0.478615,0.115068 0.394646,0.01741 0.394646,0.01741 0.382572,0.104426 -0.01182,0.08502 -0.268276,1.175909 -0.30484,1.29661 -0.01699,0.05612 -0.08736,0.06044 -0.895021,0.05483 -0.48211,-0.0033 -0.947051,-0.01163 -1.033203,-0.0184 z m 4.646913,-0.01472 c -0.697402,-0.06634 -1.164825,-0.202297 -1.340918,-0.390025 -0.199845,-0.213051 -0.225647,-0.308169 -0.223494,-0.823867 l 0.0019,-0.469912 0.773602,-3.21614 c 0.42548,-1.768876 0.781871,-3.229521 0.791979,-3.245879 0.02437,-0.0394 2.694516,-0.03868 2.694516,7.41e-4 0,0.01675 -0.09398,0.424677 -0.208852,0.906489 -0.114865,0.481813 -0.208848,0.883193 -0.208848,0.891955 0,0.0088 0.179832,0.01594 0.399631,0.01594 0.399635,0 0.399635,0 0.42408,-0.09572 0.01346,-0.05265 0.112097,-0.463821 0.21923,-0.913719 l 0.194788,-0.817996 h 1.35651 c 1.112641,0 1.354769,0.0083 1.346825,0.04645 -0.02083,0.09997 -0.743608,3.124731 -0.760269,3.181705 -0.01652,0.0564 -0.139696,0.06122 -1.780414,0.06962 l -1.762676,0.009 -0.339602,1.409738 c -0.392026,1.627351 -0.416435,1.751995 -0.369473,1.886705 0.04039,0.115865 0.136,0.147299 0.377459,0.124099 0.195245,-0.01876 0.292779,-0.0897 0.366767,-0.26678 0.03919,-0.0938 0.257885,-0.971793 0.518942,-2.083405 0.01838,-0.07832 0.01838,-0.07832 1.377598,-0.07832 1.278003,0 1.358155,0.0037 1.341568,0.06091 -0.0097,0.0335 -0.121316,0.496864 -0.248017,1.029692 -0.283878,1.19379 -0.335822,1.366155 -0.5098,1.691751 -0.393628,0.736658 -0.864083,0.965549 -2.222751,1.081439 -0.473718,0.0404 -1.766046,0.03779 -2.210331,-0.0044 z m 7.29235,6.44e-4 c -0.701767,-0.06151 -1.140519,-0.194355 -1.321069,-0.399991 -0.181265,-0.206449 -0.242747,-0.595111 -0.178411,-1.127828 0.03568,-0.295409 0.46124,-2.187783 0.509589,-2.266012 0.02624,-0.04242 2.695501,-0.04135 2.695501,0.0011 0,0.01783 -0.11067,0.496563 -0.24594,1.063847 -0.25828,1.083161 -0.269738,1.199636 -0.125567,1.27679 0.09805,0.05248 0.336726,0.05157 0.465493,-0.0017 0.0559,-0.02315 0.128544,-0.0877 0.161482,-0.143456 0.05503,-0.09321 0.511835,-1.913711 0.565435,-2.253551 0.05725,-0.363124 -0.155741,-0.509335 -1.534472,-1.053269 -0.768781,-0.303297 -1.213526,-0.627534 -1.30355,-0.950342 -0.0895,-0.320917 0.0033,-0.94689 0.314426,-2.121572 l 0.03457,-0.130531 h 1.3599 c 1.073537,0 1.356433,0.0092 1.343378,0.04351 -0.0091,0.02393 -0.0756,0.291198 -0.147808,0.593927 -0.216726,0.90864 -0.199566,0.930266 1.235948,1.557671 0.822754,0.35959 1.031237,0.470171 1.220893,0.647568 0.381607,0.356955 0.386506,0.646236 0.03581,2.117514 -0.307377,1.289533 -0.409098,1.62281 -0.63004,2.064138 -0.324482,0.648173 -0.611467,0.848518 -1.427257,0.996386 -0.647025,0.11728 -2.175549,0.160627 -3.028322,0.08588 z M 65.993816,45.192171 c 0.03465,-0.139029 0.144369,-0.593467 0.243825,-1.009862 l 0.180827,-0.757082 h 1.284294 c 1.00564,0 1.283717,0.0094 1.281648,0.04351 -0.0016,0.02393 -0.107243,0.474264 -0.235079,1.000741 l -0.232431,0.957229 -1.293046,0.0091 -1.29304,0.0091 z m 19.213931,-0.513445 c 0,-0.01893 0.064,-0.300873 0.142147,-0.62655 l 0.142155,-0.59214 h 1.358664 c 1.358672,0 1.358672,0 1.337804,0.07832 -0.01151,0.04308 -0.07941,0.325023 -0.150945,0.626551 l -0.130069,0.548231 h -1.349882 c -0.8663,0 -1.349874,-0.01232 -1.349874,-0.03441 z M 17.646296,42.929209 c 8.74e-4,-0.02393 0.217621,-0.944177 0.4817,-2.044991 l 0.480142,-2.00148 2.511819,-0.0089 c 1.3815,-0.0049 2.511819,-0.003 2.511819,0.0042 0,0.03725 -0.389417,1.6405 -0.404322,1.664618 -0.0096,0.01556 -0.430916,0.02829 -0.936217,0.02829 h -0.918732 l -0.03084,0.113127 c -0.01696,0.06222 -0.146925,0.602595 -0.288806,1.200832 l -0.257964,1.087707 -1.575078,7e-5 c -1.237716,3.4e-5 -1.574744,-0.0093 -1.573521,-0.04346 z m 6.313429,-0.139233 c 0.02376,-0.10051 0.119264,-0.499936 0.212227,-0.887614 l 0.169023,-0.704869 h 1.351009 c 0.743056,0 1.350909,0.01175 1.350785,0.02611 -2.44e-4,0.02838 -0.327987,1.405869 -0.385108,1.618589 l -0.03505,0.130531 h -1.353044 -1.353045 z m 3.517491,0.05262 c 0.01253,-0.07202 0.10444,-0.467714 0.204247,-0.879323 l 0.181469,-0.748379 1.347853,-0.0091 c 1.267823,-0.0086 1.347762,-0.0055 1.346323,0.05221 -8.74e-4,0.03372 -0.09142,0.429422 -0.201296,0.879319 l -0.199767,0.817997 -1.350804,0.0091 -1.350805,0.0091 z m 4.174046,0.0692 c 0.0241,-0.08042 0.404135,-1.677297 0.404135,-1.698155 0,-0.0089 0.610886,-0.01616 1.357526,-0.01616 0.746639,0 1.357339,0.01175 1.357112,0.02611 -2.44e-4,0.01436 -0.02315,0.111529 -0.05093,0.215934 -0.02778,0.104404 -0.04717,0.193061 -0.04309,0.197014 0.004,0.004 0.162234,-0.06891 0.351451,-0.161912 0.983317,-0.483324 2.12088,-0.432576 2.712339,0.120999 0.07286,0.0682 0.136755,0.123984 0.141994,0.123984 0.0052,0 0.133593,-0.07087 0.285232,-0.157485 0.870403,-0.497179 2.169234,-0.56633 2.754428,-0.146646 0.32,0.229494 0.450713,0.592958 0.41439,1.152267 -0.01227,0.18888 -0.03086,0.357265 -0.04132,0.374191 -0.01048,0.01695 -0.612575,0.03077 -1.340543,0.03077 -1.321526,0 -1.321526,0 -1.353806,-0.0849 -0.01776,-0.0467 -0.06333,-0.101521 -0.101275,-0.121829 -0.162461,-0.08695 -0.51272,-0.0087 -0.60217,0.134546 -0.04436,0.07103 -0.06676,0.07219 -1.395096,0.07219 -1.350014,0 -1.350014,0 -1.382295,-0.0849 -0.01776,-0.0467 -0.06333,-0.101521 -0.101275,-0.121829 -0.16246,-0.08695 -0.512719,-0.0087 -0.602169,0.134547 -0.04437,0.07105 -0.06654,0.07219 -1.413984,0.07219 -1.287466,0 -1.367816,-0.0037 -1.350646,-0.06091 z m 10.951065,0.03156 c 0,-0.01614 0.0318,-0.121878 0.0707,-0.234956 0.20476,-0.595438 0.533961,-1.004194 0.977061,-1.213193 0.318205,-0.150086 0.565002,-0.214976 1.058141,-0.278218 0.889365,-0.114054 2.313682,-0.09748 3.012335,0.03505 0.879727,0.166881 1.147803,0.449399 1.14679,1.208557 -6.44e-4,0.577407 0.178291,0.512131 -1.404621,0.512039 l -1.36217,-7e-5 -0.0037,-0.103404 c -0.0019,-0.05687 -0.02318,-0.126909 -0.04701,-0.155638 -0.06646,-0.08007 -0.253949,-0.100269 -0.441417,-0.04754 -0.137861,0.03878 -0.182192,0.07163 -0.238894,0.177083 l -0.06962,0.129474 -1.348825,1.05e-4 c -0.741853,3.5e-5 -1.348821,-0.01312 -1.348821,-0.02926 z m 12.635492,0.02065 c 3.2e-5,-0.0048 0.350266,-0.925031 0.778302,-2.04499 l 0.778237,-2.036289 2.093387,-0.009 c 2.068097,-0.0089 2.093388,-0.0081 2.093388,0.06014 0,0.07104 -0.32883,3.528414 -0.36675,3.856074 l -0.02115,0.182744 h -1.270346 c -1.193365,0 -1.26928,-0.0037 -1.252719,-0.06091 0.04213,-0.145572 0.268656,-1.444321 0.254403,-1.458575 -0.0087,-0.0087 -0.12765,0.329671 -0.264398,0.751864 l -0.248641,0.767625 h -1.286888 c -0.707791,0 -1.286862,-0.0039 -1.286827,-0.0087 z m 7.775765,-0.05221 c 0.01777,-0.05925 0.404147,-1.674572 0.404122,-1.689453 -7e-6,-0.0041 0.610877,-0.0032 1.357525,0.0021 0.746646,0.0052 1.357354,0.01305 1.357125,0.01741 -3.22e-4,0.0044 -0.02215,0.08955 -0.04871,0.189327 l -0.0483,0.181418 0.231458,-0.116045 c 0.506237,-0.253817 1.135022,-0.396773 1.55417,-0.353349 0.688358,0.07132 1.02964,0.252969 1.208471,0.643235 0.08204,0.17905 0.118493,0.607402 0.08126,0.955057 l -0.02478,0.231278 h -1.285996 c -1.286004,0 -1.286004,0 -1.318283,-0.0849 -0.01774,-0.0467 -0.06333,-0.101521 -0.101277,-0.12183 -0.162461,-0.08695 -0.51272,-0.0087 -0.602171,0.134548 -0.04437,0.07105 -0.06654,0.07219 -1.413979,0.07219 -1.287467,0 -1.367818,-0.0037 -1.350649,-0.06091 z m 11.768711,-0.08702 c 0.2311,-0.758948 0.680066,-1.262866 1.294131,-1.45253 1.002324,-0.309587 3.444838,-0.310208 4.265301,-0.0011 0.279591,0.105341 0.402037,0.193371 0.513544,0.369204 0.158672,0.250196 0.213419,0.632523 0.153338,1.070849 l -0.02215,0.161496 h -1.3702 -1.370198 l -6.44e-4,-0.09572 c -3.22e-4,-0.05265 -0.01236,-0.114322 -0.02681,-0.137056 -0.04653,-0.07317 -0.225967,-0.119753 -0.371386,-0.09641 -0.180289,0.02894 -0.282339,0.09461 -0.349816,0.22509 l -0.05383,0.104097 h -1.353224 -1.353227 l 0.04505,-0.147935 z m 7.318443,0.127269 c -0.02823,-0.02824 0.190175,-0.538938 0.330157,-0.772003 0.15374,-0.255949 0.443997,-0.536233 0.692478,-0.668671 0.246837,-0.131565 0.725003,-0.257282 1.21666,-0.319881 0.499622,-0.06361 2.343163,-0.06268 2.764767,0.0013 0.439312,0.06677 0.830567,0.19605 0.973722,0.321743 0.18239,0.160138 0.270032,0.429055 0.271009,0.831534 3.17e-4,0.181873 -0.01064,0.397431 -0.0247,0.479015 l -0.02549,0.148337 -1.363095,-0.0091 c -1.152475,-0.0077 -1.361467,-0.0167 -1.352518,-0.05826 0.0056,-0.02704 -0.0079,-0.09323 -0.02994,-0.147085 -0.100641,-0.242966 -0.623005,-0.14637 -0.731817,0.13533 -0.03025,0.07832 -0.03025,0.07832 -1.365437,0.07832 -0.73435,0 -1.344483,-0.0093 -1.355852,-0.02067 z m -11.869561,-0.03473 c -0.01175,-0.01176 -0.0067,-0.05995 0.0112,-0.107093 0.01793,-0.04714 0.03259,-0.09252 0.03259,-0.100847 0,-0.0083 -0.146195,-0.01514 -0.324879,-0.01514 -0.178683,0 -0.333765,-0.0089 -0.344629,-0.01975 -0.01085,-0.01086 -0.0069,-0.0696 0.0088,-0.130531 0.01571,-0.06093 0.09445,-0.388285 0.175014,-0.727459 l 0.146475,-0.61668 0.350046,-0.0099 0.350045,-0.0099 0.14622,-0.609147 c 0.08042,-0.33503 0.204805,-0.85585 0.276414,-1.157377 l 0.130197,-0.548232 h 1.353191 c 0.744256,0 1.352664,0.01175 1.35202,0.02611 -6.43e-4,0.01436 -0.123211,0.535178 -0.27237,1.157378 l -0.271193,1.131271 0.516026,0.0096 c 0.378757,0.0071 0.515935,0.02094 0.515687,0.05221 -3.22e-4,0.02343 -0.07545,0.355879 -0.167266,0.73877 l -0.166924,0.696168 -0.528139,0.0096 -0.528145,0.0096 -0.02906,0.112225 -0.02907,0.112224 -1.340412,0.0091 c -0.737228,0.005 -1.350041,-5.14e-4 -1.361803,-0.01228 z m -25.766606,-3.130658 0.87021,-0.850496 1.370539,0.0081 1.370539,0.0081 0.44761,0.817996 c 0.246184,0.449898 0.44787,0.829745 0.448195,0.844103 3.22e-4,0.01436 -0.459101,0.02611 -1.020949,0.02611 h -1.021534 l -0.233927,-0.35135 c -0.213139,-0.32012 -0.239126,-0.346783 -0.292476,-0.300058 -0.03221,0.0282 -0.213548,0.186308 -0.402983,0.35134 l -0.344433,0.30006 -1.0305,-0.0017 -1.030499,-0.0017 z"
       id="path165"
       sodipodi:nodetypes="ccccccccsssscccssscssssscsscsscssscscsssssssscscscsscsssssscsssssscsscccssssccsccsssssssscssscssssscsscssscssssssssscssssssssscsssssscsscssssscssscssssssssssssssssssscsssssssscsssscsssssssssssssssssssssssscssssssssssscssscccssscssscsssscsssscssccsssscssscccssscscscccsssscsssssssssssssssssssscsssscccsssccsssscssccsssscssssscsccssscssssssscsssscsccssscccccsssssssscsssssssssssssscccsscscscscscccccssccccscscsssccccssscccc" />
  </g>
</svg>
