<?xml version="1.0" encoding="UTF-8" standalone="no"?>
<!-- Created with Inkscape (http://www.inkscape.org/) -->

<svg
   version="1.1"
   id="svg1"
   width="545.97852"
   height="545.86572"
   viewBox="0 0 545.97851 545.86572"
   sodipodi:docname="instagram.svg"
   inkscape:version="1.3 (0e150ed6c4, 2023-07-21)"
   xmlns:inkscape="http://www.inkscape.org/namespaces/inkscape"
   xmlns:sodipodi="http://sodipodi.sourceforge.net/DTD/sodipodi-0.dtd"
   xmlns="http://www.w3.org/2000/svg"
   xmlns:svg="http://www.w3.org/2000/svg">
  <defs
     id="defs1" />
  <sodipodi:namedview
     id="namedview1"
     pagecolor="#505050"
     bordercolor="#eeeeee"
     borderopacity="1"
     inkscape:showpageshadow="0"
     inkscape:pageopacity="0"
     inkscape:pagecheckerboard="0"
     inkscape:deskcolor="#d1d1d1"
     inkscape:zoom="1.4739991"
     inkscape:cx="229.98657"
     inkscape:cy="295.45472"
     inkscape:window-width="1920"
     inkscape:window-height="1011"
     inkscape:window-x="0"
     inkscape:window-y="0"
     inkscape:window-maximized="1"
     inkscape:current-layer="g1" />
  <g
     inkscape:groupmode="layer"
     inkscape:label="Image"
     id="g1"
     transform="translate(-42.444593,22.411383)">
    <path
       style="fill:#ffffff"
       d="m 195.43386,522.51084 c -38.23257,-3.77695 -75.07152,-21.37665 -102.813917,-49.11905 -28.2598,-28.25981 -45.32006,-64.42845 -49.20134,-104.30942 -1.29868,-13.34418 -1.29868,-223.6648 0,-237.00898 3.88128,-39.880972 20.94154,-76.04962 49.20134,-104.309425 28.259807,-28.25980621 64.428447,-45.320065 104.309417,-49.201342 13.34418,-1.298675 223.6648,-1.298675 237.00898,0 39.88097,3.881277 76.04961,20.94153579 104.30942,49.201342 28.25981,28.259805 45.32006,64.428453 49.20134,104.309425 1.29868,13.34418 1.29868,223.6648 0,237.00898 -3.88128,39.88097 -20.94153,76.04961 -49.20134,104.30942 -28.25981,28.25981 -64.42845,45.32006 -104.30942,49.20134 -12.30586,1.19763 -226.29578,1.12379 -238.50448,-0.0823 z m 238.72899,-51.21969 c 53.10159,-7.98414 94.00013,-48.88268 101.98427,-101.98427 1.59705,-10.62178 1.59705,-226.83622 0,-237.458 -7.98414,-53.101597 -48.88268,-94.000138 -101.98427,-101.984281 -10.62178,-1.597049 -226.83622,-1.597049 -237.458,0 -53.10159,7.984143 -94.00013,48.882684 -101.984267,101.984281 -1.59705,10.62178 -1.59705,226.83622 0,237.458 7.927737,52.7265 48.569027,93.65536 101.246607,101.96304 8.91807,1.40645 228.85235,1.42606 238.19566,0.0212 z M 296.76718,385.54079 c -28.96968,-4.05577 -54.03302,-16.15957 -75.10243,-36.2691 -24.4802,-23.36492 -38.31527,-51.80673 -41.84082,-86.01537 -3.99027,-38.71781 9.55764,-77.78317 36.91611,-106.44754 48.07205,-50.36668 124.6403,-56.814612 180.47112,-15.19776 19.98353,14.89592 36.9986,37.44698 45.70329,60.57322 12.05892,32.03758 11.56471,68.64039 -1.35331,100.23184 -13.9294,34.06484 -43.36088,62.70453 -77.73365,75.6424 -21.4343,8.06785 -44.49738,10.64113 -67.06031,7.48231 z m 38.4,-51.77846 c 32.41968,-9.02042 54.35321,-31.0769 63.6278,-63.98445 0.7888,-2.7988 1.35282,-10.80361 1.35282,-19.2 0,-8.39639 -0.56402,-16.4012 -1.35282,-19.2 -9.33644,-33.12702 -31.03411,-54.82469 -64.16113,-64.16113 -2.7988,-0.7888 -10.80361,-1.35282 -19.2,-1.35282 -14.85983,0 -18.42899,0.61844 -31.21444,5.40857 -20.50707,7.68308 -40.40786,27.58387 -48.09094,48.09094 -4.79013,12.78545 -5.40857,16.35461 -5.40857,31.21444 0,14.85983 0.61844,18.42899 5.40857,31.21445 6.76354,18.05269 23.36684,36.20294 41.43872,45.29961 5.69856,2.86843 16.89158,6.56594 23.46666,7.75199 6.64894,1.19938 28.41418,0.50969 34.13333,-1.0816 z M 452.9503,119.08584 c -5.63375,-3.79659 -8.44979,-8.76909 -8.44979,-14.92046 0,-13.590482 13.59158,-22.134127 25.91151,-16.287927 12.47919,5.921765 12.89798,24.547617 0.706,31.399897 -5.50084,3.09164 -13.41972,3.00817 -18.16772,-0.19151 z"
       id="path1" />
  </g>
</svg>
