<?xml version="1.0" encoding="UTF-8" standalone="no"?>
<!-- Created with Inkscape (http://www.inkscape.org/) -->

<svg
   version="1.1"
   id="svg1"
   width="511.84085"
   height="511.91833"
   viewBox="0 0 511.84085 511.91833"
   sodipodi:docname="linkedin.svg"
   inkscape:version="1.3 (0e150ed6c4, 2023-07-21)"
   xmlns:inkscape="http://www.inkscape.org/namespaces/inkscape"
   xmlns:sodipodi="http://sodipodi.sourceforge.net/DTD/sodipodi-0.dtd"
   xmlns="http://www.w3.org/2000/svg"
   xmlns:svg="http://www.w3.org/2000/svg">
  <defs
     id="defs1" />
  <sodipodi:namedview
     id="namedview1"
     pagecolor="#505050"
     bordercolor="#eeeeee"
     borderopacity="1"
     inkscape:showpageshadow="0"
     inkscape:pageopacity="0"
     inkscape:pagecheckerboard="0"
     inkscape:deskcolor="#d1d1d1"
     inkscape:zoom="1.1117597"
     inkscape:cx="359.78998"
     inkscape:cy="195.6358"
     inkscape:window-width="1920"
     inkscape:window-height="1011"
     inkscape:window-x="0"
     inkscape:window-y="0"
     inkscape:window-maximized="1"
     inkscape:current-layer="g1" />
  <g
     inkscape:groupmode="layer"
     inkscape:label="Image"
     id="g1"
     transform="translate(293.8457,-1.5027955)">
    <path
       style="fill:#ffffff"
       d="m -285.75783,342.67112 0.25286,-170.75 h 53 53 l 0.25287,170.75 0.25286,170.75 h -53.50573 -53.50573 z m 172.75286,-0.25 v -171 h 51.000001 51 v 23.5 c 0,12.925 0.36665,23.5 0.81479,23.5 0.4481301,0 1.5197701,-1.47837 2.3814201,-3.28528 4.39271,-9.21159 18.4851599,-23.80272 31.3037899,-32.4115 20.02942,-13.45143 41.08597,-19.308 69.38099,-19.29732 40.289419,0.0152 68.724549,9.98954 89.619009,31.43614 20.43854,20.97862 31.07574,51.71417 34.45582,99.55796 0.59687,8.44839 1.02853,57.17428 1.03429,116.75 l 0.01,102.25 h -53 -53 l -8.4e-4,-92.75 c -5e-4,-55.99202 -0.40995,-97.10944 -1.03316,-103.75 -3.13219,-33.37532 -12.932449,-49.73348 -34.545909,-57.6625 -5.0517,-1.85325 -8.04702,-2.17413 -20.42009,-2.18754 -12.93209,-0.014 -15.33736,0.26269 -22.24394,2.55903 -21.29769,7.08117 -32.82286994,22.31861 -38.4169099,50.79101 -1.47248,7.49459 -1.71553,20.0031 -2.05475,105.75 l -0.38474,97.25 H -60.055139 -113.00497 Z m -135,-219.52102 c -31.49249,-8.61875 -51.26808,-40.952355 -44.52135,-72.793549 4.83902,-22.837787 24.34644,-42.3636294 47.15046,-47.1950032 20.58645,-4.3615493 40.37624,1.490316 55.33656,16.3630872 8.29788,8.249317 12.57468,14.919785 16.12277,25.146483 1.83994,5.303266 2.26273,8.709354 2.29637,18.5 0.0361,10.517693 -0.28515,12.906012 -2.601,19.334604 -6.67381,18.525878 -20.82218,33.099058 -38.06103,39.203838 -8.20537,2.90577 -27.52258,3.68474 -35.72278,1.44054 z"
       id="path1" />
  </g>
</svg>
