<?xml version="1.0" encoding="UTF-8" standalone="no"?>
<!-- Created with Inkscape (http://www.inkscape.org/) -->

<svg
   version="1.1"
   id="svg1"
   width="480.03735"
   height="479.42233"
   viewBox="0 0 480.03735 479.42233"
   sodipodi:docname="link.svg"
   inkscape:version="1.3.2 (091e20ef0f, 2023-11-25)"
   xmlns:inkscape="http://www.inkscape.org/namespaces/inkscape"
   xmlns:sodipodi="http://sodipodi.sourceforge.net/DTD/sodipodi-0.dtd"
   xmlns="http://www.w3.org/2000/svg"
   xmlns:svg="http://www.w3.org/2000/svg">
  <sodipodi:namedview
     id="namedview1"
     pagecolor="#505050"
     bordercolor="#eeeeee"
     borderopacity="1"
     inkscape:showpageshadow="0"
     inkscape:pageopacity="0"
     inkscape:pagecheckerboard="0"
     inkscape:deskcolor="#505050"
     inkscape:zoom="1.6791041"
     inkscape:cx="240.30672"
     inkscape:cy="239.71117"
     inkscape:window-width="1920"
     inkscape:window-height="1011"
     inkscape:window-x="0"
     inkscape:window-y="0"
     inkscape:window-maximized="1"
     inkscape:current-layer="svg1" />
  <defs
     id="defs1" />
  <g
     id="g1"
     transform="translate(-29.007784,-25.34718)"
     style="fill:#87c5ff;fill-opacity:1">
    <path
       style="fill:#87c5ff;fill-opacity:1"
       d="m 65.815044,503.2922 c -17.6637,-4.28184 -32.40235,-19.67344 -35.75195,-37.33584 -1.40708,-7.4195 -1.40708,-330.79886 0,-338.21836 3.47719,-18.33518 19.53493,-34.392919 37.87012,-37.870115 3.43459,-0.651357 41.373196,-1.020705 104.844526,-1.020705 110.46051,0 103.55321,-0.42144 108.94465,6.647109 5.29422,6.941081 3.76873,16.620251 -3.49242,22.159341 l -3.53097,2.69355 -101.75546,0.5 c -100.821486,0.49541 -101.780786,0.51892 -104.516516,2.56179 -1.51858,1.13398 -3.68887,3.30448 -4.82285,4.82333 l -2.06179,2.76154 v 165.85334 165.85334 l 2.06179,2.76154 c 1.13398,1.51885 3.30448,3.68935 4.82333,4.82333 l 2.76154,2.06179 H 237.04238 402.89573 l 2.76154,-2.06179 c 1.51885,-1.13398 3.68935,-3.30427 4.82333,-4.82285 2.0429,-2.73577 2.06637,-3.69403 2.56179,-104.61536 0.49542,-100.92133 0.51889,-101.87959 2.56179,-104.61536 3.89854,-5.22077 7.12238,-6.88464 13.33938,-6.88464 4.70771,0 6.39692,0.48999 9.28595,2.69355 7.26301,5.53978 6.81455,-1.68098 6.7981,109.45758 -0.016,108.1551 0.0658,106.3944 -5.45149,117.2823 -1.3643,2.69232 -5.01491,7.63254 -8.11248,10.97828 -6.36343,6.87327 -16.33775,12.42624 -25.30774,14.0895 -3.45916,0.64142 -64.28649,0.96898 -170.00001,0.91548 C 99.345364,504.69467 70.575044,504.44606 65.815044,503.2922 Z M 230.22201,311.16542 c -6.60309,-3.25387 -10.09844,-10.47355 -8.73046,-18.03287 0.61295,-3.38712 12.90726,-16.01573 116.85788,-120.03537 l 116.17284,-116.25 h -54.3388 c -60.48983,0 -58.5973,0.201628 -63.94753,-6.812885 -2.20356,-2.889025 -2.69355,-4.578239 -2.69355,-9.285942 0,-6.217253 1.66411,-9.441339 6.88512,-13.339384 2.73374,-2.04103 3.54441,-2.061789 80.51605,-2.061789 h 77.7545 l 3.53144,2.693554 c 7.16199,5.462717 6.81288,1.117053 6.81288,84.806446 0,83.68939 0.34911,79.34373 -6.81288,84.80645 -5.04391,3.84717 -13.33033,3.84717 -18.37424,0 -7.01455,-5.35026 -6.81288,-3.45723 -6.81288,-63.95169 V 79.358949 L 361.29239,195.05466 c -65.47226,65.44155 -116.97279,116.1511 -118.56511,116.74411 -4.01507,1.49531 -8.66333,1.25989 -12.50527,-0.63335 z"
       id="path1" />
  </g>
</svg>
