<?xml version="1.0" encoding="UTF-8" standalone="no"?>
<!-- Created with Inkscape (http://www.inkscape.org/) -->

<svg
   version="1.1"
   id="svg1"
   width="462.92932"
   height="545.77679"
   viewBox="0 0 462.92932 545.77679"
   xmlns="http://www.w3.org/2000/svg"
   xmlns:svg="http://www.w3.org/2000/svg">
  <defs
     id="defs1" />
  <g
     id="g1"
     transform="translate(-56.610187,-14.785976)">
    <path
       style="fill:#ffffff"
       d="m 381.80428,558.72158 c -9.21849,-2.40579 -15.10406,-6.41056 -19.50609,-13.27271 -7.81753,-12.18641 -9.72793,-12.80351 -41.31259,-13.34492 -13.87352,-0.23781 -35.1772,0.11234 -47.34152,0.77812 -27.51577,1.50601 -34.26727,3.38721 -49.56724,13.81119 -22.2722,15.17421 -25.53425,15.31981 -64.27766,2.86907 -32.33383,-10.39093 -38.68554,-12.06117 -62.720853,-16.49302 -24.10326,-4.44438 -31.43161,-6.82481 -36.44506,-11.83826 -3.61857,-3.61856 -4.02308,-4.57924 -4.02308,-9.55434 0,-3.70226 1.45393,-9.75762 4.39695,-18.31256 4.88671,-14.20493 4.91658,-15.33521 0.86441,-32.71513 -3.47873,-14.92047 -2.50885,-22.73156 3.20204,-25.78794 1.0747,-0.57516 7.67273,-1.75374 14.66228,-2.61906 14.98659,-1.85537 17.18548,-2.59139 24.709803,-8.27093 6.18123,-4.66574 9.62825,-10.57473 9.84741,-16.88076 0.11947,-3.43759 0.19741,-3.52209 0.98377,-1.06667 2.78151,8.68528 0.37992,18.12297 -6.24837,24.5546 -6.70086,6.50205 -13.154573,8.51207 -27.330273,8.51207 -9.58782,0 -11.29413,0.28354 -13.86215,2.30355 -2.6561,2.08928 -2.8844,2.80858 -2.45459,7.73333 0.26609,3.04893 2.3056,9.6392 4.6513,15.02978 5.74365,13.19931 5.64923,19.47794 -0.50203,33.38668 -4.59441,10.38849 -5.09977,12.88883 -3.28893,16.2724 2.27447,4.2499 6.22403,5.43025 46.240533,13.81926 11.66302,2.44502 29.83337,7.03361 40.37855,10.19686 31.08801,9.32552 39.88249,10.57913 51.01763,7.27235 15.32438,-4.55085 22.21511,-16.00334 19.26436,-32.01763 -3.1266,-16.96865 -7.87897,-26.39168 -30.5947,-60.66325 -31.90835,-48.14061 -45.36913,-62.4 -58.90525,-62.4 -2.43487,0 -6.11729,0.80603 -8.18316,1.79118 -4.36801,2.08296 -4.72015,1.87268 -5.98408,-3.57334 -2.72098,-11.72415 0.0615,-24.73833 8.51787,-39.83891 4.05807,-7.24653 9.84046,-20.68582 16.08315,-37.38001 11.17047,-29.87203 17.8284,-43.35726 27.20902,-55.11023 15.88223,-19.89883 33.24463,-45.86204 37.88887,-56.65786 2.31399,-5.37901 2.35184,-6.01485 1.17022,-19.65536 -1.96591,-22.69435 -3.61913,-71.4088 -3.03086,-89.308784 0.60829,-18.509139 2.76393,-28.942499 8.33177,-40.325869 6.31109,-12.902963 24.27807,-27.589325 39.59517,-32.365435 13.50879,-4.212248 37.44052,-3.635022 55.37797,1.335698 26.69728,7.398195 44.48635,24.509886 56.43801,54.28894 5.37746,13.398611 6.41367,19.778621 7.36281,45.33333 0.73334,19.74449 1.46282,27.24007 3.73711,38.4 6.99843,34.34123 17.52597,55.2515 42.45625,84.32848 13.25793,15.46314 19.25181,24.29195 26.88202,39.59639 15.58403,31.25799 24.85952,62.36788 25.86228,86.74179 0.82674,20.09559 -2.5576,31.91717 -10.05284,35.11482 -1.62856,0.69478 -5.84101,4.88496 -9.36101,9.3115 -12.28509,15.449 -18.79644,19.64812 -31.65862,20.41645 -4.50558,0.26914 -9.94867,0.15978 -12.09576,-0.24302 -5.65069,-1.06007 -12.20341,-7.65002 -17.11522,-17.21245 -8.02639,-15.62598 -15.5189,-17.66536 -20.69509,-5.63296 -3.85809,8.96836 -4.02933,19.16052 -0.59779,35.57898 3.4661,16.58383 3.82858,33.5176 1.19874,56 -2.36907,20.25296 -0.96747,28.07764 6.51614,36.37762 5.47176,6.06867 10.88073,8.36996 19.74092,8.39895 9.73642,0.0319 16.4949,-2.71617 27.50668,-11.18435 24.39271,-18.75826 29.45181,-21.66858 52.8,-30.3739 24.55887,-9.15673 34.66666,-15.49075 34.66666,-21.72379 0,-3.87708 -5.81062,-9.75157 -12.92677,-13.06886 -18.3476,-8.55298 -19.44779,-9.28567 -23.10679,-15.38806 -1.92513,-3.21068 -4.20513,-8.20473 -5.06667,-11.09787 -2.14485,-7.20265 -2.03419,-19.90149 0.21705,-24.90733 1.67722,-3.72948 1.80622,-3.80687 2.16525,-1.29907 1.1305,7.89644 4.07788,19.33705 6.24335,24.23431 3.16952,7.16793 10.92013,15.41886 18.49774,19.69181 14.59053,8.22747 19.31334,13.29935 19.30619,20.73311 -0.009,9.29905 -7.35177,15.36603 -37.29783,30.81725 -22.24541,11.47793 -35.51083,20.33552 -52.4556,35.02566 -11.04907,9.5789 -13.50775,10.93943 -22.3669,12.37691 -9.57664,1.5539 -17.40493,1.2948 -25.6149,-0.8478 z M 243.70054,518.84124 c -0.0348,-5.84637 -3.28351,-13.73576 -8.54301,-20.74641 -3.27386,-4.36389 -3.22154,-6.53431 0.18875,-7.83091 3.83664,-1.45868 3.95927,-1.42576 8.58389,2.30433 10.46536,8.44108 24.26046,11.40999 43.89343,9.44651 30.80125,-3.0804 47.06429,-10.84053 59.63375,-28.45505 4.84193,-6.78536 8.15663,-8.96277 10.32686,-6.78367 0.77165,0.77481 1.20346,5.26096 1.16525,12.10596 -0.0523,9.36559 -0.60747,12.68517 -4,23.91698 -2.16661,7.17309 -3.93929,14.4588 -3.93929,16.19047 0,5.70339 6.58607,9.15617 7.82229,4.10087 1.72962,-7.07296 7.15323,-38.64168 7.74961,-45.10749 0.47631,-5.16396 -0.0532,-13.45294 -1.69618,-26.55363 -2.88643,-23.01529 -2.60975,-34.73888 1.01553,-43.03016 3.18033,-7.27364 7.24739,-10.65906 13.85887,-11.53611 5.02341,-0.66638 5.22909,-0.83296 6.30529,-5.10695 2.02385,-8.03745 10.1564,-13.54564 22.32596,-15.12142 5.81444,-0.75289 19.45457,1.80173 23.39067,4.38076 1.43718,0.94167 2.88846,1.43673 3.22507,1.10011 1.10959,-1.10958 -2.95062,-4.60529 -9.24661,-7.96102 l -6.19707,-3.303 2.1022,-8.28054 c 3.27974,-12.91888 2.90936,-27.14113 -1.21567,-46.68053 -2.83121,-13.41084 -4.31464,-17.89872 -9.167,-27.73334 -6.13719,-12.43865 -16.73998,-26.8013 -23.67241,-32.06686 l -4.06722,-3.08929 3.25902,4.24475 c 8.00841,10.43061 21.50075,36.81399 25.8995,50.64474 6.94372,21.83279 7.43321,46.38854 1.1715,58.77039 -2.44004,4.82493 -6.05477,7.21982 -12.16035,8.05668 -5.95115,0.8157 -10.52955,-0.96075 -12.25904,-4.75656 -0.71469,-1.56858 -1.75584,-10.77613 -2.31366,-20.46124 -0.55782,-9.6851 -1.76981,-22.64928 -2.69332,-28.80927 -3.38568,-22.58329 -11.52984,-44.30456 -20.41821,-54.45736 -3.23172,-3.69146 -4.57763,-6.5158 -6.07237,-12.74264 -4.05937,-16.91071 -9.8324,-30.16067 -19.00768,-43.6254 -7.95719,-11.6772 -10.0357,-18.52661 -8.36771,-27.5746 0.67594,-3.66666 1.80578,-9.78255 2.51075,-13.59086 1.75878,-9.50118 0.0789,-11.7791 -11.49856,-15.592 -12.53095,-4.12693 -27.46127,-11.19364 -28.33561,-13.41161 -0.42037,-1.06637 -0.79537,-4.57886 -0.83333,-7.80552 -0.15153,-12.87896 4.48935,-20.20917 13.31576,-21.03211 4.2885,-0.39984 5.948,-0.0267 8.91053,2.00371 7.41414,5.08131 10.34973,15.89766 6.91045,25.46198 -1.94933,5.42091 -1.94736,5.52332 0.13549,7.05974 2.55042,1.88132 8.95855,1.04689 10.85166,-1.41305 1.73507,-2.25457 2.86447,-12.19483 2.14311,-18.86232 -0.32636,-3.01654 -1.63642,-8.84462 -2.91125,-12.95129 -4.81393,-15.507364 -18.79424,-23.158354 -33.09598,-18.112405 -7.05517,2.489206 -11.64015,6.595685 -14.73622,13.198315 -2.54776,5.43329 -2.79058,7.07702 -2.65269,17.95681 0.15124,11.93236 0.14345,11.97156 -2.13333,10.74674 -1.25682,-0.67612 -6.60512,-1.50534 -11.88512,-1.84271 l -9.6,-0.61341 -0.61993,-8.53334 c -1.38179,-19.02042 -8.05474,-29.546664 -18.73067,-29.546664 -5.22205,0 -8.88336,2.916986 -12.37721,9.860994 -5.99072,11.90649 -6.11473,24.29024 -0.36893,36.84071 2.8209,6.16168 4.82942,7.13519 8.27942,4.01298 2.27564,-2.05943 2.5738,-4.63468 0.53659,-4.63468 -3.64898,0 -8.18593,-8.67943 -8.18593,-15.6601 0,-8.40573 4.88788,-14.20657 11.97067,-14.20657 6.91698,0 11.6449,7.3752 11.68648,18.23004 l 0.0229,5.96338 -7.30667,7.23861 c -4.01867,3.98124 -9.74407,8.79892 -12.72313,10.70597 -5.14545,3.29386 -8.98354,8.67713 -8.98354,12.60024 0,0.8887 2.04,3.20887 4.53334,5.15593 2.49333,1.94706 6.61007,5.81878 9.14831,8.60384 5.94978,6.52832 9.9515,7.63033 25.25169,6.95391 18.90654,-0.83586 48.33382,-10.15711 55.2443,-17.49894 3.93498,-4.1806 8.52963,-4.59981 9.06931,-0.82746 0.45262,3.16378 -2.40845,5.25673 -12.05537,8.81884 -4.6887,1.7313 -14.28491,5.56287 -21.32491,8.5146 -19.96701,8.37179 -23.39584,9.12357 -38.61477,8.46631 -12.48393,-0.53914 -13.02434,-0.47564 -12.01425,1.41174 3.15787,5.90052 13.7456,10.79864 23.37522,10.81389 9.80637,0.0155 19.38386,-3.6196 42.72046,-16.21454 9.33899,-5.04033 14.4,-5.44888 14.4,-1.16245 0,2.17587 -1.82979,3.57798 -11.83226,9.06667 -6.50774,3.57101 -16.77943,10.04568 -22.82598,14.38816 -12.43742,8.93223 -23.48785,15.03792 -27.21649,15.03792 -6.91698,0 -11.18234,-3.46048 -22.35365,-18.1355 -7.41287,-9.73779 -10.92666,-13.57627 -11.61032,-12.68316 -0.17626,0.23026 -0.86212,3.53866 -1.52412,7.352 -0.83718,4.82244 -3.49015,11.47986 -8.71381,21.86666 -4.13059,8.21333 -8.22793,17.33333 -9.10521,20.26667 -2.03376,6.8002 -2.05808,15.54894 -0.0566,20.33927 1.54633,3.70088 1.52286,3.77735 -2.4,7.82037 -8.07383,8.32113 -22.38092,38.89532 -26.83505,57.34637 -1.39071,5.76095 -2.21326,14.2733 -2.64534,27.3758 -0.73723,22.35634 -2.15625,26.76713 -7.67073,23.84315 -4.18634,-2.21976 -8.92548,-9.40016 -11.24553,-17.03841 -1.97181,-6.49174 -2.18826,-9.22922 -1.71351,-21.67073 0.29887,-7.83221 0.15563,-14.00074 -0.3183,-13.70783 -0.47393,0.2929 -1.89776,3.28343 -3.16407,6.64561 -3.22111,8.55237 -2.58387,22.72221 1.59408,35.44639 2.88873,8.79777 3.28139,9.36319 13.24027,19.06522 5.64479,5.49921 22.88704,20.52672 38.3161,33.39446 15.42907,12.86774 28.98727,24.92838 30.12935,26.80143 5.67903,9.31386 0.006,22.62441 -11.22176,26.32994 -2.06824,0.68258 -3.76044,1.42711 -3.76044,1.65451 0,0.2274 2.72092,4.63018 6.04649,9.78395 8.69004,13.46732 11.04519,19.16618 11.67919,28.26067 0.29816,4.27706 0.7814,8.93771 1.07385,10.357 l 0.53173,2.58052 3.36295,-3.36294 c 2.93485,-2.93486 3.35868,-4.07802 3.32949,-8.98052 z m 3.84297,-374.55362 c 0,-1.62622 1.68155,-3.18145 4.54336,-4.20206 1.59805,-0.56992 1.52867,-0.19856 -0.46726,2.50108 -2.52114,3.41002 -4.0761,4.05892 -4.0761,1.70098 z m 30.78483,-2.76179 -2.51817,-2.09784 2.72,-0.0355 c 2.64502,-0.0345 5.28,1.65121 5.28,3.37785 0,1.55088 -2.92287,0.88731 -5.48183,-1.24452 z M 171.71675,287.72369 c 3.35908,-3.59591 6.12754,-11.55925 4.56262,-13.12417 -0.56562,-0.56562 -1.28612,-0.61141 -1.60109,-0.10177 -1.14083,1.8459 -8.20143,15.57226 -8.20143,15.94422 0,1.35234 2.78885,-0.0944 5.2399,-2.71828 z m 198.6761,-89.332 c 2.23927,-2.02652 2.62886,-8.12206 0.61732,-9.65863 -0.73333,-0.56018 -3.01333,-1.65322 -5.06667,-2.42897 -2.05333,-0.77576 -5.74898,-3.33225 -8.21254,-5.68108 l -4.47921,-4.27061 -1.28738,2.82547 c -1.79783,3.94582 1.08024,9.99697 7.69978,16.18877 5.52374,5.16681 7.68783,5.777 10.7287,3.02505 z M 244.74816,125.66893 c -0.93986,-4.06128 -3.39124,-7.64525 -5.22924,-7.64525 -2.06071,0 -2.04114,3.08824 0.0246,3.88093 1.02255,0.39239 1.6,2.03566 1.6,4.55319 0,4.8952 2.19574,7.64495 3.43329,4.29954 0.45639,-1.23374 0.5335,-3.52353 0.17136,-5.08841 z m 72.99116,-0.44076 c 0.4404,-3.69871 -5.02969,-10.01355 -7.76485,-8.96397 -1.71634,0.65862 -1.62635,0.98579 0.92024,3.34589 1.55242,1.43874 3.11724,4.08912 3.47736,5.88974 0.77159,3.85796 2.89594,3.68658 3.36725,-0.27166 z m 2.5068,-63.737822 c 2.68899,-1.9479 5.73586,-3.2 7.78689,-3.2 1.85318,0 4.23769,-0.634895 5.29891,-1.410878 1.7943,-1.312027 1.64044,-1.63691 -2.19613,-4.637037 -7.91034,-6.185747 -9.64855,-7.011107 -12.05409,-5.723699 -1.60767,0.860397 -2.2151,2.253256 -2.24266,5.142477 -0.0208,2.179359 -0.72378,5.16247 -1.5622,6.629137 -1.78812,3.127979 -2.05606,6.399999 -0.5241,6.399999 0.59175,0 3.06377,-1.44 5.49338,-3.199999 z"
       id="path1" />
  </g>
</svg>
