<?xml version="1.0" encoding="UTF-8" standalone="no"?>
<!-- Created with Inkscape (http://www.inkscape.org/) -->

<svg
   width="101.41078mm"
   height="22.115238mm"
   viewBox="0 0 101.41078 22.115239"
   version="1.1"
   id="svg1"
   inkscape:version="1.3 (0e150ed6c4, 2023-07-21)"
   sodipodi:docname="meu cep logo.svg"
   xmlns:inkscape="http://www.inkscape.org/namespaces/inkscape"
   xmlns:sodipodi="http://sodipodi.sourceforge.net/DTD/sodipodi-0.dtd"
   xmlns="http://www.w3.org/2000/svg"
   xmlns:svg="http://www.w3.org/2000/svg">
  <sodipodi:namedview
     id="namedview1"
     pagecolor="#505050"
     bordercolor="#eeeeee"
     borderopacity="1"
     inkscape:showpageshadow="0"
     inkscape:pageopacity="0"
     inkscape:pagecheckerboard="0"
     inkscape:deskcolor="#d1d1d1"
     inkscape:document-units="mm"
     inkscape:zoom="1.4342733"
     inkscape:cx="166.2863"
     inkscape:cy="-2.4402602"
     inkscape:window-width="1920"
     inkscape:window-height="1011"
     inkscape:window-x="0"
     inkscape:window-y="0"
     inkscape:window-maximized="1"
     inkscape:current-layer="layer1" />
  <defs
     id="defs1" />
  <g
     inkscape:label="Layer 1"
     inkscape:groupmode="layer"
     id="layer1"
     transform="translate(-119.51082,-110.0869)">
    <g
       id="g1"
       style="fill:#f6f5f4">
      <path
         d="m 119.51082,131.86436 0.39983,-21.59087 h 2.95875 l 3.81172,17.5126 3.83838,-17.5126 h 2.9321 l 0.39983,21.59087 h -2.42565 l -0.23989,-15.67337 -3.65179,15.67337 h -1.70595 l -3.62513,-15.67337 -0.2399,15.67337 z m 17.64587,0 v -21.59087 h 8.3698 v 2.23905 h -5.35774 v 7.14365 h 4.34483 v 2.13243 h -4.34483 v 7.91666 h 5.41105 v 2.15908 z m 16.41972,0.2399 q -2.34568,0 -3.59848,-0.93294 -1.25281,-0.93293 -1.70595,-2.61222 -0.45314,-1.70595 -0.45314,-3.97166 v -14.31395 h 2.87878 v 14.44723 q 0,1.38608 0.18659,2.53226 0.18659,1.14618 0.79966,1.81257 0.63973,0.66638 1.89254,0.66638 1.27946,0 1.89253,-0.66638 0.61307,-0.66639 0.79966,-1.81257 0.18659,-1.14618 0.18659,-2.53226 v -14.44723 h 2.85213 v 14.31395 q 0,2.26571 -0.45314,3.97166 -0.45315,1.67929 -1.70595,2.61222 -1.22615,0.93294 -3.57182,0.93294 z m 20.41802,0 q -2.29237,0 -3.57183,-0.95959 -1.2528,-0.9596 -1.75925,-2.58557 -0.4798,-1.62598 -0.4798,-3.62514 v -7.62344 q 0,-2.18575 0.4798,-3.81173 0.50645,-1.62597 1.75925,-2.5056 1.27946,-0.90629 3.57183,-0.90629 2.02581,0 3.19865,0.74635 1.19949,0.74636 1.70594,2.13244 0.53311,1.38608 0.53311,3.33192 v 1.70595 H 176.58 v -1.51936 q 0,-1.19949 -0.13328,-2.10578 -0.10662,-0.93294 -0.63973,-1.43939 -0.5331,-0.50645 -1.78591,-0.50645 -1.27946,0 -1.86588,0.55976 -0.58641,0.53311 -0.773,1.54602 -0.15993,0.98624 -0.15993,2.31901 v 8.55639 q 0,1.62598 0.26655,2.58557 0.26655,0.93294 0.87963,1.33277 0.61307,0.39983 1.65263,0.39983 1.22615,0 1.75926,-0.53311 0.53311,-0.55976 0.66638,-1.51935 0.13328,-0.9596 0.13328,-2.23906 v -1.59932 h 2.85213 v 1.59932 q 0,1.9725 -0.4798,3.49186 -0.4798,1.4927 -1.65263,2.34568 -1.17284,0.82631 -3.30527,0.82631 z m 8.31646,-0.2399 v -21.59087 h 8.3698 v 2.23905 h -5.35774 v 7.14365 h 4.34483 v 2.13243 h -4.34483 v 7.91666 h 5.41105 v 2.15908 z m 10.84874,0 v -21.59087 h 5.35773 q 1.94585,0 3.09203,0.7197 1.17284,0.69304 1.70595,2.02581 0.5331,1.33277 0.5331,3.2253 0,1.70595 -0.61307,2.95875 -0.58642,1.2528 -1.75926,1.94584 -1.17283,0.66639 -2.93209,0.66639 h -2.37233 v 10.04908 z m 3.01206,-12.20817 h 1.38608 q 1.30611,0 2.05247,-0.29321 0.74635,-0.29321 1.06621,-1.0129 0.31987,-0.74635 0.31987,-2.07912 0,-1.54602 -0.2399,-2.37233 -0.21325,-0.82632 -0.93294,-1.14619 -0.7197,-0.31986 -2.23905,-0.31986 h -1.41274 z"
         id="text1"
         style="font-size:26.6554px;font-family:Oswald;-inkscape-font-specification:'Oswald, Normal';fill:#f6f5f4;fill-opacity:0.992157;stroke-width:0.264583"
         aria-label="MEU CEP" />
      <g
         id="g3"
         transform="matrix(0.76977849,0,0,0.76977849,45.751063,24.413424)"
         style="fill:#f6f5f4">
        <path
           id="path2"
           style="fill:#f6f5f4;fill-opacity:0.992157;stroke-width:0.143595"
           d="m 220.75715,116.29395 a 6.8024563,6.8024563 0 0 0 -6.80251,6.80252 6.8024563,6.8024563 0 0 0 6.80251,6.80251 6.8024563,6.8024563 0 0 0 6.80252,-6.80251 6.8024563,6.8024563 0 0 0 -6.80252,-6.80252 z m 0,0.9185 a 5.8840034,5.8840034 0 0 1 5.88401,5.88402 5.8840034,5.8840034 0 0 1 -5.88401,5.88402 5.8840034,5.8840034 0 0 1 -5.88402,-5.88402 5.8840034,5.8840034 0 0 1 5.88402,-5.88402 z" />
        <path
           id="rect2"
           style="fill:#f6f5f4;fill-opacity:0.992157;stroke-width:0.215543"
           d="m 216.71534,127.87953 c -0.39909,-0.30765 -0.96826,-0.23399 -1.27592,0.16512 l -4.73004,6.13634 c -0.1161,-0.003 -0.23173,0.0483 -0.30836,0.14766 l -3.27588,4.24981 c -0.12834,0.16599 -0.0977,0.40304 0.0684,0.53113 l 0.54279,0.41843 0.54283,0.41844 c 0.16599,0.12833 0.40329,0.0973 0.53138,-0.0688 l 3.27588,-4.2498 c 0.0767,-0.0995 0.0961,-0.2244 0.0639,-0.33606 l 4.73005,-6.13634 c 0.30766,-0.3991 0.23399,-0.96827 -0.16512,-1.27593 z" />
      </g>
    </g>
  </g>
</svg>
