<?xml version="1.0" encoding="UTF-8" standalone="no"?>
<!-- Created with Inkscape (http://www.inkscape.org/) -->

<svg
   width="329.21106mm"
   height="79.065002mm"
   viewBox="0 0 329.21106 79.065002"
   version="1.1"
   id="svg1"
   inkscape:version="1.3 (0e150ed6c4, 2023-07-21)"
   sodipodi:docname="wellignton.svg"
   xmlns:inkscape="http://www.inkscape.org/namespaces/inkscape"
   xmlns:sodipodi="http://sodipodi.sourceforge.net/DTD/sodipodi-0.dtd"
   xmlns="http://www.w3.org/2000/svg"
   xmlns:svg="http://www.w3.org/2000/svg">
  <sodipodi:namedview
     id="namedview1"
     pagecolor="#505050"
     bordercolor="#eeeeee"
     borderopacity="1"
     inkscape:showpageshadow="0"
     inkscape:pageopacity="0"
     inkscape:pagecheckerboard="0"
     inkscape:deskcolor="#d1d1d1"
     inkscape:document-units="mm"
     inkscape:zoom="0.35856832"
     inkscape:cx="375.10285"
     inkscape:cy="492.23534"
     inkscape:window-width="1920"
     inkscape:window-height="1011"
     inkscape:window-x="0"
     inkscape:window-y="0"
     inkscape:window-maximized="1"
     inkscape:current-layer="layer1" />
  <defs
     id="defs1" />
  <g
     inkscape:label="Layer 1"
     inkscape:groupmode="layer"
     id="layer1"
     transform="translate(7.5153212,-66.026841)">
    <path
       d="m 65.28294,62.467156 c -2.048696,0 -1.349142,3.747615 -1.349142,5.196693 0,8.994276 -1.049332,25.433814 -4.946851,33.678571 -0.749523,1.59898 -2.398474,4.94685 -4.397202,4.94685 -4.896884,0 -9.244117,-17.888618 -10.693195,-21.736169 -0.449714,-1.149269 -1.349141,-2.348506 -2.748251,-2.348506 -0.399746,0 -0.799491,0.09994 -1.199237,0.29981 -1.399109,0.699554 -2.048696,2.1986 -2.448442,3.647678 -1.598982,5.696375 -3.04806,11.442718 -4.597074,17.189057 -0.349778,-4.846911 -0.54965,-9.743795 -0.54965,-14.640679 0,-2.748251 0.09994,-5.54647 0.199872,-8.344689 0.09994,-2.948124 0.599619,-6.046152 0.599619,-8.944308 0,-0.799491 -0.699555,-1.449078 -1.499046,-1.449078 -0.899428,0 -1.299173,0.649587 -1.449078,1.449078 -0.899428,5.54647 -0.799491,11.792495 -0.799491,17.438902 0,6.645771 0.149904,16.289634 1.349141,22.735534 0.09994,0.64958 0.499682,1.44908 1.299173,1.44908 0.749523,0 1.39911,-0.24985 1.598983,-1.04934 l 5.996184,-22.335783 c 0.399746,-1.499046 0.599618,-2.898155 1.39911,-4.247297 h 0.04997 c 1.698919,5.746343 6.295993,23.8848 13.491414,23.8848 11.242845,0 12.292177,-35.327518 12.292177,-41.973288 0,-1.39911 0.549651,-4.846916 -1.598982,-4.846916 z m 12.442121,41.123834 c -2.098665,0 -3.89752,-0.89943 -4.946852,-2.74826 3.347869,-0.24984 9.743799,-2.548374 9.743799,-6.645766 0,-2.248569 -2.098664,-3.397838 -4.147361,-3.397838 -4.197328,0 -8.894339,3.497774 -8.894339,8.494594 0,4.29727 4.14736,7.24539 8.144816,7.24539 4.597075,0 9.793768,-3.44781 12.841828,-6.645772 0.249841,-0.299809 0.449714,-0.599618 0.449714,-0.999364 0,-0.799491 -0.799491,-1.499046 -1.549014,-1.499046 -1.449078,0 -6.096121,6.196062 -11.642591,6.196062 z m 0.649586,-9.893708 c 1.199237,0 1.499046,0.749523 0.699555,1.549014 -1.349141,1.399109 -5.146724,2.748251 -6.345961,2.648314 0.749523,-2.048696 3.447806,-4.197328 5.646406,-4.197328 z m 25.783603,3.297901 c -0.64958,-0.199873 -1.0993,0.09994 -1.39911,0.699555 -1.59898,3.197962 -4.796945,6.096122 -7.345323,5.996182 -4.297265,-0.0999 -4.097393,-9.144179 -4.097393,-11.592621 0,-0.699555 0,-1.399109 0.04997,-2.098664 0.349777,-0.04997 0.649586,-0.299809 0.849459,-0.599619 3.347869,-4.697011 5.896248,-12.691923 5.896248,-18.488234 0,-1.648951 -0.499682,-3.697647 -2.548379,-3.697647 -5.646406,0 -7.19542,20.986644 -7.19542,25.183973 0,4.896884 0.199872,13.991092 6.445897,14.240942 3.997456,0.1499 8.794402,-3.59771 10.293452,-7.845012 0.24984,-0.699555 -0.14991,-1.598982 -0.9494,-1.798855 z M 95.114008,70.761877 v 0.549651 c 0,3.997456 -1.39911,8.894339 -3.147997,12.49205 0.349777,-2.448442 1.898792,-11.442718 3.147997,-13.041701 z m 23.135262,26.233306 c -0.64959,-0.199873 -1.0993,0.09994 -1.39911,0.699555 -1.59899,3.197962 -4.79695,6.096122 -7.34533,5.996182 -4.29726,-0.0999 -4.09739,-9.144179 -4.09739,-11.592621 0,-0.699555 0,-1.399109 0.05,-2.098664 0.34977,-0.04997 0.64958,-0.299809 0.84946,-0.599619 3.34787,-4.697011 5.89624,-12.691923 5.89624,-18.488234 0,-1.648951 -0.49968,-3.697647 -2.54837,-3.697647 -5.64641,0 -7.19542,20.986644 -7.19542,25.183973 0,4.896884 0.19987,13.991092 6.44589,14.240942 3.99746,0.1499 8.79441,-3.59771 10.29345,-7.845012 0.24984,-0.699555 -0.1499,-1.598982 -0.94939,-1.798855 z m -9.04425,-26.233306 v 0.549651 c 0,3.997456 -1.39911,8.894339 -3.14799,12.49205 0.34977,-2.448442 1.89879,-11.442718 3.14799,-13.041701 z m 21.13653,26.68302 c -0.34978,0 -0.54965,0.449713 -0.99936,0.899427 -5.69638,5.596436 -9.64387,8.044876 -9.64387,-1.149268 0,-0.949396 0.19988,-1.898792 0.19988,-2.848188 0,-0.849459 -0.59962,-1.449078 -1.44908,-1.449078 -1.89879,0 -1.64895,2.998092 -1.64895,4.347234 0,10.743166 6.29599,11.842466 14.34087,2.898156 0.39975,-0.449714 0.59962,-1.049333 0.59962,-1.449078 0,-0.799492 -0.59962,-1.249205 -1.39911,-1.249205 z m -9.7438,-11.192877 c 0,-0.699555 -0.64959,-1.349142 -1.34914,-1.349142 -1.89879,0 -1.74889,2.598347 -1.74889,3.997456 0,0.749523 0.69956,1.39911 1.44908,1.39911 1.74889,0 1.64895,-2.798219 1.64895,-4.047424 z m 23.38516,11.9424 c -0.34978,-3.147997 -0.9494,-6.595803 -3.69765,-6.595803 -2.84819,0 -6.09612,5.596439 -7.5452,7.795039 0.05,-2.298537 0.39975,-4.597074 0.39975,-6.895611 0,-0.649587 -0.84946,-1.199237 -1.44908,-1.199237 -0.89943,0 -1.34914,0.649587 -1.44908,1.449078 -0.34978,2.698283 -0.49968,5.396565 -0.49968,8.144814 0,0.59962 -0.05,1.59898 0,2.54838 0.0999,1.19924 0.44971,2.24857 1.54901,2.24857 0.49969,0 1.29918,-0.05 2.09867,-1.0993 1.29917,-1.74889 2.94812,-4.796948 4.3972,-7.095485 2.14863,-3.397838 2.74825,-3.947488 3.19797,0.04997 0.34977,2.798217 0.2998,5.846277 2.54837,7.695107 3.24794,2.69828 8.74444,-0.59962 11.7925,-4.54711 0.54965,-0.64959 0.99936,-1.598983 0.69955,-2.348506 -0.1499,-0.399745 -0.39974,-0.999364 -1.19923,-0.999364 -0.24984,0 -0.59962,0.149905 -0.89943,0.449714 -3.99746,4.547106 -8.94431,9.593896 -9.94367,0.399746 z m 32.62923,1.549014 c 1.24921,-1.998728 -0.64958,-3.697647 -1.94876,-2.248569 -1.89879,2.098664 -6.09612,7.545195 -8.29472,10.393385 0.34978,-6.74571 0.54965,-8.544562 0.69956,-10.343417 0.0999,-1.449078 0.19987,-2.948124 0.19987,-4.347233 0,-0.84946 -0.69956,-1.449078 -1.54901,-1.449078 -0.74953,0 -0.9494,0.349777 -1.29918,0.899427 -0.99936,-0.649586 -2.1986,-0.999364 -3.39784,-0.999364 -4.69701,0 -7.99491,5.84628 -7.99491,10.043605 0,1.8988 1.0993,3.54775 3.09803,3.54775 2.89816,0 6.24603,-3.19797 7.6951,-5.446538 l -0.74952,10.743168 c -2.3485,4.74697 -6.79567,12.39211 -6.79567,17.5888 0,2.94813 2.09866,9.14418 5.74634,9.14418 1.54901,0 2.14863,-1.64895 2.29854,-2.94812 0.64958,-6.89561 0.94939,-13.84119 1.44907,-20.7368 3.39784,-4.2473 9.29409,-11.59263 10.8431,-13.841196 z M 157.67419,96.79531 c 0.89943,-1.249205 2.0487,-2.198601 3.39784,-2.198601 0.74953,0 1.54902,0.249841 2.0487,0.799491 -0.54965,1.099301 -1.19924,2.148633 -1.94876,3.147997 -3.49778,4.896883 -7.89498,4.247293 -3.49778,-1.748887 z m 1.54902,31.38003 c 0,-3.39784 1.79885,-6.84564 3.2979,-9.84374 -0.29981,4.0974 -0.44971,11.74253 -1.14927,15.44018 -1.54901,-1.39911 -2.14863,-3.54774 -2.14863,-5.59644 z m 29.28137,-47.719632 -10.04361,0.449714 c 0.14991,-4.946852 0.64959,-7.295357 0.64959,-12.192241 0,-0.749523 -0.64959,-1.449078 -1.44908,-1.449078 -0.89943,0 -1.39911,0.649587 -1.49905,1.449078 -0.64958,4.846916 -0.39974,7.395294 -0.69955,12.292178 -1.74889,0.09994 -3.64768,0.04997 -5.39657,0.249841 -0.84946,0.09994 -1.44907,0.649586 -1.44907,1.549014 0,0.899427 0.59961,1.399109 1.44907,1.399109 1.74889,0 3.54775,-0.149904 5.29663,-0.249841 -0.39974,8.144817 -0.89943,18.887978 -0.89943,27.032798 0,0.84946 0.64959,1.44908 1.44908,1.44908 0.84946,0 1.49905,-0.59962 1.49905,-1.44908 0,-8.14482 0.49968,-18.987917 0.84946,-27.132734 3.34787,-0.149905 6.94558,0 10.24348,-0.449714 0.84946,-0.09994 1.39911,-0.649586 1.39911,-1.549014 0,-0.849459 -0.54965,-1.449078 -1.39911,-1.39911 z m 5.2467,17.538839 c 0.19988,-1.249205 0.24984,-1.798855 0.24984,-2.398474 0,-2.598346 -1.74888,-5.196693 -4.5471,-5.196693 -4.29727,0 -7.49523,8.044881 -7.49523,11.64259 0,2.34851 1.0993,4.79695 3.74761,4.79695 3.148,0 5.79631,-3.39784 6.99555,-6.09612 1.59898,0.1499 3.39784,0.1499 4.84692,0.05 1.49904,-0.14991 4.19733,-0.49969 4.19733,-2.298541 0,-0.799491 -0.44972,-1.349142 -1.24921,-1.349142 -0.29981,0 -0.99936,0.249841 -1.69892,0.499682 -0.34978,0.149905 -2.69828,0.499682 -5.04679,0.349778 z m -7.99491,5.896243 c -0.89943,0 -0.89943,-1.2492 -0.89943,-1.89879 0,-1.69892 0.64959,-3.197962 1.29918,-4.746976 0.79949,1.349141 2.1986,2.298537 3.69764,2.748251 -0.74952,1.249205 -2.39847,3.897515 -4.09739,3.897515 z m 5.3466,-8.294717 c 0,0.599619 -0.0999,1.149269 -0.24984,1.698919 -0.9494,-0.299809 -1.94876,-0.899428 -2.29854,-1.848823 -0.34978,-0.799492 0.0999,-2.098665 0.99937,-2.098665 0.99936,0 1.54901,1.39911 1.54901,2.248569 z m 23.33518,2.598347 c -0.34977,-3.147997 -0.94939,-6.595803 -3.69764,-6.595803 -2.84819,0 -6.09612,5.596439 -7.5452,7.795039 0.05,-2.298537 0.39974,-4.597074 0.39974,-6.895611 0,-0.649587 -0.84946,-1.199237 -1.44907,-1.199237 -0.89943,0 -1.34915,0.649587 -1.44908,1.449078 -0.34978,2.698283 -0.49968,5.396565 -0.49968,8.144814 0,0.59962 -0.05,1.59898 0,2.54838 0.0999,1.19924 0.44971,2.24857 1.54901,2.24857 0.49968,0 1.29917,-0.05 2.09867,-1.0993 1.29917,-1.74889 2.94812,-4.796948 4.3972,-7.095485 2.14863,-3.397838 2.74825,-3.947488 3.19796,0.04997 0.34978,2.798217 0.29981,5.846277 2.54838,7.695107 3.24793,2.69828 8.74443,-0.59962 11.7925,-4.54711 0.54965,-0.64959 0.99936,-1.598983 0.69955,-2.348506 -0.1499,-0.399745 -0.39975,-0.999364 -1.19924,-0.999364 -0.24984,0 -0.59962,0.149905 -0.89942,0.449714 -3.99746,4.547106 -8.94431,9.593896 -9.94368,0.399746 z m 36.82657,14.99046 c 9.49395,0 20.63686,-9.79377 25.58372,-18.488234 0.1499,-0.249841 0.19987,-0.499682 0.19987,-0.749523 0,-0.899428 -0.69956,-1.698919 -1.49905,-1.698919 -0.44971,0 -0.89943,0.299809 -1.19923,0.749523 -5.24667,7.944943 -13.89116,16.889253 -23.23522,16.889253 -5.29663,0 -8.49459,-3.59771 -8.49459,-9.69383 0,-12.142275 11.39275,-26.083403 20.13718,-31.330064 1.69892,-1.049332 3.84755,-2.248569 5.74635,-2.248569 1.54901,0 2.44844,0.699555 2.44844,2.548378 0,4.746979 -5.09676,9.493958 -5.09676,10.493322 0,0.949396 0.59962,1.748887 1.44908,1.748887 2.84819,0 6.49587,-9.194149 6.49587,-12.292177 0,-3.647679 -2.14864,-5.746343 -5.24667,-5.746343 -2.74825,0 -5.24666,1.399109 -7.59516,2.848187 -9.54393,5.796311 -21.18652,20.886708 -21.18652,33.778504 0,7.994915 4.3972,13.191605 11.49269,13.191605 z m 42.57291,-14.590715 c 0,-1.549014 0.34978,-2.998092 0.34978,-4.44717 0,-0.949395 -0.74952,-1.64895 -1.54901,-1.64895 -0.69956,0 -1.19924,0.54965 -1.49905,1.199237 -0.64959,1.898791 -3.84755,9.094208 -5.94622,9.094208 -2.49841,0 -1.04933,-7.845003 -1.04933,-8.944304 0,-0.899427 -0.54965,-1.748887 -1.64895,-1.698919 -0.94939,0.04997 -1.44908,0.899428 -1.64895,2.048697 -0.69955,3.59771 -0.34978,11.942396 4.19733,11.942396 2.64831,0 4.54711,-2.59834 5.84628,-4.79694 0.34978,2.94812 2.64831,5.69637 5.94621,5.19669 3.59771,-0.49968 7.04552,-4.29727 7.94495,-7.745072 0.24984,-0.899428 -0.74952,-1.499046 -1.49905,-1.499046 -0.49968,0 -0.94939,0.249841 -1.29917,1.049332 -2.74825,6.046156 -8.14482,7.495226 -8.14482,0.249841 z m 22.68553,-0.399745 c -0.34978,-3.147997 -0.9494,-6.595803 -3.69765,-6.595803 -2.84818,0 -6.09612,5.596439 -7.54519,7.795039 0.05,-2.298537 0.39974,-4.597074 0.39974,-6.895611 0,-0.649587 -0.84946,-1.199237 -1.44908,-1.199237 -0.89942,0 -1.34914,0.649587 -1.44907,1.449078 -0.34978,2.698283 -0.49969,5.396565 -0.49969,8.144814 0,0.59962 -0.05,1.59898 0,2.54838 0.0999,1.19924 0.44972,2.24857 1.54902,2.24857 0.49968,0 1.29917,-0.05 2.09866,-1.0993 1.29917,-1.74889 2.94813,-4.796948 4.3972,-7.095485 2.14864,-3.397838 2.74825,-3.947488 3.19797,0.04997 0.34978,2.798217 0.29981,5.846277 2.54838,7.695107 3.24793,2.69828 8.74443,-0.59962 11.79249,-4.54711 0.54965,-0.64959 0.99937,-1.598983 0.69956,-2.348506 -0.14991,-0.399745 -0.39975,-0.999364 -1.19924,-0.999364 -0.24984,0 -0.59962,0.149905 -0.89943,0.449714 -3.99745,4.547106 -8.94431,9.593896 -9.94367,0.399746 z m 30.78041,-0.999364 c -0.24984,0 -0.74952,0.149904 -0.94939,0.599618 -2.39848,5.296626 -6.34597,7.245386 -7.89498,0.199873 -0.64959,-2.998092 -1.19924,-6.445898 -4.04742,-6.445898 -2.94813,0 -3.89752,3.447806 -4.99682,5.54647 0.05,-3.847551 0.0999,-6.995548 0.94939,-10.54329 0.19988,-0.799491 0.89943,-1.898792 1.24921,-2.698283 0.69955,-1.598982 1.34914,-3.297901 1.84882,-4.99682 0.64959,-2.198601 1.79886,-6.345962 1.79886,-8.544562 0,-1.199237 -0.39975,-3.197965 -1.94876,-3.197965 -4.69701,0 -4.79695,15.290269 -5.79632,18.538202 -0.24984,0.84946 -1.44907,2.148633 -1.44907,3.04806 0,0.599619 0.44971,1.149269 0.99936,1.349142 -0.54965,5.196693 -0.89943,10.093577 -0.39974,15.040427 0.0999,0.84946 0.64958,1.44908 1.54901,1.44908 0.64959,0 1.14927,-0.44971 1.34914,-1.04933 0.64959,-1.89879 1.54902,-5.09676 2.69828,-7.695106 1.44908,-3.297901 2.29854,-4.047424 3.09803,-0.149905 0.05,0.249841 0.0999,0.449714 0.14991,0.699555 1.49904,9.044246 8.99427,9.643866 12.74189,0.84946 0.44971,-1.049333 0.24984,-1.998728 -0.9494,-1.998728 z m 13.94115,5.546474 c -2.39848,0 -2.29854,-5.496506 -2.1986,-6.795679 0.05,-0.499682 0.19987,-1.099301 0.19987,-1.598983 0,-0.749523 -0.59962,-1.449078 -1.39911,-1.449078 -0.54965,0 -1.14927,0.29981 -1.39911,0.799492 -1.14927,-0.749523 -2.44844,-1.349142 -3.84755,-1.349142 -2.84819,0 -4.79695,1.798855 -5.94622,4.147361 -0.99936,2.048696 -1.44907,4.497139 -1.44907,6.545839 0,1.69891 0.69955,3.84755 2.69828,3.84755 3.19796,0 6.69574,-4.79695 8.34469,-7.145456 0.29981,2.848186 1.79885,5.946216 5.09675,5.946216 2.9981,0 9.19415,-5.4965 9.19415,-8.094849 0,-0.799491 -0.74952,-1.499046 -1.54901,-1.499046 -1.39911,0 -4.2473,6.645775 -7.74507,6.645775 z m -12.84183,1.14926 h -0.0999 c -0.0999,-0.2998 -0.1499,-0.59961 -0.1499,-0.89942 0,-2.39848 1.14927,-7.745074 4.29726,-7.745074 0.9494,0 1.84883,0.499682 2.54838,1.049332 -1.0993,1.798855 -4.64704,6.745712 -6.5958,7.595162 z"
       id="text1"
       style="font-size:49.9682px;font-family:Signlode;-inkscape-font-specification:Signlode;fill:#ffffff;stroke-width:0.250319"
       transform="matrix(0.9460873,0,-0.31258133,1.0569849,0,0)"
       aria-label="Wellington Cunha" />
  </g>
</svg>
