<?xml version="1.0" encoding="UTF-8" standalone="no"?>
<!-- Created with Inkscape (http://www.inkscape.org/) -->

<svg
   version="1.1"
   id="svg1"
   width="847.09058"
   height="851.23724"
   viewBox="0 0 847.09058 851.23724"
   sodipodi:docname="whatsapp.svg"
   inkscape:version="1.3 (0e150ed6c4, 2023-07-21)"
   xmlns:inkscape="http://www.inkscape.org/namespaces/inkscape"
   xmlns:sodipodi="http://sodipodi.sourceforge.net/DTD/sodipodi-0.dtd"
   xmlns="http://www.w3.org/2000/svg"
   xmlns:svg="http://www.w3.org/2000/svg">
  <defs
     id="defs1" />
  <sodipodi:namedview
     id="namedview1"
     pagecolor="#505050"
     bordercolor="#eeeeee"
     borderopacity="1"
     inkscape:showpageshadow="0"
     inkscape:pageopacity="0"
     inkscape:pagecheckerboard="0"
     inkscape:deskcolor="#d1d1d1"
     inkscape:zoom="0.88439941"
     inkscape:cx="748.53058"
     inkscape:cy="492.42457"
     inkscape:window-width="1920"
     inkscape:window-height="1011"
     inkscape:window-x="0"
     inkscape:window-y="0"
     inkscape:window-maximized="1"
     inkscape:current-layer="g1" />
  <g
     inkscape:groupmode="layer"
     inkscape:label="Image"
     id="g1"
     transform="translate(293.60911,36.868348)">
    <path
       style="fill:#ffffff"
       d="m -293.48207,812.15238 c 0.43715,-1.22222 13.86624,-50.04299 29.84241,-108.49061 l 29.04759,-106.26839 -11.84584,-24.39828 c -29.32811,-60.40563 -41.63941,-110.01182 -43.42353,-174.96739 -1.47115,-53.56091 4.41108,-95.74379 19.90787,-142.76422 22.71004,-68.90689 56.4362,-122.60663 109.08798,-173.692947 63.408927,-61.523631 139.594657,-99.478606 229.635777,-114.402264 23.91697,-3.964064 74.695183,-5.298441 102.424833,-2.691575 159.20166,14.966554 294.78713,117.012919 354.47037,266.786786 9.34182,23.44309 18.11071,55.24191 23.36836,84.74112 5.4826,30.76137 6.00323,102.39298 0.96692,133.03666 -31.26641,190.24218 -180.46282,333.95167 -370.11937,356.50769 -22.7197,2.70207 -73.03371,2.69337 -96.000003,-0.0166 -47.86919,-5.64846 -110.30206,-24.49093 -144.52379,-43.61782 -4.35822,-2.43586 -8.87795,-4.42883 -10.04384,-4.42883 -1.1659,0 -50.865127,12.79742 -110.442757,28.43872 -59.57762,15.6413 -109.40854,28.4413 -110.73537,28.44445 -1.32684,0.003 -2.05476,-0.99428 -1.61761,-2.21651 z M 180.58158,733.30619 C 329.02033,713.6591 449.7508,597.62324 477.81574,447.63004 c 4.71025,-25.17395 6.49344,-75.19406 3.56761,-100.07455 C 474.54437,289.39865 455.54254,237.20493 424.18818,190.45336 343.85569,70.671893 202.83984,12.768347 60.770187,41.227643 -57.686313,64.956773 -159.96126,154.53036 -199.48927,269.16591 c -34.63687,100.45067 -23.34638,209.52688 30.8561,298.09758 5.68451,9.28889 10.28399,18.08889 10.22106,19.55556 -0.0629,1.46667 -7.77606,30.59659 -17.1403,64.73316 -9.36424,34.13658 -16.7192,62.37319 -16.34435,62.74804 0.37485,0.37485 20.17826,-4.45213 44.00758,-10.72662 23.82932,-6.27449 53.425997,-14.00482 65.770407,-17.17851 l 22.44437,-5.77034 13.06973,7.63314 c 69.15492,40.38864 146.50766,55.72675 227.186253,45.04827 z M 215.96779,586.01403 C 200.39847,582.75425 171.59653,572.85527 145.00282,561.62397 77.616857,533.1649 14.638787,478.06314 -40.565663,399.26349 c -15.93242,-22.74217 -28.62129,-47.08808 -35.67264,-68.44444 -4.475,-13.55341 -5.00089,-17.67675 -5.10153,-40 -0.12212,-27.08896 2.8145,-40.42639 12.72148,-57.77778 7.26437,-12.72306 22.39954,-30.67659 30.73662,-36.46016 7.28082,-5.05082 8.71198,-5.34717 28.5244002,-5.90661 28.8439898,-0.81447 26.8195098,-3.03423 51.5136598,56.48264 10.72651,25.85261 19.50275,48.49234 19.50275,50.3105 0,5.37039 -4.9556,13.52469 -20.70026,34.06167 -8.17041,10.65732 -14.8553,21.1123 -14.8553,23.2333 0,8.98978 27.02633,46.97582 49.84136,70.05302 25.494173,25.78713 50.894743,43.13844 88.127723,60.20065 21.49751,9.85135 22.5088,9.77998 33.87586,-2.39087 5.37974,-5.76017 15.44287,-17.88977 22.36251,-26.95468 13.90704,-18.21859 17.01091,-19.96361 29.54595,-16.61099 10.69734,2.8611 91.21658,42.19125 94.02438,45.92682 4.83411,6.43142 0.7582,38.36617 -7.02423,55.0349 -7.06805,15.13864 -34.1684,35.2591 -58.30723,43.28979 -14.89411,4.95509 -45.50945,6.27729 -62.58205,2.70278 z"
       id="path1" />
  </g>
</svg>
