<?xml version="1.0" encoding="UTF-8" standalone="no"?>
<!-- Created with Inkscape (http://www.inkscape.org/) -->

<svg
   width="70.989395mm"
   height="69.993988mm"
   viewBox="0 0 70.989395 69.993988"
   version="1.1"
   id="svg1"
   inkscape:version="1.3 (0e150ed6c4, 2023-07-21)"
   sodipodi:docname="n2.svg"
   xmlns:inkscape="http://www.inkscape.org/namespaces/inkscape"
   xmlns:sodipodi="http://sodipodi.sourceforge.net/DTD/sodipodi-0.dtd"
   xmlns="http://www.w3.org/2000/svg"
   xmlns:svg="http://www.w3.org/2000/svg">
  <sodipodi:namedview
     id="namedview1"
     pagecolor="#505050"
     bordercolor="#eeeeee"
     borderopacity="1"
     inkscape:showpageshadow="0"
     inkscape:pageopacity="0"
     inkscape:pagecheckerboard="0"
     inkscape:deskcolor="#d1d1d1"
     inkscape:document-units="mm"
     inkscape:zoom="1.4342733"
     inkscape:cx="105.62841"
     inkscape:cy="147.46144"
     inkscape:window-width="1920"
     inkscape:window-height="1011"
     inkscape:window-x="0"
     inkscape:window-y="0"
     inkscape:window-maximized="1"
     inkscape:current-layer="layer1" />
  <defs
     id="defs1" />
  <g
     inkscape:label="Layer 1"
     inkscape:groupmode="layer"
     id="layer1"
     transform="translate(-124.88333,-161.39583)">
    <g
       id="g1">
      <path
         d="m 198.005,-192.8022 -1.24514,3.22426 h -1.40898 l 1.95946,-4.7643 h 0.99611 z m 1.11407,3.22426 -1.23858,-3.22426 -0.30801,-1.54004 h 0.99611 l 1.95946,4.7643 z"
         id="text349"
         style="font-size:13.4213px;font-family:Vazirmatn;-inkscape-font-specification:'Vazirmatn, @wght=600';font-variation-settings:'wght' 600;fill:#ffffff;stroke-width:0.0672348"
         transform="matrix(0,0.9921863,-1.0078752,0,0,0)"
         aria-label="^" />
      <path
         d="m -154.04111,233.86409 -1.24514,3.22426 h -1.40898 l 1.95946,-4.7643 h 0.99611 z m 1.11407,3.22426 -1.23859,-3.22426 -0.308,-1.54004 h 0.99611 l 1.95945,4.7643 z"
         id="text350"
         style="font-size:13.4213px;font-family:Vazirmatn;-inkscape-font-specification:'Vazirmatn, @wght=600';font-variation-settings:'wght' 600;fill:#ffffff;stroke-width:0.0672348"
         transform="matrix(0.24120023,-0.96335519,0.97858825,0.23744562,0,0)"
         aria-label="^" />
      <path
         d="m 101.38319,-266.56245 -1.24514,3.22425 h -1.408976 l 1.959456,-4.7643 h 0.99611 z m 1.11407,3.22425 -1.23859,-3.22425 -0.308,-1.54005 h 0.99611 l 1.95946,4.7643 z"
         id="text352"
         style="font-size:13.4213px;font-family:Vazirmatn;-inkscape-font-specification:'Vazirmatn, @wght=600';font-variation-settings:'wght' 600;fill:#ffffff;stroke-width:0.0672348"
         transform="matrix(-0.46838301,0.87853732,-0.89242918,-0.461092,0,0)"
         aria-label="^" />
      <path
         d="m -42.574903,282.35792 -1.24514,3.22426 h -1.408975 l 1.959458,-4.7643 h 0.996112 z m 1.114073,3.22426 -1.238587,-3.22426 -0.308009,-1.54004 h 0.996113 l 1.959457,4.7643 z"
         id="text353"
         style="font-size:13.4213px;font-family:Vazirmatn;-inkscape-font-specification:'Vazirmatn, @wght=600';font-variation-settings:'wght' 600;fill:#ffffff;stroke-width:0.0672348"
         transform="matrix(0.66834507,-0.74266196,0.7544053,0.65794138,0,0)"
         aria-label="^" />
      <path
         d="m -18.449262,-286.97151 -1.24514,3.22426 h -1.408975 l 1.959458,-4.7643 h 0.996112 z m 1.114072,3.22426 -1.238586,-3.22426 -0.308009,-1.54004 h 0.996112 l 1.959458,4.7643 z"
         id="text354"
         style="font-size:13.4213px;font-family:Vazirmatn;-inkscape-font-specification:'Vazirmatn, @wght=600';font-variation-settings:'wght' 600;fill:#ffffff;stroke-width:0.0672348"
         transform="matrix(-0.82946511,0.563626,-0.57253833,-0.81655335,0,0)"
         aria-label="^" />
      <path
         d="m 78.659632,273.49614 -1.24514,3.22426 h -1.408974 l 1.959457,-4.7643 h 0.996112 z m 1.114073,3.22426 -1.238587,-3.22426 -0.308008,-1.54004 h 0.996112 l 1.959457,4.7643 z"
         id="text355"
         style="font-size:13.4213px;font-family:Vazirmatn;-inkscape-font-specification:'Vazirmatn, @wght=600';font-variation-settings:'wght' 600;fill:#ffffff;stroke-width:0.0672348"
         transform="matrix(0.94237978,-0.35183396,0.35739732,0.92771036,0,0)"
         aria-label="^" />
      <path
         d="m -134.0402,-249.35394 -1.24514,3.22425 h -1.40897 l 1.95946,-4.7643 h 0.99611 z m 1.11408,3.22425 -1.23859,-3.22425 -0.30801,-1.54005 h 0.99611 l 1.95946,4.7643 z"
         id="text356"
         style="font-size:13.4213px;font-family:Vazirmatn;-inkscape-font-specification:'Vazirmatn, @wght=600';font-variation-settings:'wght' 600;fill:#ffffff;stroke-width:0.0672348"
         transform="matrix(-1.0005267,0.11959472,-0.12148581,-0.98495216,0,0)"
         aria-label="^" />
      <path
         d="m 181.88923,209.30894 -1.24514,3.22426 h -1.40897 l 1.95945,-4.7643 h 0.99612 z m 1.11407,3.22426 -1.23858,-3.22426 -0.30801,-1.54004 h 0.99611 l 1.95946,4.7643 z"
         id="text357"
         style="font-size:13.4213px;font-family:Vazirmatn;-inkscape-font-specification:'Vazirmatn, @wght=600';font-variation-settings:'wght' 600;fill:#ffffff;stroke-width:0.0672348"
         transform="matrix(1.0005267,0.11959504,-0.12148613,0.98495211,0,0)"
         aria-label="^" />
      <path
         d="m -218.90912,-162.32745 -1.24514,3.22425 h -1.40898 l 1.95946,-4.7643 h 0.99611 z m 1.11407,3.22425 -1.23859,-3.22425 -0.30801,-1.54005 h 0.99612 l 1.95945,4.7643 z"
         id="text358"
         style="font-size:13.4213px;font-family:Vazirmatn;-inkscape-font-specification:'Vazirmatn, @wght=600';font-variation-settings:'wght' 600;fill:#ffffff;stroke-width:0.0672348"
         transform="matrix(-0.94237972,-0.3518341,0.35739748,-0.92771031,0,0)"
         aria-label="^" />
      <path
         d="m 243.46517,104.50087 -1.24514,3.22426 h -1.40897 l 1.95946,-4.7643 h 0.99611 z m 1.11408,3.22426 -1.23859,-3.22426 -0.30801,-1.54004 h 0.99611 l 1.95946,4.7643 z"
         id="text359"
         style="font-size:13.4213px;font-family:Vazirmatn;-inkscape-font-specification:'Vazirmatn, @wght=600';font-variation-settings:'wght' 600;fill:#ffffff;stroke-width:0.0672348"
         transform="matrix(0.82946511,0.563626,-0.57253833,0.81655335,0,0)"
         aria-label="^" />
      <path
         d="m -253.61361,-45.82882 -1.24514,3.224258 h -1.40897 l 1.95946,-4.764299 h 0.99611 z m 1.11408,3.224258 -1.23859,-3.224258 -0.30801,-1.540041 h 0.99611 l 1.95946,4.764299 z"
         id="text360"
         style="font-size:13.4213px;font-family:Vazirmatn;-inkscape-font-specification:'Vazirmatn, @wght=600';font-variation-settings:'wght' 600;fill:#ffffff;stroke-width:0.0672348"
         transform="matrix(-0.66834502,-0.74266201,0.75440535,-0.65794132,0,0)"
         aria-label="^" />
      <path
         d="m 249.28124,-16.917974 -1.24514,3.224258 h -1.40897 l 1.95946,-4.7643 h 0.99611 z m 1.11408,3.224258 -1.23859,-3.224258 -0.30801,-1.540042 h 0.99611 l 1.95946,4.7643 z"
         id="text361"
         style="font-size:13.4213px;font-family:Vazirmatn;-inkscape-font-specification:'Vazirmatn, @wght=600';font-variation-settings:'wght' 600;fill:#ffffff;stroke-width:0.0672348"
         transform="matrix(0.46838287,0.87853739,-0.89242926,0.46109186,0,0)"
         aria-label="^" />
      <path
         d="m -230.20324,73.453704 -1.24514,3.224258 h -1.40897 l 1.95946,-4.764299 h 0.99611 z m 1.11408,3.224258 -1.23859,-3.224258 -0.30801,-1.540041 h 0.99611 l 1.95946,4.764299 z"
         id="text362"
         style="font-size:13.4213px;font-family:Vazirmatn;-inkscape-font-specification:'Vazirmatn, @wght=600';font-variation-settings:'wght' 600;fill:#ffffff;stroke-width:0.0672348"
         transform="matrix(-0.24120027,-0.96335518,0.97858823,-0.23744565,0,0)"
         aria-label="^" />
      <path
         d="m 198.005,-127.13179 -1.24514,3.22426 h -1.40898 l 1.95946,-4.7643 h 0.99611 z m 1.11407,3.22426 -1.23858,-3.22426 -0.30801,-1.54004 h 0.99611 l 1.95946,4.7643 z"
         id="text363"
         style="font-size:13.4213px;font-family:Vazirmatn;-inkscape-font-specification:'Vazirmatn, @wght=600';font-variation-settings:'wght' 600;fill:#ffffff;stroke-width:0.0672348"
         transform="matrix(0,0.9921863,-1.0078752,0,0,0)"
         aria-label="^" />
      <path
         d="m -154.04104,168.19376 -1.24514,3.22425 h -1.40897 l 1.95946,-4.7643 h 0.99611 z m 1.11408,3.22425 -1.23859,-3.22425 -0.30801,-1.54005 h 0.99611 l 1.95946,4.7643 z"
         id="text364"
         style="font-size:13.4213px;font-family:Vazirmatn;-inkscape-font-specification:'Vazirmatn, @wght=600';font-variation-settings:'wght' 600;fill:#ffffff;stroke-width:0.0672348"
         transform="matrix(0.24120062,-0.9633551,0.97858814,0.23744601,0,0)"
         aria-label="^" />
      <path
         d="m 101.38317,-200.89208 -1.24514,3.22426 h -1.408979 l 1.959459,-4.7643 h 0.99611 z m 1.11407,3.22426 -1.23859,-3.22426 -0.30801,-1.54004 h 0.99612 l 1.95945,4.7643 z"
         id="text365"
         style="font-size:13.4213px;font-family:Vazirmatn;-inkscape-font-specification:'Vazirmatn, @wght=600';font-variation-settings:'wght' 600;fill:#ffffff;stroke-width:0.0672348"
         transform="matrix(-0.46838316,0.87853724,-0.8924291,-0.46109215,0,0)"
         aria-label="^" />
      <path
         d="m -42.574934,216.68751 -1.24514,3.22426 h -1.408974 l 1.959457,-4.7643 h 0.996112 z m 1.114073,3.22426 -1.238587,-3.22426 -0.308008,-1.54004 h 0.996112 l 1.959457,4.7643 z"
         id="text399"
         style="font-size:13.4213px;font-family:Vazirmatn;-inkscape-font-specification:'Vazirmatn, @wght=600';font-variation-settings:'wght' 600;fill:#ffffff;stroke-width:0.0672348"
         transform="matrix(0.66834501,-0.74266202,0.75440536,0.65794131,0,0)"
         aria-label="^" />
      <path
         d="m -18.4493,-221.30113 -1.245141,3.22425 h -1.408974 l 1.959457,-4.76429 h 0.996113 z m 1.114072,3.22425 -1.238586,-3.22425 -0.308009,-1.54004 h 0.996112 l 1.959458,4.76429 z"
         id="text400"
         style="font-size:13.4213px;font-family:Vazirmatn;-inkscape-font-specification:'Vazirmatn, @wght=600';font-variation-settings:'wght' 600;fill:#ffffff;stroke-width:0.0672348"
         transform="matrix(-0.82946521,0.56362585,-0.57253818,-0.81655345,0,0)"
         aria-label="^" />
      <path
         d="m 78.659678,207.82574 -1.24514,3.22426 h -1.408975 l 1.959458,-4.7643 h 0.996112 z m 1.114073,3.22426 -1.238587,-3.22426 -0.308009,-1.54004 h 0.996113 l 1.959457,4.7643 z"
         id="text401"
         style="font-size:13.4213px;font-family:Vazirmatn;-inkscape-font-specification:'Vazirmatn, @wght=600';font-variation-settings:'wght' 600;fill:#ffffff;stroke-width:0.0672348"
         transform="matrix(0.94237986,-0.35183374,0.35739711,0.92771044,0,0)"
         aria-label="^" />
      <path
         d="m -134.04021,-183.68353 -1.24514,3.22425 h -1.40898 l 1.95946,-4.76429 h 0.99611 z m 1.11407,3.22425 -1.23859,-3.22425 -0.308,-1.54004 h 0.99611 l 1.95945,4.76429 z"
         id="text402"
         style="font-size:13.4213px;font-family:Vazirmatn;-inkscape-font-specification:'Vazirmatn, @wght=600';font-variation-settings:'wght' 600;fill:#ffffff;stroke-width:0.0672348"
         transform="matrix(-1.0005267,0.11959472,-0.12148581,-0.98495216,0,0)"
         aria-label="^" />
      <path
         d="m 181.88923,143.63853 -1.24514,3.22426 h -1.40897 l 1.95945,-4.7643 h 0.99612 z m 1.11407,3.22426 -1.23858,-3.22426 -0.30801,-1.54004 h 0.99611 l 1.95946,4.7643 z"
         id="text403"
         style="font-size:13.4213px;font-family:Vazirmatn;-inkscape-font-specification:'Vazirmatn, @wght=600';font-variation-settings:'wght' 600;fill:#ffffff;stroke-width:0.0672348"
         transform="matrix(1.0005267,0.11959504,-0.12148613,0.98495212,0,0)"
         aria-label="^" />
      <path
         d="m -218.90914,-96.657013 -1.24514,3.224257 h -1.40897 l 1.95945,-4.764299 h 0.99612 z m 1.11407,3.224257 -1.23858,-3.224257 -0.30801,-1.540042 h 0.99611 l 1.95946,4.764299 z"
         id="text404"
         style="font-size:13.4213px;font-family:Vazirmatn;-inkscape-font-specification:'Vazirmatn, @wght=600';font-variation-settings:'wght' 600;fill:#ffffff;stroke-width:0.0672348"
         transform="matrix(-0.94237966,-0.35183426,0.35739764,-0.92771025,0,0)"
         aria-label="^" />
      <path
         d="m 243.4652,38.830371 -1.24514,3.224258 h -1.40897 l 1.95946,-4.764299 h 0.99611 z m 1.11408,3.224258 -1.23859,-3.224258 -0.30801,-1.540041 h 0.99611 l 1.95946,4.764299 z"
         id="text405"
         style="font-size:13.4213px;font-family:Vazirmatn;-inkscape-font-specification:'Vazirmatn, @wght=600';font-variation-settings:'wght' 600;fill:#ffffff;stroke-width:0.0672348"
         transform="matrix(0.82946492,0.56362626,-0.5725386,0.81655318,0,0)"
         aria-label="^" />
      <path
         d="m -253.61361,19.841602 -1.24514,3.224257 h -1.40897 l 1.95946,-4.764299 h 0.99611 z m 1.11408,3.224257 -1.23859,-3.224257 -0.30801,-1.540042 h 0.99611 l 1.95946,4.764299 z"
         id="text406"
         style="font-size:13.4213px;font-family:Vazirmatn;-inkscape-font-specification:'Vazirmatn, @wght=600';font-variation-settings:'wght' 600;fill:#ffffff;stroke-width:0.0672348"
         transform="matrix(-0.66834502,-0.74266201,0.75440535,-0.65794132,0,0)"
         aria-label="^" />
      <path
         d="m 249.28126,-82.588303 -1.24514,3.224258 h -1.40897 l 1.95945,-4.7643 h 0.99611 z m 1.11407,3.224258 -1.23858,-3.224258 -0.30801,-1.540042 h 0.99611 l 1.95946,4.7643 z"
         id="text407"
         style="font-size:13.4213px;font-family:Vazirmatn;-inkscape-font-specification:'Vazirmatn, @wght=600';font-variation-settings:'wght' 600;fill:#ffffff;stroke-width:0.0672348"
         transform="matrix(0.46838311,0.87853727,-0.89242913,0.46109209,0,0)"
         aria-label="^" />
      <path
         d="m -230.20324,139.12408 -1.24514,3.22426 h -1.40897 l 1.95946,-4.7643 h 0.99611 z m 1.11408,3.22426 -1.23859,-3.22426 -0.30801,-1.54004 h 0.99611 l 1.95946,4.7643 z"
         id="text408"
         style="font-size:13.4213px;font-family:Vazirmatn;-inkscape-font-specification:'Vazirmatn, @wght=600';font-variation-settings:'wght' 600;fill:#ffffff;stroke-width:0.0672348"
         transform="matrix(-0.24120027,-0.96335518,0.97858823,-0.23744565,0,0)"
         aria-label="^" />
    </g>
  </g>
</svg>
