<?xml version="1.0" encoding="UTF-8" standalone="no"?>
<!-- Created with Inkscape (http://www.inkscape.org/) -->

<svg
   width="121.8167mm"
   height="120.22996mm"
   viewBox="0 0 121.8167 120.22996"
   version="1.1"
   id="svg1"
   inkscape:version="1.3 (0e150ed6c4, 2023-07-21)"
   sodipodi:docname="n4.svg"
   xmlns:inkscape="http://www.inkscape.org/namespaces/inkscape"
   xmlns:sodipodi="http://sodipodi.sourceforge.net/DTD/sodipodi-0.dtd"
   xmlns="http://www.w3.org/2000/svg"
   xmlns:svg="http://www.w3.org/2000/svg">
  <sodipodi:namedview
     id="namedview1"
     pagecolor="#505050"
     bordercolor="#eeeeee"
     borderopacity="1"
     inkscape:showpageshadow="0"
     inkscape:pageopacity="0"
     inkscape:pagecheckerboard="0"
     inkscape:deskcolor="#d1d1d1"
     inkscape:document-units="mm"
     inkscape:zoom="0.71713664"
     inkscape:cx="23.705385"
     inkscape:cy="243.3288"
     inkscape:window-width="1920"
     inkscape:window-height="1011"
     inkscape:window-x="0"
     inkscape:window-y="0"
     inkscape:window-maximized="1"
     inkscape:current-layer="layer1" />
  <defs
     id="defs1" />
  <g
     inkscape:label="Layer 1"
     inkscape:groupmode="layer"
     id="layer1"
     transform="translate(-98.954166,-84.137501)">
    <g
       id="g1">
      <path
         d="m 141.65859,-216.86919 3.08881,1.15354 v 1.21073 l -4.06598,-1.7589 v -0.82941 z m 3.08881,-0.93904 -3.08881,1.17261 -0.97717,0.20973 v -0.83417 l 4.06598,-1.75414 z m 4.34721,1.12971 -3.13647,-1.13924 v -1.2012 l 4.13747,1.7589 v 0.83894 z m -3.13647,0.97717 3.14124,-1.17261 0.99623,-0.22403 v 0.83417 l -4.13747,1.7589 z"
         id="text158"
         style="font-size:9.76216px;font-family:Vazirmatn;-inkscape-font-specification:'Vazirmatn, @wght=600';font-variation-settings:'wght' 600;fill:#ffffff;stroke-width:0.0489041"
         transform="matrix(0,0.99218628,-1.0078753,0,0,0)"
         aria-label="&lt;&gt;" />
      <path
         d="m 116.39462,-236.76662 3.08881,1.15353 v 1.21074 l -4.06598,-1.7589 v -0.82941 z m 3.08881,-0.93904 -3.08881,1.17261 -0.97717,0.20973 v -0.83417 l 4.06598,-1.75414 z m 4.34721,1.12971 -3.13647,-1.13924 v -1.2012 l 4.13747,1.7589 v 0.83894 z m -3.13647,0.97716 3.14124,-1.1726 0.99623,-0.22403 v 0.83417 l -4.13747,1.7589 z"
         id="text159"
         style="font-size:9.76216px;font-family:Vazirmatn;-inkscape-font-specification:'Vazirmatn, @wght=600';font-variation-settings:'wght' 600;fill:#ffffff;stroke-width:0.0489041"
         transform="matrix(-0.15021607,0.98110437,-0.99661811,-0.14787775,0,0)"
         aria-label="&lt;&gt;" />
      <path
         d="m 88.447256,-252.67643 3.088808,1.15354 v 1.21074 l -4.065978,-1.75891 v -0.8294 z m 3.088808,-0.93903 -3.088808,1.1726 -0.97717,0.20973 v -0.83416 l 4.065978,-1.75414 z m 4.347212,1.1297 -3.136475,-1.13924 v -1.2012 l 4.137478,1.75891 v 0.83893 z m -3.136475,0.97717 3.141242,-1.1726 0.996236,-0.22404 v 0.83417 l -4.137478,1.75891 z"
         id="text160"
         style="font-size:9.76216px;font-family:Vazirmatn;-inkscape-font-specification:'Vazirmatn, @wght=600';font-variation-settings:'wght' 600;fill:#ffffff;stroke-width:0.0489041"
         transform="matrix(-0.2970765,0.94810622,-0.96309816,-0.29245209,0,0)"
         aria-label="&lt;&gt;" />
      <path
         d="m 58.440858,-264.24321 3.088809,1.15353 v 1.21074 l -4.065978,-1.75891 v -0.8294 z m 3.088809,-0.93904 -3.088809,1.1726 -0.977169,0.20974 v -0.83417 l 4.065978,-1.75414 z m 4.347212,1.1297 -3.136475,-1.13923 v -1.20121 l 4.137478,1.75891 v 0.83893 z m -3.136475,0.97717 3.141242,-1.1726 0.996236,-0.22404 v 0.83417 l -4.137478,1.75891 z"
         id="text161"
         style="font-size:9.76216px;font-family:Vazirmatn;-inkscape-font-specification:'Vazirmatn, @wght=600';font-variation-settings:'wght' 600;fill:#ffffff;stroke-width:0.0489041"
         transform="matrix(-0.43730059,0.89392901,-0.90806425,-0.43049341,0,0)"
         aria-label="&lt;&gt;" />
      <path
         d="m 27.045539,-271.20858 3.088809,1.15354 v 1.21074 l -4.065978,-1.75891 v -0.8294 z m 3.088809,-0.93903 -3.088809,1.1726 -0.977169,0.20973 v -0.83417 l 4.065978,-1.75413 z m 4.347212,1.1297 -3.136475,-1.13924 v -1.2012 l 4.137478,1.7589 v 0.83894 z m -3.136475,0.97717 3.141242,-1.1726 0.996236,-0.22404 v 0.83417 l -4.137478,1.75891 z"
         id="text162"
         style="font-size:9.76216px;font-family:Vazirmatn;-inkscape-font-specification:'Vazirmatn, @wght=600';font-variation-settings:'wght' 600;fill:#ffffff;stroke-width:0.0489041"
         transform="matrix(-0.56775658,0.81978263,-0.83274545,-0.55891866,0,0)"
         aria-label="&lt;&gt;" />
      <path
         d="m -5.0370846,-273.41692 3.0888085,1.15354 v 1.21073 l -4.0659779,-1.7589 v -0.8294 z m 3.0888085,-0.93904 -3.0888085,1.17261 -0.9771694,0.20973 v -0.83417 l 4.0659779,-1.75414 z m 4.3472122,1.12971 -3.13647531,-1.13924 v -1.2012 l 4.13747811,1.7589 v 0.83894 z m -3.13647531,0.97717 3.14124201,-1.17261 0.9962361,-0.22403 v 0.83417 l -4.13747811,1.7589 z"
         id="text163"
         style="font-size:9.76216px;font-family:Vazirmatn;-inkscape-font-specification:'Vazirmatn, @wght=600';font-variation-settings:'wght' 600;fill:#ffffff;stroke-width:0.0489041"
         transform="matrix(-0.68552924,0.72732404,-0.73882487,-0.67485802,0,0)"
         aria-label="&lt;&gt;" />
      <path
         d="m -37.090621,-270.81893 3.088809,1.15354 v 1.21073 l -4.065978,-1.7589 v -0.8294 z m 3.088809,-0.93903 -3.088809,1.1726 -0.977169,0.20973 v -0.83417 l 4.065978,-1.75413 z m 4.347212,1.1297 -3.136475,-1.13924 v -1.2012 l 4.137478,1.7589 v 0.83894 z m -3.136475,0.97717 3.141242,-1.17261 0.996236,-0.22403 v 0.83417 l -4.137478,1.7589 z"
         id="text164"
         style="font-size:9.76216px;font-family:Vazirmatn;-inkscape-font-specification:'Vazirmatn, @wght=600';font-variation-settings:'wght' 600;fill:#ffffff;stroke-width:0.0489041"
         transform="matrix(-0.78798859,0.61861805,-0.62839996,-0.77572246,0,0)"
         aria-label="&lt;&gt;" />
      <path
         d="m -68.398875,-263.47262 3.088809,1.15354 v 1.21074 l -4.065978,-1.75891 v -0.8294 z m 3.088809,-0.93903 -3.088809,1.1726 -0.977169,0.20974 v -0.83417 l 4.065978,-1.75414 z m 4.347212,1.1297 -3.136475,-1.13923 v -1.20121 l 4.137478,1.75891 v 0.83893 z m -3.136475,0.97717 3.141242,-1.1726 0.996236,-0.22404 v 0.83417 l -4.137478,1.75891 z"
         id="text165"
         style="font-size:9.76216px;font-family:Vazirmatn;-inkscape-font-specification:'Vazirmatn, @wght=600';font-variation-settings:'wght' 600;fill:#ffffff;stroke-width:0.0489041"
         transform="matrix(-0.87284558,0.49609315,-0.50393763,-0.85925851,0,0)"
         aria-label="&lt;&gt;" />
      <path
         d="m -98.262591,-251.54209 3.088809,1.15354 v 1.21073 l -4.065978,-1.7589 v -0.8294 z m 3.088809,-0.93903 -3.088809,1.1726 -0.977169,0.20973 v -0.83417 l 4.065978,-1.75413 z m 4.347212,1.1297 -3.136476,-1.13924 v -1.2012 l 4.137479,1.7589 v 0.83894 z m -3.136476,0.97717 3.141242,-1.17261 0.996237,-0.22403 v 0.83417 l -4.137479,1.7589 z"
         id="text166"
         style="font-size:9.76216px;font-family:Vazirmatn;-inkscape-font-specification:'Vazirmatn, @wght=600';font-variation-settings:'wght' 600;fill:#ffffff;stroke-width:0.0489041"
         transform="matrix(-0.9382046,0.36248633,-0.36821816,-0.92360019,0,0)"
         aria-label="&lt;&gt;" />
      <path
         d="m -126.01455,-235.29389 3.08881,1.15354 v 1.21073 l -4.06598,-1.7589 v -0.8294 z m 3.08881,-0.93904 -3.08881,1.17261 -0.97717,0.20973 v -0.83417 l 4.06598,-1.75414 z m 4.34721,1.12971 -3.13648,-1.13924 v -1.2012 l 4.13748,1.7589 v 0.83894 z m -3.13648,0.97717 3.14125,-1.17261 0.99623,-0.22403 v 0.83417 l -4.13748,1.7589 z"
         id="text167"
         style="font-size:9.76216px;font-family:Vazirmatn;-inkscape-font-specification:'Vazirmatn, @wght=600';font-variation-settings:'wght' 600;fill:#ffffff;stroke-width:0.0489041"
         transform="matrix(-0.98260569,0.22078217,-0.22427329,-0.96731015,0,0)"
         aria-label="&lt;&gt;" />
      <path
         d="m -151.03492,-215.09092 3.08881,1.15354 v 1.21074 l -4.06598,-1.75891 v -0.8294 z m 3.08881,-0.93903 -3.08881,1.1726 -0.97717,0.20973 v -0.83416 l 4.06598,-1.75414 z m 4.34721,1.1297 -3.13648,-1.13924 v -1.2012 l 4.13748,1.75891 v 0.83893 z m -3.13648,0.97717 3.14125,-1.1726 0.99623,-0.22404 v 0.83417 l -4.13748,1.75891 z"
         id="text168"
         style="font-size:9.76216px;font-family:Vazirmatn;-inkscape-font-specification:'Vazirmatn, @wght=600';font-variation-settings:'wght' 600;fill:#ffffff;stroke-width:0.0489041"
         transform="matrix(-1.005057,0.0741461,-0.07531854,-0.98941194,0,0)"
         aria-label="&lt;&gt;" />
      <path
         d="m -172.7647,-191.38453 3.0888,1.15354 v 1.21074 l -4.06597,-1.75891 v -0.8294 z m 3.0888,-0.93903 -3.0888,1.1726 -0.97717,0.20973 v -0.83416 l 4.06597,-1.75414 z m 4.34722,1.1297 -3.13648,-1.13924 v -1.2012 l 4.13748,1.75891 v 0.83893 z m -3.13648,0.97717 3.14124,-1.1726 0.99624,-0.22404 v 0.83417 l -4.13748,1.75891 z"
         id="text169"
         style="font-size:9.76216px;font-family:Vazirmatn;-inkscape-font-specification:'Vazirmatn, @wght=600';font-variation-settings:'wght' 600;fill:#ffffff;stroke-width:0.0489041"
         transform="matrix(-1.005057,-0.07414628,0.07531872,-0.98941193,0,0)"
         aria-label="&lt;&gt;" />
      <path
         d="m -190.71853,-164.7043 3.08881,1.15353 v 1.21074 l -4.06598,-1.75891 v -0.8294 z m 3.08881,-0.93904 -3.08881,1.1726 -0.97717,0.20974 v -0.83417 l 4.06598,-1.75414 z m 4.34721,1.1297 -3.13648,-1.13923 v -1.20121 l 4.13748,1.75891 v 0.83893 z m -3.13648,0.97717 3.14125,-1.1726 0.99623,-0.22404 v 0.83417 l -4.13748,1.75891 z"
         id="text170"
         style="font-size:9.76216px;font-family:Vazirmatn;-inkscape-font-specification:'Vazirmatn, @wght=600';font-variation-settings:'wght' 600;fill:#ffffff;stroke-width:0.0489041"
         transform="matrix(-0.98260569,-0.22078217,0.22427329,-0.96731015,0,0)"
         aria-label="&lt;&gt;" />
      <path
         d="m -204.49537,-135.64611 3.08881,1.15354 v 1.21074 l -4.06598,-1.75891 v -0.8294 z m 3.08881,-0.93903 -3.08881,1.1726 -0.97717,0.20973 v -0.83417 l 4.06598,-1.75413 z m 4.34721,1.1297 -3.13648,-1.13924 v -1.2012 l 4.13748,1.7589 v 0.83894 z m -3.13648,0.97717 3.14125,-1.1726 0.99623,-0.22404 v 0.83417 l -4.13748,1.75891 z"
         id="text171"
         style="font-size:9.76216px;font-family:Vazirmatn;-inkscape-font-specification:'Vazirmatn, @wght=600';font-variation-settings:'wght' 600;fill:#ffffff;stroke-width:0.0489041"
         transform="matrix(-0.93820458,-0.36248649,0.36821831,-0.92360009,0,0)"
         aria-label="&lt;&gt;" />
      <path
         d="m -213.78739,-104.85921 3.0888,1.15353 v 1.21074 l -4.06597,-1.7589 v -0.82941 z m 3.0888,-0.93904 -3.0888,1.17261 -0.97717,0.20973 v -0.83417 l 4.06597,-1.75414 z m 4.34722,1.12971 -3.13648,-1.13924 v -1.2012 l 4.13748,1.7589 v 0.83894 z m -3.13648,0.97716 3.14124,-1.1726 0.99624,-0.22403 v 0.83417 l -4.13748,1.7589 z"
         id="text172"
         style="font-size:9.76216px;font-family:Vazirmatn;-inkscape-font-specification:'Vazirmatn, @wght=600';font-variation-settings:'wght' 600;fill:#ffffff;stroke-width:0.0489041"
         transform="matrix(-0.87284558,-0.49609315,0.50393763,-0.85925851,0,0)"
         aria-label="&lt;&gt;" />
      <path
         d="m -218.38713,-73.031217 3.08881,1.153537 v 1.210736 l -4.06597,-1.758904 v -0.829403 z m 3.08881,-0.939036 -3.08881,1.172604 -0.97716,0.209733 v -0.834169 l 4.06597,-1.754138 z m 4.34722,1.129703 -3.13648,-1.139236 v -1.201203 l 4.13748,1.758904 v 0.838936 z m -3.13648,0.97717 3.14124,-1.172603 0.99624,-0.224034 v 0.834169 l -4.13748,1.758904 z"
         id="text173"
         style="font-size:9.76216px;font-family:Vazirmatn;-inkscape-font-specification:'Vazirmatn, @wght=600';font-variation-settings:'wght' 600;fill:#ffffff;stroke-width:0.0489041"
         transform="matrix(-0.78798847,-0.61861819,0.6284001,-0.77572235,0,0)"
         aria-label="&lt;&gt;" />
      <path
         d="m -218.19174,-40.873223 3.08881,1.153536 v 1.210737 l -4.06598,-1.758905 v -0.829402 z m 3.08881,-0.939036 -3.08881,1.172603 -0.97717,0.209734 v -0.834169 l 4.06598,-1.754138 z m 4.34721,1.129703 -3.13647,-1.139237 v -1.201203 l 4.13748,1.758905 v 0.838935 z m -3.13647,0.977169 3.14124,-1.172603 0.99624,-0.224034 v 0.834169 l -4.13748,1.758905 z"
         id="text174"
         style="font-size:9.76216px;font-family:Vazirmatn;-inkscape-font-specification:'Vazirmatn, @wght=600';font-variation-settings:'wght' 600;fill:#ffffff;stroke-width:0.0489041"
         transform="matrix(-0.68552924,-0.72732404,0.73882487,-0.67485802,0,0)"
         aria-label="&lt;&gt;" />
      <path
         d="m -213.20567,-9.1035663 3.08881,1.1535365 v 1.2107367 l -4.06598,-1.7589049 v -0.8294023 z m 3.08881,-0.9390357 -3.08881,1.172603 -0.97717,0.2097339 v -0.834169 l 4.06598,-1.7541379 z m 4.34721,1.1297029 -3.13647,-1.1392369 v -1.201203 l 4.13748,1.7589049 v 0.8389357 z m -3.13647,0.9771693 3.14124,-1.1726032 0.99624,-0.224034 v 0.834169 l -4.13748,1.7589049 z"
         id="text175"
         style="font-size:9.76216px;font-family:Vazirmatn;-inkscape-font-specification:'Vazirmatn, @wght=600';font-variation-settings:'wght' 600;fill:#ffffff;stroke-width:0.0489041"
         transform="matrix(-0.56775658,-0.81978263,0.83274545,-0.55891866,0,0)"
         aria-label="&lt;&gt;" />
      <path
         d="m -203.5402,21.568263 3.08881,1.153536 v 1.210737 l -4.06598,-1.758905 v -0.829402 z m 3.08881,-0.939036 -3.08881,1.172603 -0.97717,0.209734 v -0.834169 l 4.06598,-1.754138 z m 4.34721,1.129703 -3.13648,-1.139236 V 19.41849 l 4.13748,1.758905 v 0.838936 z m -3.13648,0.977169 3.14125,-1.172603 0.99623,-0.224034 v 0.834169 l -4.13748,1.758905 z"
         id="text176"
         style="font-size:9.76216px;font-family:Vazirmatn;-inkscape-font-specification:'Vazirmatn, @wght=600';font-variation-settings:'wght' 600;fill:#ffffff;stroke-width:0.0489041"
         transform="matrix(-0.43730059,-0.89392901,0.90806425,-0.43049341,0,0)"
         aria-label="&lt;&gt;" />
      <path
         d="m -189.41136,50.456832 3.08881,1.153536 v 1.210737 l -4.06598,-1.758905 v -0.829402 z m 3.08881,-0.939036 -3.08881,1.172603 -0.97717,0.209734 v -0.834169 l 4.06598,-1.754138 z m 4.34721,1.129703 -3.13647,-1.139237 v -1.201203 l 4.13748,1.758905 V 50.9049 Z m -3.13647,0.977169 3.14124,-1.172603 0.99624,-0.224034 V 51.0622 l -4.13748,1.758905 z"
         id="text177"
         style="font-size:9.76216px;font-family:Vazirmatn;-inkscape-font-specification:'Vazirmatn, @wght=600';font-variation-settings:'wght' 600;fill:#ffffff;stroke-width:0.0489041"
         transform="matrix(-0.2970765,-0.94810622,0.96309816,-0.29245209,0,0)"
         aria-label="&lt;&gt;" />
      <path
         d="m -171.13465,76.917025 3.0888,1.153537 v 1.210737 l -4.06597,-1.758905 v -0.829403 z m 3.0888,-0.939036 -3.0888,1.172604 -0.97717,0.209734 v -0.834169 l 4.06597,-1.754139 z m 4.34722,1.129704 -3.13648,-1.139237 v -1.201203 l 4.13748,1.758905 v 0.838935 z m -3.13648,0.977169 3.14124,-1.172603 0.99624,-0.224034 v 0.834169 l -4.13748,1.758905 z"
         id="text178"
         style="font-size:9.76216px;font-family:Vazirmatn;-inkscape-font-specification:'Vazirmatn, @wght=600';font-variation-settings:'wght' 600;fill:#ffffff;stroke-width:0.0489041"
         transform="matrix(-0.15021585,-0.9811044,0.99661815,-0.14787754,0,0)"
         aria-label="&lt;&gt;" />
      <path
         d="m -149.11843,100.35761 3.08881,1.15353 v 1.21074 l -4.06598,-1.7589 v -0.82941 z m 3.08881,-0.939038 -3.08881,1.172598 -0.97717,0.20974 v -0.83417 l 4.06598,-1.754138 z m 4.34721,1.129698 -3.13648,-1.139232 v -1.201203 l 4.13748,1.758905 v 0.83894 z m -3.13648,0.97717 3.14124,-1.1726 0.99624,-0.22403 v 0.83417 l -4.13748,1.7589 z"
         id="text179"
         style="font-size:9.76216px;font-family:Vazirmatn;-inkscape-font-specification:'Vazirmatn, @wght=600';font-variation-settings:'wght' 600;fill:#ffffff;stroke-width:0.0489041"
         transform="matrix(0,-0.99218628,1.0078753,0,0,0)"
         aria-label="&lt;&gt;" />
      <path
         d="m -123.85443,120.25509 3.08881,1.15354 v 1.21073 l -4.06598,-1.7589 v -0.8294 z m 3.08881,-0.93903 -3.08881,1.1726 -0.97717,0.20973 v -0.83417 l 4.06598,-1.75413 z m 4.34721,1.1297 -3.13647,-1.13924 v -1.2012 l 4.13748,1.7589 v 0.83894 z m -3.13647,0.97717 3.14124,-1.17261 0.99624,-0.22403 v 0.83417 l -4.13748,1.7589 z"
         id="text180"
         style="font-size:9.76216px;font-family:Vazirmatn;-inkscape-font-specification:'Vazirmatn, @wght=600';font-variation-settings:'wght' 600;fill:#ffffff;stroke-width:0.0489041"
         transform="matrix(0.15021622,-0.98110435,0.99661809,0.1478779,0,0)"
         aria-label="&lt;&gt;" />
      <path
         d="m -95.907099,136.1649 3.088808,1.15353 v 1.21074 l -4.065978,-1.7589 v -0.82941 z m 3.088808,-0.93904 -3.088808,1.1726 -0.97717,0.20974 v -0.83417 l 4.065978,-1.75414 z m 4.347212,1.1297 -3.136475,-1.13923 v -1.20121 l 4.137478,1.75891 v 0.83893 z m -3.136475,0.97717 3.141242,-1.1726 0.996236,-0.22403 v 0.83417 l -4.137478,1.7589 z"
         id="text181"
         style="font-size:9.76216px;font-family:Vazirmatn;-inkscape-font-specification:'Vazirmatn, @wght=600';font-variation-settings:'wght' 600;fill:#ffffff;stroke-width:0.0489041"
         transform="matrix(0.29707656,-0.94810621,0.96309814,0.29245215,0,0)"
         aria-label="&lt;&gt;" />
      <path
         d="m -65.90063,147.73167 3.088809,1.15354 v 1.21073 l -4.065978,-1.7589 v -0.8294 z m 3.088809,-0.93904 -3.088809,1.17261 -0.977169,0.20973 v -0.83417 l 4.065978,-1.75414 z m 4.347212,1.12971 -3.136475,-1.13924 v -1.2012 l 4.137478,1.7589 v 0.83894 z m -3.136475,0.97717 3.141242,-1.17261 0.996236,-0.22403 v 0.83417 l -4.137478,1.7589 z"
         id="text182"
         style="font-size:9.76216px;font-family:Vazirmatn;-inkscape-font-specification:'Vazirmatn, @wght=600';font-variation-settings:'wght' 600;fill:#ffffff;stroke-width:0.0489041"
         transform="matrix(0.43730093,-0.89392885,0.90806409,0.43049374,0,0)"
         aria-label="&lt;&gt;" />
      <path
         d="m -34.505427,154.69702 3.088809,1.15353 v 1.21074 l -4.065978,-1.75891 v -0.8294 z m 3.088809,-0.93904 -3.088809,1.1726 -0.977169,0.20974 v -0.83417 l 4.065978,-1.75414 z m 4.347212,1.1297 -3.136476,-1.13923 v -1.20121 l 4.137479,1.75891 v 0.83893 z m -3.136476,0.97717 3.141242,-1.1726 0.996237,-0.22403 v 0.83416 l -4.137479,1.75891 z"
         id="text183"
         style="font-size:9.76216px;font-family:Vazirmatn;-inkscape-font-specification:'Vazirmatn, @wght=600';font-variation-settings:'wght' 600;fill:#ffffff;stroke-width:0.0489041"
         transform="matrix(0.56775644,-0.81978272,0.83274555,0.55891852,0,0)"
         aria-label="&lt;&gt;" />
      <path
         d="m -2.4226666,156.90538 3.08880854,1.15353 v 1.21074 L -3.399836,157.51074 v -0.8294 z m 3.08880854,-0.93904 -3.08880854,1.1726 -0.9771694,0.20974 v -0.83417 l 4.06597794,-1.75414 z m 4.34721216,1.1297 -3.1364753,-1.13923 v -1.20121 l 4.1374781,1.75891 v 0.83893 z m -3.1364753,0.97717 3.141242,-1.1726 0.9962361,-0.22404 v 0.83417 l -4.1374781,1.75891 z"
         id="text184"
         style="font-size:9.76216px;font-family:Vazirmatn;-inkscape-font-specification:'Vazirmatn, @wght=600';font-variation-settings:'wght' 600;fill:#ffffff;stroke-width:0.0489041"
         transform="matrix(0.68552953,-0.72732377,0.7388246,0.67485832,0,0)"
         aria-label="&lt;&gt;" />
      <path
         d="m 29.630805,154.30737 3.088809,1.15353 v 1.21074 l -4.065978,-1.7589 v -0.82941 z m 3.088809,-0.93904 -3.088809,1.17261 -0.977169,0.20973 v -0.83417 l 4.065978,-1.75414 z m 4.347212,1.12971 -3.136475,-1.13924 v -1.2012 l 4.137478,1.7589 v 0.83894 z m -3.136475,0.97716 3.141242,-1.1726 0.996236,-0.22403 v 0.83417 l -4.137478,1.7589 z"
         id="text185"
         style="font-size:9.76216px;font-family:Vazirmatn;-inkscape-font-specification:'Vazirmatn, @wght=600';font-variation-settings:'wght' 600;fill:#ffffff;stroke-width:0.0489041"
         transform="matrix(0.78798873,-0.61861788,0.62839978,0.7757226,0,0)"
         aria-label="&lt;&gt;" />
      <path
         d="m 60.939073,146.96105 3.088809,1.15354 v 1.21074 l -4.065978,-1.75891 v -0.8294 z m 3.088809,-0.93903 -3.088809,1.1726 -0.977169,0.20974 v -0.83417 l 4.065978,-1.75414 z m 4.347212,1.1297 -3.136476,-1.13923 v -1.20121 l 4.137479,1.75891 v 0.83893 z m -3.136476,0.97717 3.141242,-1.1726 0.996237,-0.22404 v 0.83417 l -4.137479,1.75891 z"
         id="text186"
         style="font-size:9.76216px;font-family:Vazirmatn;-inkscape-font-specification:'Vazirmatn, @wght=600';font-variation-settings:'wght' 600;fill:#ffffff;stroke-width:0.0489041"
         transform="matrix(0.87284566,-0.49609302,0.50393749,0.85925859,0,0)"
         aria-label="&lt;&gt;" />
      <path
         d="m 90.802732,135.03056 3.088808,1.15353 v 1.21074 l -4.065977,-1.7589 v -0.82941 z m 3.088808,-0.93904 -3.088808,1.17261 -0.977169,0.20973 v -0.83417 l 4.065977,-1.75414 z m 4.347213,1.12971 -3.136476,-1.13924 v -1.2012 l 4.137478,1.7589 v 0.83894 z m -3.136476,0.97716 3.141242,-1.1726 0.996236,-0.22403 v 0.83417 l -4.137478,1.7589 z"
         id="text187"
         style="font-size:9.76216px;font-family:Vazirmatn;-inkscape-font-specification:'Vazirmatn, @wght=600';font-variation-settings:'wght' 600;fill:#ffffff;stroke-width:0.0489041"
         transform="matrix(0.93820459,-0.36248635,0.36821817,0.92360019,0,0)"
         aria-label="&lt;&gt;" />
      <path
         d="m 118.55478,118.7823 3.08881,1.15353 v 1.21074 l -4.06598,-1.7589 v -0.82941 z m 3.08881,-0.93904 -3.08881,1.17261 -0.97717,0.20973 v -0.83417 l 4.06598,-1.75414 z m 4.34721,1.12971 -3.13648,-1.13924 v -1.2012 l 4.13748,1.7589 v 0.83894 z m -3.13648,0.97716 3.14124,-1.1726 0.99624,-0.22403 v 0.83417 l -4.13748,1.7589 z"
         id="text188"
         style="font-size:9.76216px;font-family:Vazirmatn;-inkscape-font-specification:'Vazirmatn, @wght=600';font-variation-settings:'wght' 600;fill:#ffffff;stroke-width:0.0489041"
         transform="matrix(0.9826058,-0.22078187,0.22427299,0.96731018,0,0)"
         aria-label="&lt;&gt;" />
      <path
         d="m 143.57502,98.579425 3.08881,1.153536 v 1.210739 l -4.06598,-1.758907 v -0.829402 z m 3.08881,-0.939036 -3.08881,1.172603 -0.97717,0.209734 v -0.834169 l 4.06598,-1.754138 z m 4.34721,1.129703 -3.13648,-1.139237 v -1.201203 l 4.13748,1.758905 v 0.838936 z m -3.13648,0.977169 3.14124,-1.172603 0.99624,-0.224034 v 0.834169 l -4.13748,1.758907 z"
         id="text189"
         style="font-size:9.76216px;font-family:Vazirmatn;-inkscape-font-specification:'Vazirmatn, @wght=600';font-variation-settings:'wght' 600;fill:#ffffff;stroke-width:0.0489041"
         transform="matrix(1.005057,-0.07414638,0.07531882,0.98941192,0,0)"
         aria-label="&lt;&gt;" />
      <path
         d="m 165.30486,74.872973 3.08881,1.153537 v 1.210736 l -4.06598,-1.758904 v -0.829403 z m 3.08881,-0.939036 -3.08881,1.172604 -0.97717,0.209734 v -0.834169 l 4.06598,-1.754139 z m 4.34721,1.129703 -3.13647,-1.139236 v -1.201203 l 4.13747,1.758905 v 0.838935 z m -3.13647,0.97717 3.14124,-1.172603 0.99623,-0.224034 v 0.834169 l -4.13747,1.758904 z"
         id="text190"
         style="font-size:9.76216px;font-family:Vazirmatn;-inkscape-font-specification:'Vazirmatn, @wght=600';font-variation-settings:'wght' 600;fill:#ffffff;stroke-width:0.0489041"
         transform="matrix(1.005057,0.07414638,-0.07531882,0.98941192,0,0)"
         aria-label="&lt;&gt;" />
      <path
         d="m 183.2587,48.192725 3.08881,1.153537 v 1.210736 l -4.06598,-1.758905 v -0.829402 z m 3.08881,-0.939036 -3.08881,1.172603 -0.97717,0.209734 v -0.834169 l 4.06598,-1.754138 z m 4.34721,1.129703 -3.13647,-1.139236 v -1.201204 l 4.13748,1.758905 v 0.838936 z m -3.13647,0.97717 3.14124,-1.172604 0.99624,-0.224034 v 0.834169 l -4.13748,1.758905 z"
         id="text191"
         style="font-size:9.76216px;font-family:Vazirmatn;-inkscape-font-specification:'Vazirmatn, @wght=600';font-variation-settings:'wght' 600;fill:#ffffff;stroke-width:0.0489041"
         transform="matrix(0.9826057,0.22078229,-0.22427342,0.96731008,0,0)"
         aria-label="&lt;&gt;" />
      <path
         d="m 197.0355,19.134604 3.08881,1.153537 v 1.210736 l -4.06598,-1.758904 V 18.91057 Z m 3.08881,-0.939036 -3.08881,1.172604 -0.97717,0.209734 v -0.834169 l 4.06598,-1.754139 z m 4.34721,1.129703 -3.13648,-1.139236 v -1.201203 l 4.13748,1.758905 v 0.838935 z m -3.13648,0.97717 3.14124,-1.172603 0.99624,-0.224034 v 0.834169 l -4.13748,1.758904 z"
         id="text192"
         style="font-size:9.76216px;font-family:Vazirmatn;-inkscape-font-specification:'Vazirmatn, @wght=600';font-variation-settings:'wght' 600;fill:#ffffff;stroke-width:0.0489041"
         transform="matrix(0.93820459,0.36248635,-0.36821817,0.92360019,0,0)"
         aria-label="&lt;&gt;" />
      <path
         d="m 206.32755,-11.652329 3.08881,1.153537 v 1.2107365 l -4.06598,-1.7589045 v -0.829403 z m 3.08881,-0.939036 -3.08881,1.172604 -0.97717,0.209734 v -0.834169 l 4.06598,-1.754139 z m 4.34721,1.129704 -3.13647,-1.139237 v -1.201203 l 4.13747,1.758905 v 0.838935 z m -3.13647,0.977169 3.14124,-1.172603 0.99623,-0.224034 v 0.834169 l -4.13747,1.7589045 z"
         id="text193"
         style="font-size:9.76216px;font-family:Vazirmatn;-inkscape-font-specification:'Vazirmatn, @wght=600';font-variation-settings:'wght' 600;fill:#ffffff;stroke-width:0.0489041"
         transform="matrix(0.87284557,0.49609316,-0.50393765,0.8592585,0,0)"
         aria-label="&lt;&gt;" />
      <path
         d="m 210.92728,-43.48034 3.08881,1.153536 v 1.210737 l -4.06598,-1.758905 v -0.829402 z m 3.08881,-0.939036 -3.08881,1.172603 -0.97717,0.209734 v -0.834169 l 4.06598,-1.754138 z m 4.34721,1.129703 -3.13647,-1.139236 v -1.201204 l 4.13748,1.758905 v 0.838936 z m -3.13647,0.977169 3.14124,-1.172603 0.99624,-0.224034 v 0.834169 l -4.13748,1.758905 z"
         id="text194"
         style="font-size:9.76216px;font-family:Vazirmatn;-inkscape-font-specification:'Vazirmatn, @wght=600';font-variation-settings:'wght' 600;fill:#ffffff;stroke-width:0.0489041"
         transform="matrix(0.78798843,0.61861824,-0.62840015,0.77572231,0,0)"
         aria-label="&lt;&gt;" />
      <path
         d="m 210.73189,-75.638341 3.08881,1.153536 v 1.210737 l -4.06598,-1.758905 v -0.829402 z m 3.08881,-0.939036 -3.08881,1.172603 -0.97717,0.209734 v -0.834169 l 4.06598,-1.754138 z m 4.34721,1.129703 -3.13647,-1.139236 v -1.201204 l 4.13748,1.758905 v 0.838936 z m -3.13647,0.977169 3.14124,-1.172603 0.99624,-0.224034 v 0.834169 l -4.13748,1.758905 z"
         id="text195"
         style="font-size:9.76216px;font-family:Vazirmatn;-inkscape-font-specification:'Vazirmatn, @wght=600';font-variation-settings:'wght' 600;fill:#ffffff;stroke-width:0.0489041"
         transform="matrix(0.68552918,0.72732409,-0.73882492,0.67485798,0,0)"
         aria-label="&lt;&gt;" />
      <path
         d="m 205.74581,-107.40805 3.08881,1.15354 v 1.21074 l -4.06598,-1.75891 v -0.8294 z m 3.08881,-0.93903 -3.08881,1.1726 -0.97717,0.20973 v -0.83417 l 4.06598,-1.75413 z m 4.34721,1.1297 -3.13648,-1.13924 v -1.2012 l 4.13748,1.7589 v 0.83894 z m -3.13648,0.97717 3.14125,-1.1726 0.99623,-0.22404 v 0.83417 l -4.13748,1.75891 z"
         id="text196"
         style="font-size:9.76216px;font-family:Vazirmatn;-inkscape-font-specification:'Vazirmatn, @wght=600';font-variation-settings:'wght' 600;fill:#ffffff;stroke-width:0.0489041"
         transform="matrix(0.56775633,0.81978279,-0.83274562,0.55891842,0,0)"
         aria-label="&lt;&gt;" />
      <path
         d="m 196.08037,-138.07978 3.08881,1.15354 v 1.21074 l -4.06598,-1.75891 v -0.8294 z m 3.08881,-0.93903 -3.08881,1.1726 -0.97717,0.20973 v -0.83417 l 4.06598,-1.75413 z m 4.34721,1.1297 -3.13647,-1.13924 v -1.2012 l 4.13748,1.7589 v 0.83894 z m -3.13647,0.97717 3.14124,-1.1726 0.99624,-0.22404 v 0.83417 l -4.13748,1.75891 z"
         id="text197"
         style="font-size:9.76216px;font-family:Vazirmatn;-inkscape-font-specification:'Vazirmatn, @wght=600';font-variation-settings:'wght' 600;fill:#ffffff;stroke-width:0.0489041"
         transform="matrix(0.4373007,0.89392892,-0.90806424,0.43049351,0,0)"
         aria-label="&lt;&gt;" />
      <path
         d="m 181.95148,-166.96843 3.08881,1.15353 v 1.21074 l -4.06598,-1.75891 v -0.8294 z m 3.08881,-0.93904 -3.08881,1.1726 -0.97717,0.20974 v -0.83417 l 4.06598,-1.75414 z m 4.34721,1.1297 -3.13647,-1.13923 v -1.20121 l 4.13748,1.75891 v 0.83893 z m -3.13647,0.97717 3.14124,-1.1726 0.99624,-0.22404 v 0.83417 l -4.13748,1.75891 z"
         id="text198"
         style="font-size:9.76216px;font-family:Vazirmatn;-inkscape-font-specification:'Vazirmatn, @wght=600';font-variation-settings:'wght' 600;fill:#ffffff;stroke-width:0.0489041"
         transform="matrix(0.29707621,0.94810631,-0.96309825,0.29245181,0,0)"
         aria-label="&lt;&gt;" />
      <path
         d="m 163.67483,-193.42855 3.0888,1.15354 v 1.21074 l -4.06597,-1.75891 v -0.8294 z m 3.0888,-0.93903 -3.0888,1.1726 -0.97717,0.20973 v -0.83417 l 4.06597,-1.75413 z m 4.34722,1.1297 -3.13648,-1.13924 v -1.2012 l 4.13748,1.7589 v 0.83894 z m -3.13648,0.97717 3.14124,-1.1726 0.99624,-0.22404 v 0.83417 l -4.13748,1.75891 z"
         id="text199"
         style="font-size:9.76216px;font-family:Vazirmatn;-inkscape-font-specification:'Vazirmatn, @wght=600';font-variation-settings:'wght' 600;fill:#ffffff;stroke-width:0.0489041"
         transform="matrix(0.15021611,0.98110436,-0.99661811,0.14787778,0,0)"
         aria-label="&lt;&gt;" />
    </g>
  </g>
</svg>
