<?xml version="1.0" encoding="UTF-8" standalone="no"?>
<!-- Created with Inkscape (http://www.inkscape.org/) -->

<svg
   width="198.66791mm"
   height="199.14145mm"
   viewBox="0 0 198.6679 199.14145"
   version="1.1"
   id="svg1"
   inkscape:version="1.3 (0e150ed6c4, 2023-07-21)"
   sodipodi:docname="n5.svg"
   xmlns:inkscape="http://www.inkscape.org/namespaces/inkscape"
   xmlns:sodipodi="http://sodipodi.sourceforge.net/DTD/sodipodi-0.dtd"
   xmlns="http://www.w3.org/2000/svg"
   xmlns:svg="http://www.w3.org/2000/svg">
  <sodipodi:namedview
     id="namedview1"
     pagecolor="#505050"
     bordercolor="#eeeeee"
     borderopacity="1"
     inkscape:showpageshadow="0"
     inkscape:pageopacity="0"
     inkscape:pagecheckerboard="0"
     inkscape:deskcolor="#d1d1d1"
     inkscape:document-units="mm"
     inkscape:zoom="0.35856832"
     inkscape:cx="228.68724"
     inkscape:cy="9.7610408"
     inkscape:window-width="1920"
     inkscape:window-height="1011"
     inkscape:window-x="0"
     inkscape:window-y="0"
     inkscape:window-maximized="1"
     inkscape:current-layer="layer1" />
  <defs
     id="defs1" />
  <g
     inkscape:label="Layer 1"
     inkscape:groupmode="layer"
     id="layer1"
     transform="translate(-30.99858,-119.91474)">
    <g
       id="g41">
      <path
         d="M 229.55856,210.82521 H 206.4027 v 3.87773 h 19.70899 v 13.44277 h 3.44687 z"
         id="text16"
         style="font-size:43.0858px;font-family:'Droid Sans Georgian';-inkscape-font-specification:'Droid Sans Georgian, Normal';fill:#ffffff;stroke:#ffffff;stroke-width:0.215841"
         aria-label="L"
         sodipodi:nodetypes="ccccccc" />
      <path
         d="m 227.97908,239.13122 -22.21788,-6.52376 -1.09249,3.72065 18.91064,5.55267 -3.78727,12.89824 3.30725,0.9711 z"
         id="path21"
         style="font-size:43.0858px;font-family:'Droid Sans Georgian';-inkscape-font-specification:'Droid Sans Georgian, Normal';fill:#ffffff;stroke:#ffffff;stroke-width:0.215841"
         aria-label="L"
         sodipodi:nodetypes="ccccccc" />
      <path
         d="m 218.48887,265.84565 -19.47995,-12.51901 -2.09646,3.26216 16.58026,10.65548 -7.26772,11.30878 2.89969,1.86352 z"
         id="path22"
         style="font-size:43.0858px;font-family:'Droid Sans Georgian';-inkscape-font-specification:'Droid Sans Georgian, Normal';fill:#ffffff;stroke:#ffffff;stroke-width:0.215841"
         aria-label="L"
         sodipodi:nodetypes="ccccccc" />
      <path
         d="m 201.85674,288.80423 -15.16386,-17.50004 -2.93059,2.53938 12.90664,14.89506 -10.15937,8.80314 2.25722,2.60497 z"
         id="path23"
         style="font-size:43.0858px;font-family:'Droid Sans Georgian';-inkscape-font-specification:'Droid Sans Georgian, Normal';fill:#ffffff;stroke:#ffffff;stroke-width:0.215841"
         aria-label="L"
         sodipodi:nodetypes="ccccccc" />
      <path
         d="m 179.43014,306.14705 -9.61928,-21.06332 -3.52731,1.61087 8.18741,17.92793 -12.22798,5.58432 1.43188,3.13539 z"
         id="path24"
         style="font-size:43.0858px;font-family:'Droid Sans Georgian';-inkscape-font-specification:'Droid Sans Georgian, Normal';fill:#ffffff;stroke:#ffffff;stroke-width:0.215841"
         aria-label="L"
         sodipodi:nodetypes="ccccccc" />
      <path
         d="m 153.02597,316.46903 -3.29542,-22.92017 -3.83826,0.55186 2.80488,19.50838 -13.30595,1.91311 0.49054,3.41178 z"
         id="path25"
         style="font-size:43.0858px;font-family:'Droid Sans Georgian';-inkscape-font-specification:'Droid Sans Georgian, Normal';fill:#ffffff;stroke:#ffffff;stroke-width:0.215841"
         aria-label="L"
         sodipodi:nodetypes="ccccccc" />
      <path
         d="m 124.78329,318.934 3.29543,-22.92017 -3.83826,-0.55186 -2.80489,19.50838 -13.30594,-1.91311 -0.49054,3.41179 z"
         id="path26"
         style="font-size:43.0858px;font-family:'Droid Sans Georgian';-inkscape-font-specification:'Droid Sans Georgian, Normal';fill:#ffffff;stroke:#ffffff;stroke-width:0.215841"
         aria-label="L"
         sodipodi:nodetypes="ccccccc" />
      <path
         d="m 96.990189,313.34224 9.619291,-21.06331 -3.52731,-1.61087 -8.187406,17.92793 -12.227979,-5.58433 -1.431881,3.13538 z"
         id="path27"
         style="font-size:43.0858px;font-family:'Droid Sans Georgian';-inkscape-font-specification:'Droid Sans Georgian, Normal';fill:#ffffff;stroke:#ffffff;stroke-width:0.215841"
         aria-label="L"
         sodipodi:nodetypes="ccccccc" />
      <path
         d="m 71.898271,300.14674 15.163866,-17.50003 -2.930593,-2.53937 -12.906646,14.89506 -10.159366,-8.80315 -2.25722,2.60497 z"
         id="path28"
         style="font-size:43.0858px;font-family:'Droid Sans Georgian';-inkscape-font-specification:'Droid Sans Georgian, Normal';fill:#ffffff;stroke:#ffffff;stroke-width:0.215841"
         aria-label="L"
         sodipodi:nodetypes="ccccccc" />
      <path
         d="m 51.540367,280.41655 19.479949,-12.519 -2.096459,-3.26216 -16.580257,10.65549 -7.26771,-11.30878 -2.899692,1.86352 z"
         id="path29"
         style="font-size:43.0858px;font-family:'Droid Sans Georgian';-inkscape-font-specification:'Droid Sans Georgian, Normal';fill:#ffffff;stroke:#ffffff;stroke-width:0.215841"
         aria-label="L"
         sodipodi:nodetypes="ccccccc" />
      <path
         d="m 37.565722,255.7501 22.217887,-6.52376 -1.092483,-3.72065 -18.910638,5.55266 -3.787264,-12.89824 -3.307247,0.97109 z"
         id="path30"
         style="font-size:43.0858px;font-family:'Droid Sans Georgian';-inkscape-font-specification:'Droid Sans Georgian, Normal';fill:#ffffff;stroke:#ffffff;stroke-width:0.215841"
         aria-label="L"
         sodipodi:nodetypes="ccccccc" />
      <path
         d="m 31.1065,228.14569 h 23.15586 v -3.87773 H 34.55337 V 210.82519 H 31.1065 Z"
         id="path31"
         style="font-size:43.0858px;font-family:'Droid Sans Georgian';-inkscape-font-specification:'Droid Sans Georgian, Normal';fill:#ffffff;stroke:#ffffff;stroke-width:0.215841"
         aria-label="L"
         sodipodi:nodetypes="ccccccc" />
      <path
         d="m 32.68598,199.83968 22.217884,6.52376 1.092483,-3.72065 -18.910636,-5.55267 3.787269,-12.89824 -3.307248,-0.9711 z"
         id="path32"
         style="font-size:43.0858px;font-family:'Droid Sans Georgian';-inkscape-font-specification:'Droid Sans Georgian, Normal';fill:#ffffff;stroke:#ffffff;stroke-width:0.215841"
         aria-label="L"
         sodipodi:nodetypes="ccccccc" />
      <path
         d="m 42.176196,173.1253 19.479951,12.519 2.096459,-3.26216 -16.58026,-10.65548 7.267709,-11.30878 -2.899692,-1.86351 z"
         id="path33"
         style="font-size:43.0858px;font-family:'Droid Sans Georgian';-inkscape-font-specification:'Droid Sans Georgian, Normal';fill:#ffffff;stroke:#ffffff;stroke-width:0.215841"
         aria-label="L"
         sodipodi:nodetypes="ccccccc" />
      <path
         d="m 58.80832,150.16669 15.163865,17.50003 2.930593,-2.53937 -12.906646,-14.89506 10.159367,-8.80314 -2.25722,-2.60497 z"
         id="path34"
         style="font-size:43.0858px;font-family:'Droid Sans Georgian';-inkscape-font-specification:'Droid Sans Georgian, Normal';fill:#ffffff;stroke:#ffffff;stroke-width:0.215841"
         aria-label="L"
         sodipodi:nodetypes="ccccccc" />
      <path
         d="m 81.234907,132.82387 9.619291,21.06331 3.527307,-1.61086 -8.187409,-17.92793 12.227978,-5.58433 -1.431881,-3.13538 z"
         id="path35"
         style="font-size:43.0858px;font-family:'Droid Sans Georgian';-inkscape-font-specification:'Droid Sans Georgian, Normal';fill:#ffffff;stroke:#ffffff;stroke-width:0.215841"
         aria-label="L"
         sodipodi:nodetypes="ccccccc" />
      <path
         d="m 107.63912,122.50189 3.29542,22.92016 3.83826,-0.55185 -2.80488,-19.50839 13.30594,-1.9131 -0.49054,-3.41178 z"
         id="path36"
         style="font-size:43.0858px;font-family:'Droid Sans Georgian';-inkscape-font-specification:'Droid Sans Georgian, Normal';fill:#ffffff;stroke:#ffffff;stroke-width:0.215841"
         aria-label="L"
         sodipodi:nodetypes="ccccccc" />
      <path
         d="m 135.88179,120.03692 -3.29542,22.92017 3.83826,0.55186 2.80488,-19.50838 13.30594,1.91311 0.49055,-3.41179 z"
         id="path37"
         style="font-size:43.0858px;font-family:'Droid Sans Georgian';-inkscape-font-specification:'Droid Sans Georgian, Normal';fill:#ffffff;stroke:#ffffff;stroke-width:0.215841"
         aria-label="L"
         sodipodi:nodetypes="ccccccc" />
      <path
         d="m 163.6749,125.62868 -9.6193,21.06331 3.52731,1.61086 8.18741,-17.92792 12.22798,5.58433 1.43188,-3.13539 z"
         id="path38"
         style="font-size:43.0858px;font-family:'Droid Sans Georgian';-inkscape-font-specification:'Droid Sans Georgian, Normal';fill:#ffffff;stroke:#ffffff;stroke-width:0.215841"
         aria-label="L"
         sodipodi:nodetypes="ccccccc" />
      <path
         d="m 188.76678,138.82418 -15.16386,17.50003 2.93059,2.53937 12.90665,-14.89506 10.15936,8.80314 2.25722,-2.60497 z"
         id="path39"
         style="font-size:43.0858px;font-family:'Droid Sans Georgian';-inkscape-font-specification:'Droid Sans Georgian, Normal';fill:#ffffff;stroke:#ffffff;stroke-width:0.215841"
         aria-label="L"
         sodipodi:nodetypes="ccccccc" />
      <path
         d="m 209.12473,158.55438 -19.47996,12.519 2.09646,3.26215 16.58026,-10.65548 7.26771,11.30879 2.89969,-1.86352 z"
         id="path40"
         style="font-size:43.0858px;font-family:'Droid Sans Georgian';-inkscape-font-specification:'Droid Sans Georgian, Normal';fill:#ffffff;stroke:#ffffff;stroke-width:0.215841"
         aria-label="L"
         sodipodi:nodetypes="ccccccc" />
      <path
         d="m 223.09934,183.22084 -22.21789,6.52375 1.09248,3.72065 18.91064,-5.55265 3.78727,12.89824 3.30724,-0.97109 z"
         id="path41"
         style="font-size:43.0858px;font-family:'Droid Sans Georgian';-inkscape-font-specification:'Droid Sans Georgian, Normal';fill:#ffffff;stroke:#ffffff;stroke-width:0.215841"
         aria-label="L"
         sodipodi:nodetypes="ccccccc" />
    </g>
  </g>
</svg>
